<svg width="1477" height="36" viewBox="0 0 1477 36" fill="none" xmlns="http://www.w3.org/2000/svg">
<rect width="1472" height="8" transform="translate(2 14)" fill="#E9ECEF"/>
<rect width="1472" height="8" transform="translate(2 14)" fill="url(#paint0_linear_2525_57360)"/>
<path d="M23.3337 5.00984C25.632 6.31612 27.5439 8.19063 28.8801 10.4478C30.2163 12.705 30.9304 15.2665 30.9519 17.8788C30.9733 20.4912 30.3013 23.0638 29.0023 25.3419C27.7033 27.62 25.8225 29.5247 23.5459 30.8673C21.2693 32.21 18.676 32.9441 16.0226 32.9969C13.3693 33.0498 10.7479 32.4196 8.41798 31.1687C6.08808 29.9178 4.13046 28.0896 2.73891 25.8651C1.34736 23.6406 0.570139 21.0969 0.484182 18.4858L0.476562 17.9998L0.484182 17.5138C0.56952 14.9233 1.3353 12.3988 2.70687 10.1863C4.07844 7.97388 6.00899 6.14902 8.3103 4.88966C10.6116 3.63031 13.2052 2.97943 15.8381 3.0005C18.471 3.02156 21.0535 3.71384 23.3337 5.00984ZM21.3634 13.9393C21.101 13.6811 20.7519 13.5259 20.3816 13.503C20.0113 13.4801 19.6452 13.591 19.352 13.8148L19.2088 13.9393L14.1908 18.8773L12.2206 16.9393L12.0773 16.8148C11.7841 16.5911 11.4181 16.4804 11.0478 16.5034C10.6776 16.5264 10.3286 16.6815 10.0663 16.9397C9.80398 17.1979 9.64636 17.5415 9.62301 17.9059C9.59965 18.2704 9.71215 18.6307 9.93942 18.9193L10.0659 19.0603L13.1135 22.0603L13.2568 22.1848C13.524 22.3889 13.8526 22.4997 14.1908 22.4997C14.5291 22.4997 14.8577 22.3889 15.1249 22.1848L15.2682 22.0603L21.3634 16.0603L21.4899 15.9193C21.7173 15.6307 21.83 15.2704 21.8067 14.9058C21.7834 14.5413 21.6258 14.1976 21.3634 13.9393Z" fill="#E9ECEF"/>
<path d="M385 5.00984C387.262 6.31612 389.144 8.19063 390.46 10.4478C391.775 12.705 392.478 15.2665 392.499 17.8788C392.52 20.4912 391.859 23.0638 390.58 25.3419C389.301 27.62 387.45 29.5247 385.209 30.8673C382.968 32.21 380.415 32.9441 377.803 32.9969C375.191 33.0498 372.611 32.4196 370.317 31.1687C368.024 29.9178 366.097 28.0896 364.727 25.8651C363.357 23.6406 362.592 21.0969 362.508 18.4858L362.5 17.9998L362.508 17.5138C362.592 14.9233 363.345 12.3988 364.695 10.1863C366.046 7.97388 367.946 6.14902 370.211 4.88966C372.477 3.63031 375.03 2.97943 377.622 3.0005C380.213 3.02156 382.755 3.71384 385 5.00984ZM383.06 13.9393C382.802 13.6811 382.459 13.5259 382.094 13.503C381.729 13.4801 381.369 13.591 381.081 13.8148L380.94 13.9393L376 18.8773L374.06 16.9393L373.919 16.8148C373.631 16.5911 373.271 16.4804 372.906 16.5034C372.542 16.5264 372.198 16.6815 371.94 16.9397C371.682 17.1979 371.527 17.5415 371.504 17.9059C371.481 18.2704 371.591 18.6307 371.815 18.9193L371.94 19.0603L374.94 22.0603L375.081 22.1848C375.344 22.3889 375.667 22.4997 376 22.4997C376.333 22.4997 376.656 22.3889 376.919 22.1848L377.06 22.0603L383.06 16.0603L383.185 15.9193C383.409 15.6307 383.52 15.2704 383.497 14.9058C383.474 14.5413 383.319 14.1976 383.06 13.9393Z" fill="#E9ECEF"/>
<path d="M746.5 5.00984C748.762 6.31612 750.644 8.19063 751.96 10.4478C753.275 12.705 753.978 15.2665 753.999 17.8788C754.02 20.4912 753.359 23.0638 752.08 25.3419C750.801 27.62 748.95 29.5247 746.709 30.8673C744.468 32.21 741.915 32.9441 739.303 32.9969C736.691 33.0498 734.111 32.4196 731.817 31.1687C729.524 29.9178 727.597 28.0896 726.227 25.8651C724.857 23.6406 724.092 21.0969 724.008 18.4858L724 17.9998L724.008 17.5138C724.092 14.9233 724.845 12.3988 726.195 10.1863C727.546 7.97388 729.446 6.14902 731.711 4.88966C733.977 3.63031 736.53 2.97943 739.122 3.0005C741.713 3.02156 744.255 3.71384 746.5 5.00984ZM744.56 13.9393C744.302 13.6811 743.959 13.5259 743.594 13.503C743.229 13.4801 742.869 13.591 742.581 13.8148L742.44 13.9393L737.5 18.8773L735.56 16.9393L735.419 16.8148C735.131 16.5911 734.771 16.4804 734.406 16.5034C734.042 16.5264 733.698 16.6815 733.44 16.9397C733.182 17.1979 733.027 17.5415 733.004 17.9059C732.981 18.2704 733.091 18.6307 733.315 18.9193L733.44 19.0603L736.44 22.0603L736.581 22.1848C736.844 22.3889 737.167 22.4997 737.5 22.4997C737.833 22.4997 738.156 22.3889 738.419 22.1848L738.56 22.0603L744.56 16.0603L744.685 15.9193C744.909 15.6307 745.02 15.2704 744.997 14.9058C744.974 14.5413 744.819 14.1976 744.56 13.9393Z" fill="#E9ECEF"/>
<path d="M1108 5.00984C1110.26 6.31612 1112.14 8.19063 1113.46 10.4478C1114.78 12.705 1115.48 15.2665 1115.5 17.8788C1115.52 20.4912 1114.86 23.0638 1113.58 25.3419C1112.3 27.62 1110.45 29.5247 1108.21 30.8673C1105.97 32.21 1103.42 32.9441 1100.8 32.9969C1098.19 33.0498 1095.61 32.4196 1093.32 31.1687C1091.02 29.9178 1089.1 28.0896 1087.73 25.8651C1086.36 23.6406 1085.59 21.0969 1085.51 18.4858L1085.5 17.9998L1085.51 17.5138C1085.59 14.9233 1086.35 12.3988 1087.7 10.1863C1089.05 7.97388 1090.95 6.14902 1093.21 4.88966C1095.48 3.63031 1098.03 2.97943 1100.62 3.0005C1103.21 3.02156 1105.76 3.71384 1108 5.00984ZM1106.06 13.9393C1105.8 13.6811 1105.46 13.5259 1105.09 13.503C1104.73 13.4801 1104.37 13.591 1104.08 13.8148L1103.94 13.9393L1099 18.8773L1097.06 16.9393L1096.92 16.8148C1096.63 16.5911 1096.27 16.4804 1095.91 16.5034C1095.54 16.5264 1095.2 16.6815 1094.94 16.9397C1094.68 17.1979 1094.53 17.5415 1094.5 17.9059C1094.48 18.2704 1094.59 18.6307 1094.82 18.9193L1094.94 19.0603L1097.94 22.0603L1098.08 22.1848C1098.34 22.3889 1098.67 22.4997 1099 22.4997C1099.33 22.4997 1099.66 22.3889 1099.92 22.1848L1100.06 22.0603L1106.06 16.0603L1106.18 15.9193C1106.41 15.6307 1106.52 15.2704 1106.5 14.9058C1106.47 14.5413 1106.32 14.1976 1106.06 13.9393Z" fill="#E9ECEF"/>
<path d="M1469.5 5.00984C1471.76 6.31612 1473.64 8.19063 1474.96 10.4478C1476.28 12.705 1476.98 15.2665 1477 17.8788C1477.02 20.4912 1476.36 23.0638 1475.08 25.3419C1473.8 27.62 1471.95 29.5247 1469.71 30.8673C1467.47 32.21 1464.92 32.9441 1462.3 32.9969C1459.69 33.0498 1457.11 32.4196 1454.82 31.1687C1452.52 29.9178 1450.6 28.0896 1449.23 25.8651C1447.86 23.6406 1447.09 21.0969 1447.01 18.4858L1447 17.9998L1447.01 17.5138C1447.09 14.9233 1447.85 12.3988 1449.2 10.1863C1450.55 7.97388 1452.45 6.14902 1454.71 4.88966C1456.98 3.63031 1459.53 2.97943 1462.12 3.0005C1464.71 3.02156 1467.26 3.71384 1469.5 5.00984ZM1467.56 13.9393C1467.3 13.6811 1466.96 13.5259 1466.59 13.503C1466.23 13.4801 1465.87 13.591 1465.58 13.8148L1465.44 13.9393L1460.5 18.8773L1458.56 16.9393L1458.42 16.8148C1458.13 16.5911 1457.77 16.4804 1457.41 16.5034C1457.04 16.5264 1456.7 16.6815 1456.44 16.9397C1456.18 17.1979 1456.03 17.5415 1456 17.9059C1455.98 18.2704 1456.09 18.6307 1456.32 18.9193L1456.44 19.0603L1459.44 22.0603L1459.58 22.1848C1459.84 22.3889 1460.17 22.4997 1460.5 22.4997C1460.83 22.4997 1461.16 22.3889 1461.42 22.1848L1461.56 22.0603L1467.56 16.0603L1467.68 15.9193C1467.91 15.6307 1468.02 15.2704 1468 14.9058C1467.97 14.5413 1467.82 14.1976 1467.56 13.9393Z" fill="#E9ECEF"/>
<defs>
<linearGradient id="paint0_linear_2525_57360" x1="0" y1="4.00003" x2="1472" y2="4.00003" gradientUnits="userSpaceOnUse">
<stop offset="0.75"/>
<stop offset="1" stop-color="#E9ECEF"/>
</linearGradient>
</defs>
</svg>
