<svg width="1429" height="36" viewBox="0 0 1429 36" fill="none" xmlns="http://www.w3.org/2000/svg">
<rect width="1424" height="8" transform="translate(2 14)" fill="#E9ECEF"/>
<rect width="1424" height="8" transform="translate(2 14)" fill="url(#paint0_linear_2525_57361)"/>
<path d="M23.3337 5.00984C25.632 6.31612 27.5439 8.19063 28.8801 10.4478C30.2163 12.705 30.9304 15.2665 30.9519 17.8788C30.9733 20.4912 30.3013 23.0638 29.0023 25.3419C27.7033 27.62 25.8225 29.5247 23.5459 30.8673C21.2693 32.21 18.676 32.9441 16.0226 32.9969C13.3693 33.0498 10.7479 32.4196 8.41798 31.1687C6.08808 29.9178 4.13046 28.0896 2.73891 25.8651C1.34736 23.6406 0.570139 21.0969 0.484182 18.4858L0.476562 17.9998L0.484182 17.5138C0.56952 14.9233 1.3353 12.3988 2.70687 10.1863C4.07844 7.97388 6.00899 6.14902 8.3103 4.88966C10.6116 3.63031 13.2052 2.97943 15.8381 3.0005C18.471 3.02156 21.0535 3.71384 23.3337 5.00984ZM21.3634 13.9393C21.101 13.6811 20.7519 13.5259 20.3816 13.503C20.0113 13.4801 19.6452 13.591 19.352 13.8148L19.2088 13.9393L14.1908 18.8773L12.2206 16.9393L12.0773 16.8148C11.7841 16.5911 11.4181 16.4804 11.0478 16.5034C10.6776 16.5264 10.3286 16.6815 10.0663 16.9397C9.80398 17.1979 9.64636 17.5415 9.62301 17.9059C9.59965 18.2704 9.71215 18.6307 9.93942 18.9193L10.0659 19.0603L13.1135 22.0603L13.2568 22.1848C13.524 22.3889 13.8526 22.4997 14.1908 22.4997C14.5291 22.4997 14.8577 22.3889 15.1249 22.1848L15.2682 22.0603L21.3634 16.0603L21.4899 15.9193C21.7173 15.6307 21.83 15.2704 21.8067 14.9058C21.7834 14.5413 21.6258 14.1976 21.3634 13.9393Z" fill="#E9ECEF"/>
<path d="M373 5.00984C375.262 6.31612 377.144 8.19063 378.46 10.4478C379.775 12.705 380.478 15.2665 380.499 17.8788C380.52 20.4912 379.859 23.0638 378.58 25.3419C377.301 27.62 375.45 29.5247 373.209 30.8673C370.968 32.21 368.415 32.9441 365.803 32.9969C363.191 33.0498 360.611 32.4196 358.317 31.1687C356.024 29.9178 354.097 28.0896 352.727 25.8651C351.357 23.6406 350.592 21.0969 350.508 18.4858L350.5 17.9998L350.508 17.5138C350.592 14.9233 351.345 12.3988 352.695 10.1863C354.046 7.97388 355.946 6.14902 358.211 4.88966C360.477 3.63031 363.03 2.97943 365.622 3.0005C368.213 3.02156 370.755 3.71384 373 5.00984ZM371.06 13.9393C370.802 13.6811 370.459 13.5259 370.094 13.503C369.729 13.4801 369.369 13.591 369.081 13.8148L368.94 13.9393L364 18.8773L362.06 16.9393L361.919 16.8148C361.631 16.5911 361.271 16.4804 360.906 16.5034C360.542 16.5264 360.198 16.6815 359.94 16.9397C359.682 17.1979 359.527 17.5415 359.504 17.9059C359.481 18.2704 359.591 18.6307 359.815 18.9193L359.94 19.0603L362.94 22.0603L363.081 22.1848C363.344 22.3889 363.667 22.4997 364 22.4997C364.333 22.4997 364.656 22.3889 364.919 22.1848L365.06 22.0603L371.06 16.0603L371.185 15.9193C371.409 15.6307 371.52 15.2704 371.497 14.9058C371.474 14.5413 371.319 14.1976 371.06 13.9393Z" fill="#E9ECEF"/>
<path d="M722.5 5.00984C724.762 6.31612 726.644 8.19063 727.96 10.4478C729.275 12.705 729.978 15.2665 729.999 17.8788C730.02 20.4912 729.359 23.0638 728.08 25.3419C726.801 27.62 724.95 29.5247 722.709 30.8673C720.468 32.21 717.915 32.9441 715.303 32.9969C712.691 33.0498 710.111 32.4196 707.817 31.1687C705.524 29.9178 703.597 28.0896 702.227 25.8651C700.857 23.6406 700.092 21.0969 700.008 18.4858L700 17.9998L700.008 17.5138C700.092 14.9233 700.845 12.3988 702.195 10.1863C703.546 7.97388 705.446 6.14902 707.711 4.88966C709.977 3.63031 712.53 2.97943 715.122 3.0005C717.713 3.02156 720.255 3.71384 722.5 5.00984ZM720.56 13.9393C720.302 13.6811 719.959 13.5259 719.594 13.503C719.229 13.4801 718.869 13.591 718.581 13.8148L718.44 13.9393L713.5 18.8773L711.56 16.9393L711.419 16.8148C711.131 16.5911 710.771 16.4804 710.406 16.5034C710.042 16.5264 709.698 16.6815 709.44 16.9397C709.182 17.1979 709.027 17.5415 709.004 17.9059C708.981 18.2704 709.091 18.6307 709.315 18.9193L709.44 19.0603L712.44 22.0603L712.581 22.1848C712.844 22.3889 713.167 22.4997 713.5 22.4997C713.833 22.4997 714.156 22.3889 714.419 22.1848L714.56 22.0603L720.56 16.0603L720.685 15.9193C720.909 15.6307 721.02 15.2704 720.997 14.9058C720.974 14.5413 720.819 14.1976 720.56 13.9393Z" fill="#E9ECEF"/>
<path d="M1072 5.00984C1074.26 6.31612 1076.14 8.19063 1077.46 10.4478C1078.78 12.705 1079.48 15.2665 1079.5 17.8788C1079.52 20.4912 1078.86 23.0638 1077.58 25.3419C1076.3 27.62 1074.45 29.5247 1072.21 30.8673C1069.97 32.21 1067.42 32.9441 1064.8 32.9969C1062.19 33.0498 1059.61 32.4196 1057.32 31.1687C1055.02 29.9178 1053.1 28.0896 1051.73 25.8651C1050.36 23.6406 1049.59 21.0969 1049.51 18.4858L1049.5 17.9998L1049.51 17.5138C1049.59 14.9233 1050.35 12.3988 1051.7 10.1863C1053.05 7.97388 1054.95 6.14902 1057.21 4.88966C1059.48 3.63031 1062.03 2.97943 1064.62 3.0005C1067.21 3.02156 1069.76 3.71384 1072 5.00984ZM1070.06 13.9393C1069.8 13.6811 1069.46 13.5259 1069.09 13.503C1068.73 13.4801 1068.37 13.591 1068.08 13.8148L1067.94 13.9393L1063 18.8773L1061.06 16.9393L1060.92 16.8148C1060.63 16.5911 1060.27 16.4804 1059.91 16.5034C1059.54 16.5264 1059.2 16.6815 1058.94 16.9397C1058.68 17.1979 1058.53 17.5415 1058.5 17.9059C1058.48 18.2704 1058.59 18.6307 1058.82 18.9193L1058.94 19.0603L1061.94 22.0603L1062.08 22.1848C1062.34 22.3889 1062.67 22.4997 1063 22.4997C1063.33 22.4997 1063.66 22.3889 1063.92 22.1848L1064.06 22.0603L1070.06 16.0603L1070.18 15.9193C1070.41 15.6307 1070.52 15.2704 1070.5 14.9058C1070.47 14.5413 1070.32 14.1976 1070.06 13.9393Z" fill="#E9ECEF"/>
<path d="M1421.5 5.00984C1423.76 6.31612 1425.64 8.19063 1426.96 10.4478C1428.28 12.705 1428.98 15.2665 1429 17.8788C1429.02 20.4912 1428.36 23.0638 1427.08 25.3419C1425.8 27.62 1423.95 29.5247 1421.71 30.8673C1419.47 32.21 1416.92 32.9441 1414.3 32.9969C1411.69 33.0498 1409.11 32.4196 1406.82 31.1687C1404.52 29.9178 1402.6 28.0896 1401.23 25.8651C1399.86 23.6406 1399.09 21.0969 1399.01 18.4858L1399 17.9998L1399.01 17.5138C1399.09 14.9233 1399.85 12.3988 1401.2 10.1863C1402.55 7.97388 1404.45 6.14902 1406.71 4.88966C1408.98 3.63031 1411.53 2.97943 1414.12 3.0005C1416.71 3.02156 1419.26 3.71384 1421.5 5.00984ZM1419.56 13.9393C1419.3 13.6811 1418.96 13.5259 1418.59 13.503C1418.23 13.4801 1417.87 13.591 1417.58 13.8148L1417.44 13.9393L1412.5 18.8773L1410.56 16.9393L1410.42 16.8148C1410.13 16.5911 1409.77 16.4804 1409.41 16.5034C1409.04 16.5264 1408.7 16.6815 1408.44 16.9397C1408.18 17.1979 1408.03 17.5415 1408 17.9059C1407.98 18.2704 1408.09 18.6307 1408.32 18.9193L1408.44 19.0603L1411.44 22.0603L1411.58 22.1848C1411.84 22.3889 1412.17 22.4997 1412.5 22.4997C1412.83 22.4997 1413.16 22.3889 1413.42 22.1848L1413.56 22.0603L1419.56 16.0603L1419.68 15.9193C1419.91 15.6307 1420.02 15.2704 1420 14.9058C1419.97 14.5413 1419.82 14.1976 1419.56 13.9393Z" fill="#E9ECEF"/>
<defs>
<linearGradient id="paint0_linear_2525_57361" x1="0" y1="4.00003" x2="1424" y2="4.00003" gradientUnits="userSpaceOnUse">
<stop offset="1"/>
<stop offset="1" stop-color="#E9ECEF"/>
</linearGradient>
</defs>
</svg>
