<?xml version="1.0" encoding="UTF-8"?>
<svg id="Layer_2" data-name="Layer 2" xmlns="http://www.w3.org/2000/svg" viewBox="0 0 190.45 67.06">
  <defs>
    <style>
      .cls-1 {
        fill: #fff;
      }
    </style>
  </defs>
  <g id="Layer_1-2" data-name="Layer 1">
    <g>
      <g>
        <path class="cls-1" d="M18.24,11.89l-.1-.03c-.54,0-1.55.4-4.07,3.87-.55.81-.83,1.1-.96,1.19-.19.12-.49.46-1.17,1.98-.68,1.52-.76,1.98-.76,2.2,0,.03-.02.19-.42.78-.33.5-.49,1.08-.49,1.73,0,.49-.15,1.03-.44,1.61-.32.65-.48,2.13-.48,4.55,0,3.22.28,3.91.55,4.17.11.08.37.45.37,2.1,0,.63.37,2.29,1.14,5.08.44,1.64.65,1.86.87,1.88.01.03.04.13.04.34,0,.39.2.7.58.89h.01s.19.25.58.98c.52,1.01.77,1.21,1,1.21.5,0,.57-.83.57-1.71s.14-1.51.41-1.91c.15-.19.5-.64.5-13.38,0-10.63.19-12.62.28-12.83.11-.12.3-.37.57-1.3.23-.79.38-1.03.45-1.1l.29-.28c.12-.12.3-.34.59-.71.39-.5.44-.69.44-.82,0-.15-.06-.35-.35-.49ZM17.97,13.06c-.27.34-.46.57-.57.68-.12.12-.22.21-.29.29-.15.15-.32.55-.51,1.2-.19.64-.36,1.04-.52,1.19-.22.23-.34,4.57-.34,13s-.15,12.85-.45,13.23c-.31.46-.46,1.14-.46,2.06,0,.98-.11,1.48-.34,1.48-.16,0-.42-.36-.8-1.08-.38-.73-.61-1.09-.68-1.09-.31-.15-.46-.38-.46-.68,0-.38-.08-.57-.23-.57s-.38-.57-.68-1.71c-.76-2.74-1.14-4.41-1.14-5.02,0-1.29-.16-2.05-.46-2.28-.3-.3-.46-1.64-.46-3.99s.16-3.84.46-4.45c.3-.61.46-1.18.46-1.71,0-.61.15-1.14.45-1.6.31-.45.46-.76.46-.91,0-.3.24-1.01.74-2.11.49-1.1.86-1.73,1.08-1.88.23-.15.57-.57,1.03-1.26,1.82-2.5,3.12-3.76,3.88-3.76.15.08.23.17.23.29,0,.11-.14.34-.4.68ZM28.56,36.68l-.06-.05c-.34-.17-.79-.24-1.37-.19-.66.05-.99.17-1.1.41l-.03.1c0,.07-.02.21-.05.42-.04.23-.08.54-.12.93-.03.38-.05.69-.05.9-.15,1.26-.37,2.1-.64,2.52-.73.97-.73,1.06-.73,1.16,0,.04-.05.38-1.68,1.58-1.48,1.11-2.01,1.27-2.2,1.27-.24,0-.74.14-2.46,1.23-1.99,1.27-1.99,1.46-1.99,1.62,0,.38.32,1.04,2.84,2.81,1.87,1.33,3.2,2.05,4.08,2.21.42.07.78.19,1.06.37.33.2.78.35,1.37.43.04,0,.23.03,1.16.49.51.26.91.38,1.2.38.15,0,.27-.03.37-.1.23-.11.58-.29.7-9.21v-4.56c0-4.42-.18-4.6-.3-4.72ZM28.63,45.96c-.08,5.86-.27,8.86-.57,9.01-.23.15-.69.06-1.37-.29-.68-.34-1.1-.51-1.26-.51-.53-.07-.95-.21-1.25-.4-.3-.19-.68-.32-1.14-.4-.84-.15-2.17-.87-3.99-2.16-1.83-1.3-2.74-2.17-2.74-2.63,0-.15.63-.62,1.88-1.42,1.26-.8,2.04-1.2,2.34-1.2.38,0,1.16-.44,2.34-1.31s1.77-1.46,1.77-1.77c0-.07.23-.42.68-1.02.3-.46.53-1.33.69-2.63,0-.23.01-.53.05-.91s.08-.68.12-.91c.03-.23.05-.38.05-.46.08-.15.38-.24.92-.28.53-.04.95.02,1.25.17.15.15.23,1.67.23,4.56v4.56ZM28.32,11.8h-.02c-.5-.34-.96-.51-1.38-.51h-1.03v16.31h3.08v-7.64c0-7.64-.44-7.99-.65-8.16ZM28.74,27.37h-2.62v-15.85h.8c.38,0,.8.15,1.25.46.38.3.57,2.96.57,7.98v7.41ZM46.87,51.09c-.3,0-.72.27-1.25.8-.76.61-1.71,1.25-2.85,1.94-.31.15-.65.34-1.03.57-.07.08-.15.15-.23.23-.76.38-2.39.64-4.9.8h-.68l-3.4.08v.23l3.4-.08h.7c2.56-.16,4.19-.43,4.99-.83l.21-.19.03-.04c.35-.22.69-.4,1.03-.57,1.14-.69,2.11-1.35,2.89-1.98.64-.63.96-.73,1.09-.73.31,0,.62.18.91.54.31.38.46.77.46,1.17,0,.26-.3,1-2.32,3.03l-4.46,4.45c-.54.55-.94,1.06-1.17,1.53-.29.51-.88,1.21-1.73,2.06-.58.58-.94.89-1.16,1.06-.23.16-.31.19-.33.19-.3,0-.61.17-.96.52-.34.33-1.75.73-6.57.73-3.82,0-6.28-.26-7.28-.76-.5-.33-.96-.49-1.39-.49-.39,0-.68-.1-.83-.24-.12-.18-.42-.46-1.61-.78-1.09-.3-1.33-.46-1.39-.52-.35-.34-.71-.52-1.07-.52-.03,0-.21-.03-.95-.53-.87-.58-1-.61-1.07-.61h-.01c-.06-.01-.35-.14-1.71-1.21-2.03-1.42-3.69-3.05-4.97-4.85-.97-1.42-1.27-1.79-1.42-1.89-.37-.38-1.05-1.5-2.04-3.33-1.25-2.31-1.51-3.14-1.51-3.43,0-.42-.15-.88-.43-1.37-.25-.41-.37-.8-.37-1.14,0-.59-.22-1.1-.63-1.52-.12-.16-.4-1.24-.4-7.94s.35-7.67.54-7.86c.32-.49.49-1,.49-1.49,0-.26.12-.59.36-.96.3-.46.44-.82.44-1.09s.12-.63.37-1.09c.29-.54.42-.62.42-.62.28,0,.46-.18.46-.46s.32-1.1,2.46-3.67c1.65-1.99,3.05-3.38,4.2-4.15.07-.07.18-.16.32-.27.16-.11.27-.17.33-.19.15-.05.3-.14.46-.31l.26-.26c.07-.06.15-.13.25-.2.11-.07.23-.14.38-.21l.12-.11c.18-.04.51-.23,1.38-.93.83-.52,1.58-.94,2.25-1.24.83-.37,1.09-.59,1.15-.79.06-.04.24-.12.71-.28.65-.22.96-.41,1.01-.66.06-.02.26-.07.8-.07.18,0,.39-.04.64-.13l.69-.23c.22-.07.41-.12.6-.16.15-.03.21,0,.24.05.07.07.11.19.11.35,0,.05-.04.25-.58.61-.46.3-.88.59-1.26.86-.33.23-.49.43-.51.63,0,.09.01.22.13.34.15.15.3.19.4.19.91,0,2.05-.77,3.47-2.35,1.13-1.14,1.4-1.29,1.43-1.3h.08l1.22-.98c.14-.14.44-.4.9-.79.46-.38.77-.65.9-.78.77-.55,1.56-1.41,2.32-2.55,1.36-1.65,1.71-1.84,1.76-1.86.05,0,.31.05,1.34.92,1.11.94,1.36,1.02,1.51,1.02.11,0,.12.01.12.11,0,.17.09.46.68.46.14,0,.33.03.49.34.42.76,1.37,1.14,2.82,1.14.59,0,.68.11.68.11,0,.32.25.46,2.51.46s2.78-.13,2.94-.24c2.3-.9,2.73-.92,2.77-.93.21.12.32.26.35.44.04.29-.13.87-1.2,1.94-.8.79-.96,1.14-.98,1.36-.06.11-.34.48-1.43,1.73l-1.54,1.89v.08c0,.06-.08.42-1.64,1.77l-1.75,1.65h-1.97c-1.85,0-2.24-.25-2.34-.39-.35-.34-.83-.52-1.42-.52-.53,0-.73-.05-.8-.07-.02-.22-.17-.38-.4-.44-.11-.02-.24-.03-.37-.01v.24c.12-.03.23-.02.32,0,.15.04.23.13.23.28s.34.23,1.02.23c.53,0,.95.15,1.26.46.23.3,1.06.45,2.5.45h2.06l1.82-1.71c1.14-.99,1.71-1.63,1.71-1.94l1.49-1.82c.98-1.14,1.48-1.75,1.48-1.83,0-.22.3-.64.91-1.25,1.37-1.37,1.64-2.28.8-2.74-.23-.07-1.22.23-2.97.91-.22.16-1.18.23-2.85.23-1.52,0-2.28-.07-2.28-.23,0-.22-.3-.34-.91-.34-1.37,0-2.24-.34-2.62-1.02-.16-.31-.38-.46-.69-.46s-.45-.07-.45-.23c0-.23-.12-.34-.35-.34-.15,0-.6-.32-1.36-.97-.76-.64-1.26-.97-1.49-.97s-.87.65-1.93,1.94c-.77,1.14-1.53,1.98-2.29,2.51-.15.15-.45.42-.91.8-.45.38-.76.64-.91.79l-1.14.92c-.15,0-.69.45-1.6,1.37-1.37,1.52-2.47,2.28-3.3,2.28-.08,0-.16-.04-.23-.12-.16-.15-.04-.36.34-.62.38-.27.8-.56,1.25-.86.46-.3.69-.57.69-.8s-.06-.4-.17-.51c-.12-.11-.27-.15-.46-.11-.19.03-.4.09-.63.17-.22.07-.45.15-.68.22-.23.08-.42.12-.57.12-.69,0-1.03.07-1.03.23,0,.15-.28.32-.85.51-.57.19-.86.32-.86.4,0,.15-.34.38-1.02.68-.69.31-1.45.73-2.29,1.26-.76.61-1.21.91-1.36.91l-.12.11c-.15.08-.28.16-.4.23-.11.08-.21.15-.28.23-.08.08-.17.17-.29.28-.11.12-.23.2-.34.23-.11.04-.25.12-.4.23-.15.11-.26.21-.34.29-1.14.76-2.55,2.14-4.22,4.16-1.67,2.01-2.51,3.29-2.51,3.82,0,.15-.07.23-.23.23-.15,0-.36.24-.62.74-.27.49-.4.89-.4,1.2,0,.22-.14.55-.4.96-.27.42-.4.78-.4,1.09,0,.45-.15.91-.46,1.37-.38.38-.57,3.04-.57,7.98s.15,7.79.46,8.1c.38.38.57.83.57,1.36,0,.39.13.8.4,1.26.26.45.4.87.4,1.25,0,.46.51,1.64,1.54,3.54,1.02,1.9,1.72,3.04,2.11,3.42.07,0,.53.61,1.37,1.82,1.29,1.83,2.96,3.46,5.01,4.91,1.07.83,1.67,1.25,1.83,1.25.07,0,.4.19.97.57.57.38.93.57,1.08.57.3,0,.61.16.91.46.15.15.65.34,1.49.57.83.23,1.32.45,1.48.68.23.23.57.35,1.02.35.38,0,.8.15,1.26.45,1.06.53,3.53.8,7.41.8s6.2-.27,6.73-.8c.3-.3.57-.45.8-.45s.77-.44,1.65-1.32c.87-.87,1.46-1.57,1.77-2.11.23-.45.61-.95,1.14-1.48l4.45-4.45c1.59-1.59,2.39-2.66,2.39-3.19,0-.46-.17-.89-.51-1.31-.34-.42-.71-.63-1.09-.63ZM32.53,26.99v9.62h2.37c2.05,0,3.38-.11,3.99-.34.61-.23,1.26-.84,1.94-1.83.91-1.14,1.44-1.78,1.6-1.94.53-.53.79-.95.79-1.25,0-.23.23-.53.69-.91.91-.84,1.06-1.83.46-2.97-.23-.38-2.32-.57-6.28-.57-2.89,0-4.74.06-5.56.19Z"/>
        <path class="cls-1" d="M18.24,11.89l-.1-.03c-.54,0-1.55.4-4.07,3.87-.55.81-.83,1.1-.96,1.19-.19.12-.49.46-1.17,1.98-.68,1.52-.76,1.98-.76,2.2,0,.03-.02.19-.42.78-.33.5-.49,1.08-.49,1.73,0,.49-.15,1.03-.44,1.61-.32.65-.48,2.13-.48,4.55,0,3.22.28,3.91.55,4.17.11.08.37.45.37,2.1,0,.63.37,2.29,1.14,5.08.44,1.64.65,1.86.87,1.88.01.03.04.13.04.34,0,.39.2.7.58.89h.01s.19.25.58.98c.52,1.01.77,1.21,1,1.21.5,0,.57-.83.57-1.71s.14-1.51.41-1.91c.15-.19.5-.64.5-13.38,0-10.63.19-12.62.28-12.83.11-.12.3-.37.57-1.3.23-.79.38-1.03.45-1.1l.29-.28c.12-.12.3-.34.59-.71.39-.5.44-.69.44-.82,0-.15-.06-.35-.35-.49ZM12.39,42.54c-.06-.08-.22-.38-.53-1.54-.75-2.71-1.13-4.38-1.13-4.96,0-1.84-.32-2.29-.53-2.44-.12-.12-.39-.73-.39-3.83,0-2.31.15-3.77.43-4.35.32-.64.49-1.25.49-1.81s.14-1.05.41-1.47c.44-.66.5-.89.5-1.04s.09-.62.72-2.02c.64-1.43.91-1.72,1-1.78.26-.17.6-.59,1.09-1.31,2.12-2.92,3.14-3.62,3.63-3.67.04.03.06.05.06.05-.01.01-.03.13-.36.55-.27.35-.44.56-.55.66l-.28.29c-.12.11-.31.38-.57,1.29-.24.8-.39,1.03-.46,1.1-.15.15-.41.41-.41,13.16,0,10.8-.25,12.84-.41,13.11-.34.49-.5,1.21-.5,2.18,0,.81-.08,1.11-.13,1.21-.08-.08-.26-.31-.58-.92-.52-.99-.68-1.17-.82-1.2-.2-.11-.29-.26-.29-.46,0-.49-.13-.76-.39-.8ZM28.56,36.68l-.06-.05c-.34-.17-.79-.24-1.37-.19-.66.05-.99.17-1.1.41l-.03.1c0,.07-.02.21-.05.42-.04.23-.08.54-.12.93-.03.38-.05.69-.05.9-.15,1.26-.37,2.1-.64,2.52-.73.97-.73,1.06-.73,1.16,0,.04-.05.38-1.68,1.58-1.48,1.11-2.01,1.27-2.2,1.27-.24,0-.74.14-2.46,1.23-1.99,1.27-1.99,1.46-1.99,1.62,0,.38.32,1.04,2.84,2.81,1.87,1.33,3.2,2.05,4.08,2.21.42.07.78.19,1.06.37.33.2.78.35,1.37.43.04,0,.23.03,1.16.49.51.26.91.38,1.2.38.15,0,.27-.03.37-.1.23-.11.58-.29.7-9.21v-4.56c0-4.42-.18-4.6-.3-4.72ZM26.79,54.48c-.93-.47-1.21-.54-1.32-.54-.5-.07-.89-.19-1.17-.36-.33-.21-.74-.35-1.22-.43-.8-.15-2.11-.86-3.9-2.13-2.23-1.58-2.6-2.19-2.63-2.4.07-.09.39-.39,1.77-1.27,1.64-1.05,2.09-1.16,2.21-1.16.28,0,.84-.14,2.48-1.36,1.64-1.21,1.86-1.67,1.85-1.9.01-.04.1-.2.65-.95.33-.49.56-1.38.73-2.75,0-.22,0-.52.05-.89s.08-.67.11-.89c.03-.19.05-.32.06-.41.05-.03.22-.11.7-.15.46-.02.81.01,1.07.12.06.2.17,1.03.17,4.39v4.56c-.1,7.21-.35,8.63-.47,8.82-.05.03-.29.12-1.14-.3ZM28.32,11.8h-.02c-.5-.34-.96-.51-1.38-.51h-1.03v16.31h3.08v-7.64c0-7.64-.44-7.99-.65-8.16ZM28.51,27.14h-2.16v-15.39h.57c.32,0,.7.14,1.11.41.15.16.48,1.25.48,7.8v7.18ZM46.87,50.86c-.37,0-.82.28-1.39.85-.75.6-1.7,1.24-2.82,1.91-.33.17-.67.37-1.08.62l-.2.2c-.74.35-2.35.61-4.77.76l-4.08.08v.46l3.4-.08h.7c2.56-.16,4.19-.43,4.99-.83l.21-.19.03-.04c.35-.22.69-.4,1.03-.57,1.14-.69,2.11-1.35,2.89-1.98.64-.63.96-.73,1.09-.73.31,0,.62.18.91.54.31.38.46.77.46,1.17,0,.26-.3,1-2.32,3.03l-4.46,4.45c-.54.55-.94,1.06-1.17,1.53-.29.51-.88,1.21-1.73,2.06-.58.58-.94.89-1.16,1.06-.23.16-.31.19-.33.19-.3,0-.61.17-.96.52-.34.33-1.75.73-6.57.73-3.82,0-6.28-.26-7.28-.76-.5-.33-.96-.49-1.39-.49-.39,0-.68-.1-.83-.24-.12-.18-.42-.46-1.61-.78-1.09-.3-1.33-.46-1.39-.52-.35-.34-.71-.52-1.07-.52-.03,0-.21-.03-.95-.53-.87-.58-1-.61-1.07-.61h-.01c-.06-.01-.35-.14-1.71-1.21-2.03-1.42-3.69-3.05-4.97-4.85-.97-1.42-1.27-1.79-1.42-1.89-.37-.38-1.05-1.5-2.04-3.33-1.25-2.31-1.51-3.14-1.51-3.43,0-.42-.15-.88-.43-1.37-.25-.41-.37-.8-.37-1.14,0-.59-.22-1.1-.63-1.52-.12-.16-.4-1.24-.4-7.94s.35-7.67.54-7.86c.32-.49.49-1,.49-1.49,0-.26.12-.59.36-.96.3-.46.44-.82.44-1.09s.12-.63.37-1.09c.29-.54.42-.62.42-.62.28,0,.46-.18.46-.46s.32-1.1,2.46-3.67c1.65-1.99,3.05-3.38,4.2-4.15.07-.07.18-.16.32-.27.16-.11.27-.17.33-.19.15-.05.3-.14.46-.31l.26-.26c.07-.06.15-.13.25-.2.11-.07.23-.14.38-.21l.12-.11c.18-.04.51-.23,1.38-.93.83-.52,1.58-.94,2.25-1.24.83-.37,1.09-.59,1.15-.79.06-.04.24-.12.71-.28.65-.22.96-.41,1.01-.66.06-.02.26-.07.8-.07.18,0,.39-.04.64-.13l.69-.23c.22-.07.41-.12.6-.16.15-.03.21,0,.24.05.07.07.11.19.11.35,0,.05-.04.25-.58.61-.46.3-.88.59-1.26.86-.33.23-.49.43-.51.63,0,.09.01.22.13.34.15.15.3.19.4.19.91,0,2.05-.77,3.47-2.35,1.13-1.14,1.4-1.29,1.43-1.3h.08l1.22-.98c.14-.14.44-.4.9-.79.46-.38.77-.65.9-.78.77-.55,1.56-1.41,2.32-2.55,1.36-1.65,1.71-1.84,1.76-1.86.05,0,.31.05,1.34.92,1.11.94,1.36,1.02,1.51,1.02.11,0,.12.01.12.11,0,.17.09.46.68.46.14,0,.33.03.49.34.42.76,1.37,1.14,2.82,1.14.59,0,.68.11.68.11,0,.32.25.46,2.51.46s2.78-.13,2.94-.24c2.3-.9,2.73-.92,2.77-.93.21.12.32.26.35.44.04.29-.13.87-1.2,1.94-.8.79-.96,1.14-.98,1.36-.06.11-.34.48-1.43,1.73l-1.54,1.89v.08c0,.06-.08.42-1.64,1.77l-1.75,1.65h-1.97c-1.85,0-2.24-.25-2.34-.39-.35-.34-.83-.52-1.42-.52-.53,0-.73-.05-.8-.07-.02-.22-.17-.38-.4-.44-.11-.02-.24-.03-.37-.01v.47c.1-.03.19-.03.26-.01.06.01.06.02.06.06,0,.42.64.46,1.25.46.47,0,.83.13,1.07.36.19.26.67.55,2.69.55h2.15l1.88-1.76c1.42-1.23,1.74-1.73,1.79-2.03l1.43-1.76c1.54-1.78,1.54-1.85,1.54-1.98,0-.04.04-.28.84-1.09.98-.98,1.42-1.74,1.33-2.33-.04-.32-.24-.58-.62-.79-.15-.04-.43-.13-3.16.94-.07.05-.46.19-2.73.19-1.46,0-1.92-.07-2.06-.11-.11-.46-.87-.46-1.13-.46-1.27,0-2.09-.3-2.42-.9-.24-.48-.62-.58-.89-.58-.14,0-.22-.02-.22-.01-.01-.35-.23-.56-.56-.56-.04-.01-.26-.09-1.24-.91-1.06-.91-1.42-1.03-1.63-1.03s-.58.16-2.12,2.04c-.75,1.11-1.5,1.94-2.26,2.48-.15.14-.45.41-.9.78-.48.4-.77.66-.9.8l-1.09.87c-.17.04-.51.27-1.68,1.43-1.31,1.46-2.37,2.21-3.13,2.21-.01,0-.03,0-.07-.03,0,0,.02-.09.31-.3.38-.26.8-.54,1.25-.85.54-.36.79-.67.79-.99,0-.29-.08-.52-.24-.67-.12-.12-.32-.24-.66-.18-.2.04-.41.1-.66.18l-.68.23c-.2.06-.37.1-.5.1-.61,0-1.26.03-1.25.42-.01.01-.09.13-.71.33-.85.29-1.01.41-1,.58-.01.01-.11.16-.9.51-.68.31-1.46.74-2.33,1.29-.97.78-1.2.85-1.22.86h-.1l-.15.15c-.15.08-.28.16-.39.23-.13.08-.23.17-.33.26l-.28.28c-.09.09-.17.15-.25.17-.15.06-.3.14-.46.27-.17.12-.29.22-.34.27-1.15.77-2.59,2.19-4.27,4.21-2.29,2.77-2.56,3.59-2.56,3.97-.26,0-.5.25-.83.86-.28.53-.42.96-.42,1.31,0,.1-.05.35-.37.84-.28.45-.43.86-.43,1.21,0,.4-.14.82-.39,1.2-.3.3-.64,1.5-.64,8.15,0,7.74.36,8.09.53,8.26.33.34.5.73.5,1.2,0,.43.15.89.43,1.37.24.42.37.81.37,1.14s.16,1.05,1.56,3.65c1.07,1.97,1.75,3.07,2.16,3.47l.06.07h.02c.1.1.39.47,1.26,1.73,1.3,1.84,3.01,3.51,5.06,4.95,1.65,1.3,1.86,1.3,1.93,1.3.03.01.19.07.88.53.8.54,1.06.61,1.21.61.24,0,.49.13.75.39.12.13.42.31,1.58.63,1.06.29,1.3.51,1.38.63.28.27.68.4,1.19.4.33,0,.71.15,1.16.44,1.1.55,3.56.82,7.51.82,5.4,0,6.52-.49,6.89-.87.25-.25.48-.39.64-.39.22,0,.6-.16,1.82-1.37.89-.9,1.48-1.61,1.8-2.17.22-.44.59-.91,1.1-1.43l4.45-4.44c2.21-2.21,2.46-2.98,2.46-3.36,0-.51-.19-1-.56-1.46-.39-.47-.81-.71-1.27-.71ZM42.99,31.25c0,.14-.09.46-.73,1.09-.1.1-.37.42-1.62,1.97-.65.94-1.27,1.53-1.83,1.74-.58.22-1.89.33-3.91.33h-2.37v.46h2.37c2.1,0,3.43-.12,4.07-.36.66-.25,1.33-.87,2.04-1.89.9-1.13,1.44-1.78,1.58-1.92.58-.58.86-1.05.86-1.42,0-.06.05-.27.61-.74,1-.91,1.17-2.01.5-3.26-.14-.23-.41-.68-6.47-.68-3.29,0-4.83.08-5.56.19v.46c.54-.09,1.95-.19,5.56-.19,5.28,0,5.99.36,6.07.45.56,1.05.43,1.93-.4,2.68-.52.44-.77.78-.77,1.09ZM18.24,11.89l-.1-.03c-.54,0-1.55.4-4.07,3.87-.55.81-.83,1.1-.96,1.19-.19.12-.49.46-1.17,1.98-.68,1.52-.76,1.98-.76,2.2,0,.03-.02.19-.42.78-.33.5-.49,1.08-.49,1.73,0,.49-.15,1.03-.44,1.61-.32.65-.48,2.13-.48,4.55,0,3.22.28,3.91.55,4.17.11.08.37.45.37,2.1,0,.63.37,2.29,1.14,5.08.44,1.64.65,1.86.87,1.88.01.03.04.13.04.34,0,.39.2.7.58.89h.01s.19.25.58.98c.52,1.01.77,1.21,1,1.21.5,0,.57-.83.57-1.71s.14-1.51.41-1.91c.15-.19.5-.64.5-13.38,0-10.63.19-12.62.28-12.83.11-.12.3-.37.57-1.3.23-.79.38-1.03.45-1.1l.29-.28c.12-.12.3-.34.59-.71.39-.5.44-.69.44-.82,0-.15-.06-.35-.35-.49ZM12.39,42.54c-.06-.08-.22-.38-.53-1.54-.75-2.71-1.13-4.38-1.13-4.96,0-1.84-.32-2.29-.53-2.44-.12-.12-.39-.73-.39-3.83,0-2.31.15-3.77.43-4.35.32-.64.49-1.25.49-1.81s.14-1.05.41-1.47c.44-.66.5-.89.5-1.04s.09-.62.72-2.02c.64-1.43.91-1.72,1-1.78.26-.17.6-.59,1.09-1.31,2.12-2.92,3.14-3.62,3.63-3.67.04.03.06.05.06.05-.01.01-.03.13-.36.55-.27.35-.44.56-.55.66l-.28.29c-.12.11-.31.38-.57,1.29-.24.8-.39,1.03-.46,1.1-.15.15-.41.41-.41,13.16,0,10.8-.25,12.84-.41,13.11-.34.49-.5,1.21-.5,2.18,0,.81-.08,1.11-.13,1.21-.08-.08-.26-.31-.58-.92-.52-.99-.68-1.17-.82-1.2-.2-.11-.29-.26-.29-.46,0-.49-.13-.76-.39-.8ZM28.56,36.68l-.06-.05c-.34-.17-.79-.24-1.37-.19-.66.05-.99.17-1.1.41l-.03.1c0,.07-.02.21-.05.42-.04.23-.08.54-.12.93-.03.38-.05.69-.05.9-.15,1.26-.37,2.1-.64,2.52-.73.97-.73,1.06-.73,1.16,0,.04-.05.38-1.68,1.58-1.48,1.11-2.01,1.27-2.2,1.27-.24,0-.74.14-2.46,1.23-1.99,1.27-1.99,1.46-1.99,1.62,0,.38.32,1.04,2.84,2.81,1.87,1.33,3.2,2.05,4.08,2.21.42.07.78.19,1.06.37.33.2.78.35,1.37.43.04,0,.23.03,1.16.49.51.26.91.38,1.2.38.15,0,.27-.03.37-.1.23-.11.58-.29.7-9.21v-4.56c0-4.42-.18-4.6-.3-4.72ZM26.79,54.48c-.93-.47-1.21-.54-1.32-.54-.5-.07-.89-.19-1.17-.36-.33-.21-.74-.35-1.22-.43-.8-.15-2.11-.86-3.9-2.13-2.23-1.58-2.6-2.19-2.63-2.4.07-.09.39-.39,1.77-1.27,1.64-1.05,2.09-1.16,2.21-1.16.28,0,.84-.14,2.48-1.36,1.64-1.21,1.86-1.67,1.85-1.9.01-.04.1-.2.65-.95.33-.49.56-1.38.73-2.75,0-.22,0-.52.05-.89s.08-.67.11-.89c.03-.19.05-.32.06-.41.05-.03.22-.11.7-.15.46-.02.81.01,1.07.12.06.2.17,1.03.17,4.39v4.56c-.1,7.21-.35,8.63-.47,8.82-.05.03-.29.12-1.14-.3ZM28.32,11.8h-.02c-.5-.34-.96-.51-1.38-.51h-1.03v16.31h3.08v-7.64c0-7.64-.44-7.99-.65-8.16ZM28.51,27.14h-2.16v-15.39h.57c.32,0,.7.14,1.11.41.15.16.48,1.25.48,7.8v7.18ZM28.56,36.68l-.06-.05c-.34-.17-.79-.24-1.37-.19-.66.05-.99.17-1.1.41l-.03.1c0,.07-.02.21-.05.42-.04.23-.08.54-.12.93-.03.38-.05.69-.05.9-.15,1.26-.37,2.1-.64,2.52-.73.97-.73,1.06-.73,1.16,0,.04-.05.38-1.68,1.58-1.48,1.11-2.01,1.27-2.2,1.27-.24,0-.74.14-2.46,1.23-1.99,1.27-1.99,1.46-1.99,1.62,0,.38.32,1.04,2.84,2.81,1.87,1.33,3.2,2.05,4.08,2.21.42.07.78.19,1.06.37.33.2.78.35,1.37.43.04,0,.23.03,1.16.49.51.26.91.38,1.2.38.15,0,.27-.03.37-.1.23-.11.58-.29.7-9.21v-4.56c0-4.42-.18-4.6-.3-4.72ZM26.79,54.48c-.93-.47-1.21-.54-1.32-.54-.5-.07-.89-.19-1.17-.36-.33-.21-.74-.35-1.22-.43-.8-.15-2.11-.86-3.9-2.13-2.23-1.58-2.6-2.19-2.63-2.4.07-.09.39-.39,1.77-1.27,1.64-1.05,2.09-1.16,2.21-1.16.28,0,.84-.14,2.48-1.36,1.64-1.21,1.86-1.67,1.85-1.9.01-.04.1-.2.65-.95.33-.49.56-1.38.73-2.75,0-.22,0-.52.05-.89s.08-.67.11-.89c.03-.19.05-.32.06-.41.05-.03.22-.11.7-.15.46-.02.81.01,1.07.12.06.2.17,1.03.17,4.39v4.56c-.1,7.21-.35,8.63-.47,8.82-.05.03-.29.12-1.14-.3ZM18.24,11.89l-.1-.03c-.54,0-1.55.4-4.07,3.87-.55.81-.83,1.1-.96,1.19-.19.12-.49.46-1.17,1.98-.68,1.52-.76,1.98-.76,2.2,0,.03-.02.19-.42.78-.33.5-.49,1.08-.49,1.73,0,.49-.15,1.03-.44,1.61-.32.65-.48,2.13-.48,4.55,0,3.22.28,3.91.55,4.17.11.08.37.45.37,2.1,0,.63.37,2.29,1.14,5.08.44,1.64.65,1.86.87,1.88.01.03.04.13.04.34,0,.39.2.7.58.89h.01s.19.25.58.98c.52,1.01.77,1.21,1,1.21.5,0,.57-.83.57-1.71s.14-1.51.41-1.91c.15-.19.5-.64.5-13.38,0-10.63.19-12.62.28-12.83.11-.12.3-.37.57-1.3.23-.79.38-1.03.45-1.1l.29-.28c.12-.12.3-.34.59-.71.39-.5.44-.69.44-.82,0-.15-.06-.35-.35-.49ZM12.39,42.54c-.06-.08-.22-.38-.53-1.54-.75-2.71-1.13-4.38-1.13-4.96,0-1.84-.32-2.29-.53-2.44-.12-.12-.39-.73-.39-3.83,0-2.31.15-3.77.43-4.35.32-.64.49-1.25.49-1.81s.14-1.05.41-1.47c.44-.66.5-.89.5-1.04s.09-.62.72-2.02c.64-1.43.91-1.72,1-1.78.26-.17.6-.59,1.09-1.31,2.12-2.92,3.14-3.62,3.63-3.67.04.03.06.05.06.05-.01.01-.03.13-.36.55-.27.35-.44.56-.55.66l-.28.29c-.12.11-.31.38-.57,1.29-.24.8-.39,1.03-.46,1.1-.15.15-.41.41-.41,13.16,0,10.8-.25,12.84-.41,13.11-.34.49-.5,1.21-.5,2.18,0,.81-.08,1.11-.13,1.21-.08-.08-.26-.31-.58-.92-.52-.99-.68-1.17-.82-1.2-.2-.11-.29-.26-.29-.46,0-.49-.13-.76-.39-.8ZM28.32,11.8h-.02c-.5-.34-.96-.51-1.38-.51h-1.03v16.31h3.08v-7.64c0-7.64-.44-7.99-.65-8.16ZM28.51,27.14h-2.16v-15.39h.57c.32,0,.7.14,1.11.41.15.16.48,1.25.48,7.8v7.18Z"/>
        <path class="cls-1" d="M46.87,51.32c-.13,0-.45.1-1.09.73-.78.63-1.75,1.29-2.89,1.98-.34.17-.68.35-1.03.57l-.03.04-.21.19c-.8.4-2.43.67-4.99.83h-.7l-3.4.08V13.28c.13-.02.26-.01.37.01.23.06.38.22.4.44.07.02.27.07.8.07.59,0,1.07.18,1.42.52.1.14.49.39,2.34.39h1.97l1.75-1.65c1.56-1.35,1.64-1.71,1.64-1.77v-.08l1.54-1.89c1.09-1.25,1.37-1.62,1.43-1.73.02-.22.18-.57.98-1.36,1.07-1.07,1.24-1.65,1.2-1.94-.03-.18-.14-.32-.35-.44-.04,0-.47.03-2.77.93-.16.11-.66.24-2.94.24s-2.51-.14-2.51-.46c0,0-.09-.11-.68-.11-1.45,0-2.4-.38-2.82-1.14-.16-.31-.35-.34-.49-.34-.59,0-.68-.29-.68-.46,0-.1-.01-.11-.12-.11-.15,0-.4-.08-1.51-1.02-1.03-.87-1.29-.92-1.34-.92-.05.02-.4.21-1.76,1.86-.76,1.14-1.55,2-2.32,2.55-.13.13-.44.4-.9.78-.46.39-.76.65-.9.79l-1.22.98h-.08s-.3.16-1.43,1.3c-1.42,1.58-2.56,2.35-3.47,2.35-.1,0-.25-.04-.4-.19-.12-.12-.13-.25-.13-.34.02-.2.18-.4.51-.63.38-.27.8-.56,1.26-.86.54-.36.58-.56.58-.61,0-.16-.04-.28-.11-.35-.03-.04-.09-.08-.24-.05-.19.04-.38.09-.6.16l-.69.23c-.25.09-.46.13-.64.13-.54,0-.74.05-.8.07-.05.25-.36.44-1.01.66-.47.16-.65.24-.71.28-.06.2-.32.42-1.15.79-.67.3-1.42.72-2.25,1.24-.87.7-1.2.89-1.38.93l-.12.11c-.15.07-.27.14-.38.21-.1.07-.18.14-.25.2l-.26.26c-.16.17-.31.26-.46.31-.06.02-.17.08-.33.19-.14.11-.25.2-.32.27-1.15.77-2.55,2.16-4.2,4.15-2.14,2.57-2.46,3.4-2.46,3.67s-.18.46-.46.46c0,0-.13.08-.42.62-.25.46-.37.82-.37,1.09s-.14.63-.44,1.09c-.24.37-.36.7-.36.96,0,.49-.17,1-.49,1.49-.19.19-.54,1.26-.54,7.86s.28,7.78.4,7.94c.41.42.63.93.63,1.52,0,.34.12.73.37,1.14.28.49.43.95.43,1.37,0,.29.26,1.12,1.51,3.43.99,1.83,1.67,2.95,2.04,3.33.15.1.45.47,1.42,1.89,1.28,1.8,2.94,3.43,4.97,4.85,1.36,1.07,1.65,1.2,1.71,1.21h.01c.07,0,.2.03,1.07.61.74.5.92.53.95.53.36,0,.72.18,1.07.52.06.06.3.22,1.39.52,1.19.32,1.49.6,1.61.78.15.14.44.24.83.24.43,0,.89.16,1.39.49,1,.5,3.46.76,7.28.76,4.82,0,6.23-.4,6.57-.73.35-.35.66-.52.96-.52.02,0,.1-.03.33-.19.22-.17.58-.48,1.16-1.06.85-.85,1.44-1.55,1.73-2.06.23-.47.63-.98,1.17-1.53l4.46-4.45c2.02-2.03,2.32-2.77,2.32-3.03,0-.4-.15-.79-.46-1.17-.29-.36-.6-.54-.91-.54ZM15.47,42.8c-.27.4-.41,1.04-.41,1.91s-.07,1.71-.57,1.71c-.23,0-.48-.2-1-1.21-.39-.73-.53-.93-.58-.98h-.01c-.38-.19-.58-.5-.58-.89,0-.21-.03-.31-.04-.34-.22-.02-.43-.24-.87-1.88-.77-2.79-1.14-4.45-1.14-5.08,0-1.65-.26-2.02-.37-2.1-.27-.26-.55-.95-.55-4.17,0-2.42.16-3.9.48-4.55.29-.58.44-1.12.44-1.61,0-.65.16-1.23.49-1.73.4-.59.42-.75.42-.78,0-.22.08-.68.76-2.2.68-1.52.98-1.86,1.17-1.98.13-.09.41-.38.96-1.19,2.52-3.47,3.53-3.87,4.07-3.87l.1.03c.29.14.35.34.35.49,0,.13-.05.32-.44.82-.29.37-.47.59-.59.71l-.29.28c-.07.07-.22.31-.45,1.1-.27.93-.46,1.18-.57,1.3-.09.21-.28,2.2-.28,12.83,0,12.74-.35,13.19-.5,13.38ZM28.86,45.96c-.12,8.92-.47,9.1-.7,9.21-.1.07-.22.1-.37.1-.29,0-.69-.12-1.2-.38-.93-.46-1.12-.49-1.16-.49-.59-.08-1.04-.23-1.37-.43-.28-.18-.64-.3-1.06-.37-.88-.16-2.21-.88-4.08-2.21-2.52-1.77-2.84-2.43-2.84-2.81,0-.16,0-.35,1.99-1.62,1.72-1.09,2.22-1.23,2.46-1.23.19,0,.72-.16,2.2-1.27,1.63-1.2,1.68-1.54,1.68-1.58,0-.1,0-.19.73-1.16.27-.42.49-1.26.64-2.52,0-.21.02-.52.05-.9.04-.39.08-.7.12-.93.03-.21.05-.35.05-.42l.03-.1c.11-.24.44-.36,1.1-.41.58-.05,1.03.02,1.37.19l.06.05c.12.12.3.3.3,4.72v4.56ZM28.97,27.6h-3.08V11.29h1.03c.42,0,.88.17,1.38.5h.02c.21.18.65.53.65,8.17v7.64Z"/>
      </g>
      <g>
        <path class="cls-1" d="M61.47,15.97c.53-.61.91-.91,1.14-.91.15,0,.29.08.4.23.11.15.27.38.46.68.19.31.36.53.51.68.15.15.34.36.57.63.23.27.49.59.8.97.3.38.57.68.8.91,1.06,1.22,3.5,3.73,7.3,7.53l5.7,5.7.11,11.75c0,8.06-.04,12.2-.11,12.43-.15.46-.42.72-.8.8-.38.15-1.2.55-2.45,1.2-1.25.65-2.04,1.12-2.34,1.43-.08.08-.23.17-.46.28-.23.11-.46.25-.68.4-.23.15-.34.27-.34.34,0,.15-.11.23-.34.23-.15,0-.61.3-1.37.91-1.6,1.45-3,2.58-4.22,3.42-.23.15-.55.15-.97,0-.42-.15-.63-.34-.63-.57,0-.15-.11-.23-.34-.23-.31,0-.87-.34-1.71-1.03-.99-.76-3.31-2.13-6.95-4.11-1.82-.91-2.32-1.67-1.48-2.28.3-.23.49-3.91.57-11.06l.11-10.61,1.03-1.03c.61-.61,1.14-.99,1.6-1.14l.57-.34c0-.23.08-.34.23-.34.61,0,1.52-.61,2.74-1.82.3-.3.53-.46.68-.46s.57-.49,1.25-1.48l-3.31-3.31c-2.21-2.2-3.31-3.46-3.31-3.76s.72-1.18,2.17-2.62c1.14-1.14,2.17-2.28,3.08-3.42ZM63.75,53.83c.91.91,1.4,1.37,1.48,1.37.15,0,1.03.53,2.62,1.6,1.14.84,2.01,1.25,2.62,1.25.3,0,.46-3.42.46-10.26,0-5.09-.04-8.15-.11-9.18-.08-1.03-.27-1.81-.57-2.34-.38-.76-.72-1.29-1.03-1.6-.08-.07-.25-.28-.51-.63-.27-.34-.48-.59-.63-.74-.3-.3-.89-.82-1.77-1.54-.87-.72-1.42-1.2-1.65-1.43s-.38-.34-.46-.34c-.31,0-.46,4.18-.46,12.54v11.29Z"/>
        <path class="cls-1" d="M65.73,65.92c-.19,0-.4-.04-.64-.13-.51-.19-.77-.45-.78-.78h0s-.05,0-.11,0c-.23,0-.68-.11-1.86-1.08-.97-.74-3.3-2.12-6.92-4.08-1.31-.66-1.95-1.23-2-1.8-.03-.32.14-.62.49-.87.12-.2.38-1.92.48-10.88l.11-10.7,1.09-1.09c.63-.63,1.19-1.03,1.68-1.2l.42-.26c.05-.4.35-.44.45-.44.37,0,1.12-.31,2.58-1.76.36-.36.62-.52.85-.52,0,0,.2-.15.96-1.23l-3.17-3.17c-3.37-3.37-3.37-3.73-3.37-3.93,0-.27.27-.82,2.23-2.79,1.13-1.13,2.16-2.27,3.06-3.4h0c.77-.89,1.1-1,1.31-1,.16,0,.38.06.58.32.12.16.27.39.47.7.18.29.34.51.48.64.16.16.35.37.58.64.23.27.5.59.8.98.29.36.55.66.78.89,1.07,1.22,3.52,3.75,7.3,7.53l5.77,5.77v.09s.11,11.75.11,11.75c0,12.12-.09,12.39-.12,12.5-.18.54-.51.86-.97.95-.32.13-1.12.52-2.39,1.18-1.23.63-2,1.1-2.28,1.38-.1.1-.27.2-.52.33-.21.11-.44.24-.66.39-.21.14-.25.2-.25.21.01.05-.03.4-.56.4-.02,0-.25.08-1.23.86-1.58,1.43-3.01,2.59-4.23,3.43-.15.1-.34.16-.54.16ZM54.97,35.79l-.11,10.51c-.12,10.83-.46,11.09-.66,11.24-.32.23-.31.41-.3.46.02.22.27.69,1.75,1.43,3.65,1.98,6,3.37,6.99,4.13,1.08.88,1.46.98,1.57.98.53,0,.57.35.57.46,0,.12.17.24.48.35.34.13.6.13.76.03,1.2-.83,2.61-1.97,4.19-3.4,1.12-.9,1.37-.97,1.52-.97.1,0,.13-.02.13-.02-.02-.15.11-.3.43-.51.24-.16.48-.3.71-.41.27-.13.36-.21.4-.24.32-.32,1.1-.8,2.39-1.47,1.3-.67,2.09-1.05,2.47-1.21.34-.07.54-.28.67-.66.03-.18.1-2.03.1-12.36l-.11-11.65-5.64-5.64c-3.78-3.78-6.24-6.32-7.31-7.54-.23-.23-.51-.55-.8-.92-.3-.38-.57-.7-.79-.96-.22-.26-.41-.47-.56-.62-.17-.16-.34-.4-.55-.72-.19-.29-.33-.52-.44-.67-.1-.13-.19-.13-.22-.13-.03,0-.26.02-.96.83-.91,1.14-1.96,2.3-3.09,3.44-1.92,1.92-2.09,2.37-2.1,2.46.03.13.4.76,3.24,3.6l3.44,3.44-.11.16c-1.01,1.46-1.25,1.58-1.44,1.58,0,0-.14,0-.52.39-1.27,1.27-2.21,1.89-2.89,1.89,0,.01,0,.05,0,.11v.13l-.68.41c-.47.16-.97.53-1.55,1.1l-.96.96ZM70.48,58.28c-.67,0-1.57-.42-2.76-1.3-2.01-1.34-2.43-1.53-2.51-1.55,0,0,0,0-.01,0-.1,0-.23-.05-1.61-1.43l-.07-.07v-11.38c0-12.77.32-12.77.69-12.77.13,0,.28.07.62.41.16.16.57.53,1.63,1.41.9.75,1.49,1.26,1.79,1.56.16.16.37.41.65.76.35.45.46.57.49.61.32.32.67.87,1.07,1.66.31.55.51,1.37.59,2.42.08,1.04.11,4.14.11,9.2,0,10.49-.33,10.49-.69,10.49ZM65.29,54.97c.15.03.58.22,2.69,1.63,1.03.76,1.83,1.16,2.39,1.21.14-.41.33-2.34.33-10.03,0-5.05-.04-8.13-.11-9.16-.07-.99-.26-1.74-.54-2.24-.38-.75-.71-1.26-.99-1.55-.08-.08-.26-.3-.53-.65-.26-.33-.47-.58-.61-.72-.29-.29-.86-.79-1.75-1.53-.86-.71-1.42-1.2-1.67-1.44-.08-.08-.15-.14-.2-.19-.14.64-.32,3.19-.32,12.23v11.19c.95.95,1.23,1.18,1.31,1.24Z"/>
      </g>
      <g>
        <path class="cls-1" d="M89.64,28.28c.84-.68,1.29-1.03,1.37-1.03.38,0,.84.23,1.37.68,3.73,2.51,5.59,4.3,5.59,5.36,0,.15-.08.3-.23.46-.23.23-.34,4.11-.34,11.63s.11,11.4.34,11.63.65.34,1.26.34c1.06,0,1.6.38,1.6,1.14,0,.53-1.01,1.81-3.02,3.82s-3.29,3.02-3.82,3.02c-.84,0-2.85-1.44-6.04-4.33-.45-.46-.84-.68-1.14-.68-.46-.07-.34-.64.34-1.71.68-.99,1.08-2.05,1.2-3.19.11-1.14.17-4.37.17-9.69,0-6.77-.19-10.34-.57-10.72-.38-.38-.91-.53-1.6-.46-.23.08-.5.11-.8.11-.68,0-1.03-.19-1.03-.57,0-.68.72-1.63,2.17-2.85.3-.3.85-.82,1.65-1.54.8-.72,1.31-1.2,1.54-1.43ZM92.15,15.63c0-.53.34-.95,1.03-1.25.68-.3,1.21-.23,1.6.23,1.29,1.45,2.43,2.17,3.42,2.17.61,0,.91.38.91,1.14,0,.91-.3,1.67-.91,2.28-2.51,3.12-4.07,4.68-4.68,4.68-.46,0-1.14-.32-2.05-.97-.91-.64-1.52-1.04-1.82-1.2-.53-.23-1.07-.64-1.6-1.25-.53-.61-.8-1.06-.8-1.37s.17-.59.51-.85c.34-.26.66-.4.97-.4s.95-.46,1.94-1.37,1.48-1.52,1.48-1.82Z"/>
        <path class="cls-1" d="M93.74,65.58c-.58,0-1.85-.46-6.2-4.39-.54-.55-.85-.63-.98-.63-.29-.04-.4-.19-.45-.3-.15-.34.04-.88.6-1.76.66-.96,1.05-1.99,1.16-3.09.11-1.13.17-4.39.17-9.67,0-8.99-.35-10.38-.5-10.56-.33-.33-.78-.45-1.41-.39-.2.07-.49.12-.82.12-1.04,0-1.26-.43-1.26-.8,0-.76.73-1.75,2.25-3.03.3-.3.85-.82,1.65-1.53.81-.73,1.31-1.2,1.53-1.42l.02-.02c1.32-1.08,1.4-1.08,1.51-1.08.44,0,.94.24,1.52.74,3.81,2.56,5.67,4.38,5.67,5.53,0,.22-.1.42-.3.62-.09.2-.27,2-.27,11.47s.19,11.27.3,11.5c.16.15.54.24,1.07.24,1.51,0,1.83.74,1.83,1.37,0,.38-.32,1.21-3.09,3.98-2.77,2.77-3.6,3.09-3.98,3.09ZM86.6,60.1c.33,0,.76.25,1.26.75,3.89,3.52,5.35,4.27,5.88,4.27.26,0,1.09-.38,3.66-2.95,2.57-2.57,2.96-3.4,2.96-3.66,0-.39-.14-.91-1.37-.91-.68,0-1.14-.13-1.42-.41-.15-.15-.41-.41-.41-11.79s.26-11.64.41-11.79c.11-.11.16-.2.16-.29,0-.67-.95-2.12-5.49-5.17-.49-.42-.89-.63-1.2-.64-.08.04-.34.22-1.25.97-.23.23-.73.7-1.54,1.43-.79.71-1.34,1.23-1.65,1.53-1.74,1.46-2.1,2.27-2.1,2.69,0,.08,0,.34.8.34.28,0,.53-.03.73-.1.8-.1,1.4.08,1.83.51.19.19.64.64.64,10.88,0,5.3-.06,8.57-.17,9.72-.12,1.18-.54,2.29-1.24,3.3-.65,1.01-.58,1.28-.56,1.32,0,0,.01.02.07.03h0ZM93.51,25.09c-.51,0-1.23-.33-2.18-1.01-1.11-.78-1.59-1.08-1.8-1.18-.55-.23-1.12-.68-1.67-1.31-.58-.66-.85-1.15-.85-1.52s.2-.72.6-1.04c.39-.3.75-.45,1.11-.45.09,0,.47-.09,1.78-1.31,1.31-1.21,1.41-1.57,1.41-1.66,0-.63.39-1.12,1.16-1.46.98-.44,1.55-.08,1.87.29,1.23,1.38,2.33,2.08,3.24,2.08.43,0,1.14.18,1.14,1.37,0,.97-.33,1.79-.98,2.44-3.38,4.2-4.36,4.74-4.84,4.74ZM93.92,14.42c-.18,0-.39.05-.65.16-.6.27-.89.61-.89,1.04,0,.27-.19.73-1.56,1.99-1.37,1.27-1.84,1.43-2.09,1.43s-.53.12-.83.35c-.28.22-.42.44-.42.67,0,.14.1.48.74,1.22.5.58,1.01.98,1.51,1.2.33.17.96.58,1.87,1.22,1.08.77,1.64.93,1.92.93.24,0,1.17-.45,4.5-4.59.59-.59.86-1.28.86-2.14,0-.81-.36-.91-.68-.91-1.07,0-2.24-.73-3.59-2.24-.13-.16-.33-.33-.68-.33Z"/>
      </g>
      <g>
        <path class="cls-1" d="M118.72,19.05c.53-.61,1.06-.91,1.6-.91.61,0,.91.15.91.46,0,.53-.42,1.25-1.26,2.17-1.22,1.45-1.82,2.59-1.82,3.42,0,.3.07.53.23.68.3.38.38,1.1.23,2.17v1.71h4.22c1.21,0,2.09-.11,2.62-.34.76-.3,1.21-.46,1.37-.46.23,0,.34.15.34.46,0,.68-.42,1.56-1.25,2.62-.08.08-.25.3-.51.68-.27.38-.46.63-.57.74-.11.11-.31.34-.57.68-.27.34-.48.57-.63.68-.15.11-.38.29-.68.51-.31.23-.57.4-.8.51s-.51.21-.86.28c-.34.08-.67.11-.97.11-1.29,0-1.94.76-1.94,2.28v5.93c0,7.22.19,11.48.57,12.77.61,1.75,1.86,2.62,3.76,2.62.76,0,1.24.04,1.43.11.19.08.28.31.28.68,0,.68-1.1,2.09-3.31,4.22-1.9,1.75-3.23,2.62-3.99,2.62s-1.58-.25-2.45-.74c-.87-.49-1.88-1.16-3.02-2-1.14-.84-1.94-1.41-2.4-1.71-1.29-.68-1.94-1.33-1.94-1.94,0-.3.27-.72.8-1.25.53-.53.87-.95,1.03-1.25.23-.46.34-4.26.34-11.4s-.23-10.64-.68-10.95c-.46-.3-.99-.38-1.6-.23-.68.08-1.14-.04-1.37-.34-.23-.3-.19-.76.11-1.37.23-.46,1.48-1.9,3.76-4.33,5.09-5.4,8.1-8.7,9.01-9.92Z"/>
        <path class="cls-1" d="M117.12,66.72c-.8,0-1.66-.26-2.56-.77-.88-.49-1.9-1.17-3.04-2.01-1.13-.83-1.93-1.4-2.39-1.7-1.37-.72-2.04-1.42-2.04-2.13,0-.37.28-.83.87-1.42.51-.51.84-.91.98-1.19.12-.24.32-2.02.32-11.3s-.41-10.59-.59-10.76c-.4-.26-.86-.33-1.41-.19-.8.1-1.33-.05-1.61-.43s-.25-.92.09-1.61c.15-.3.71-1.09,3.8-4.39,5.07-5.37,8.09-8.7,8.99-9.9h.01c.57-.67,1.17-1,1.77-1,.94,0,1.14.37,1.14.69,0,.6-.43,1.36-1.32,2.32-1.17,1.39-1.76,2.49-1.76,3.27,0,.24.05.42.16.52.37.46.46,1.23.29,2.36v1.45h3.99c1.18,0,2.03-.11,2.53-.32,1.04-.42,1.32-.48,1.46-.48s.57.05.57.69c0,.74-.43,1.65-1.3,2.76-.06.07-.19.21-.51.67-.28.39-.47.65-.59.77-.11.11-.29.33-.55.66-.28.36-.5.6-.67.73l-.68.51c-.33.24-.6.42-.83.54-.25.12-.56.23-.91.3-.35.08-.69.12-1.02.12-1.17,0-1.71.65-1.71,2.05v5.93c0,7.17.19,11.45.56,12.71.57,1.65,1.73,2.46,3.54,2.46,1.06,0,1.37.07,1.51.13.29.12.43.42.43.9s-.35,1.46-3.38,4.38c-1.97,1.81-3.32,2.69-4.15,2.69ZM107.78,34.71c.41,0,.8.11,1.14.34.26.17.78.53.78,11.14,0,9.66-.21,11.19-.37,11.51-.16.33-.51.76-1.07,1.31-.64.64-.73.96-.73,1.09,0,.51.63,1.11,1.82,1.74.48.32,1.29.9,2.42,1.73,1.13.83,2.14,1.5,3,1.98.83.47,1.62.71,2.34.71.48,0,1.54-.44,3.83-2.56,2.67-2.58,3.23-3.63,3.23-4.05,0-.26-.05-.43-.14-.47-.07-.03-.35-.1-1.34-.1-2,0-3.34-.93-3.98-2.78-.39-1.33-.58-5.53-.58-12.85v-5.93c0-2.08,1.18-2.51,2.17-2.51.29,0,.6-.04.92-.11.32-.07.59-.16.8-.27.21-.11.46-.27.76-.49l.68-.51c.13-.1.33-.32.58-.64.27-.35.47-.58.59-.71.07-.07.22-.25.54-.71.37-.52.48-.66.54-.72.78-1,1.19-1.83,1.19-2.46,0-.23-.06-.23-.11-.23-.04,0-.26.03-1.28.44-.56.24-1.45.36-2.71.36h-4.45v-1.94c.18-1.27,0-1.8-.18-2.02-.18-.17-.28-.46-.28-.83,0-.9.61-2.07,1.88-3.57,1-1.08,1.2-1.69,1.2-2.02,0-.2-.48-.23-.68-.23-.46,0-.94.28-1.42.83-.92,1.22-3.95,4.57-9.02,9.93-2.26,2.41-3.51,3.85-3.73,4.28-.26.52-.31.9-.13,1.13.17.23.56.32,1.16.25.21-.05.41-.08.61-.08Z"/>
      </g>
      <g>
        <path class="cls-1" d="M146.08,26.23c.08-.23.4-.3.97-.23.57.08.93.27,1.08.57.23.38.49.57.8.57s.46.08.46.23c0,.23.07.34.23.34.38,0,1.98.95,4.79,2.85,1.06.76,1.98,1.25,2.74,1.48.99.23,1.48.65,1.48,1.25,0,.38-.19.87-.57,1.48-.38.61-.57,4.37-.57,11.29s-.08,10.3-.23,10.61c-.15.15-.34.23-.57.23s-.34.11-.34.34c0,.15-.19.23-.57.23s-1.07.27-2.05.8c-.99.53-1.75,1.03-2.28,1.48-.76.61-1.18.91-1.25.91l-.68.46c-.08.15-.53.53-1.37,1.14-.15.15-.53.49-1.14,1.03-.61.53-1.03.91-1.25,1.14-1.37,1.29-2.24,1.64-2.62,1.03-.53-.84-2.4-2.05-5.59-3.65l-3.19-1.6c-1.52-.76-2.28-1.44-2.28-2.05,0-.23.11-.57.34-1.03.3-.61.46-4.41.46-11.4v-10.26l1.03-1.03c.61-.61,1.29-1.1,2.05-1.48s3.12-1.9,7.07-4.56c.38-.3.85-.65,1.43-1.03.57-.38,1.01-.64,1.31-.8l.34-.34ZM143.8,34.44c-1.22-.84-1.86-1.06-1.94-.68,0,.15.04.42.11.8.08.38.11,3.84.11,10.38v9.35l2.28,1.25c.53.3,1.01.61,1.43.91.42.3.74.51.97.63s.55.25.97.4c.42.15.97.27,1.65.34l-.11-9.81c-.15-6.61-.27-10-.34-10.15-.15-.3-.57-.66-1.26-1.08-.68-.42-1.44-.87-2.28-1.37-.84-.49-1.37-.82-1.6-.97Z"/>
        <path class="cls-1" d="M143.64,65.98s-.08,0-.12,0c-.25-.03-.45-.17-.59-.39-.51-.79-2.36-2-5.49-3.56l-3.19-1.6c-1.62-.81-2.41-1.55-2.41-2.26,0-.26.12-.63.37-1.13.2-.4.43-2.68.43-11.3v-10.36l1.09-1.09c.62-.62,1.33-1.14,2.11-1.52.75-.38,3.12-1.91,7.04-4.55.37-.3.86-.65,1.43-1.03.55-.37.99-.63,1.3-.8l.28-.28c.21-.46.95-.36,1.2-.33.65.09,1.07.32,1.26.7.18.29.37.44.59.44.6,0,.69.29.69.46,0,.1.02.13.02.13,0,0,.01,0,.02,0,.3,0,1.17.37,4.88,2.87,1.04.75,1.94,1.23,2.67,1.45,1.09.25,1.65.75,1.65,1.47,0,.43-.2.95-.6,1.6-.25.39-.54,2.64-.54,11.17,0,10.21-.17,10.55-.25,10.71l-.04.06c-.2.2-.44.3-.73.3-.1,0-.11.01-.11.11,0,.3-.27.46-.8.46-.23,0-.76.13-1.94.77-.98.53-1.73,1.02-2.24,1.45-.91.73-1.19.91-1.31.95l-.61.41c-.11.15-.41.44-1.4,1.16-.14.14-.53.5-1.12,1.01-.6.53-1.02.91-1.24,1.13-1,.94-1.72,1.39-2.27,1.39ZM133.09,35.56v10.17c0,9.45-.27,11.09-.48,11.51-.26.53-.32.79-.32.92,0,.35.37.96,2.15,1.85l3.19,1.6c3.26,1.63,5.12,2.85,5.68,3.73.07.11.15.17.26.18.24.02.78-.1,2.01-1.25.23-.23.64-.6,1.26-1.15.57-.5.98-.86,1.13-1.01,1.13-.83,1.3-1.04,1.33-1.08l.08-.09.74-.49h.07s.18-.12,1.11-.86c.54-.46,1.3-.96,2.32-1.51,1.03-.56,1.74-.83,2.16-.83.29,0,.36-.05.36-.05-.02-.3.2-.52.55-.52.15,0,.27-.04.37-.13.08-.3.2-2.12.2-10.48,0-9.36.35-11,.61-11.41.35-.57.53-1.03.53-1.36,0-.18,0-.73-1.3-1.03-.8-.24-1.74-.75-2.82-1.52-3.75-2.53-4.5-2.81-4.66-2.81-.11,0-.45-.04-.46-.56-.01,0-.08-.01-.23-.01-.39,0-.73-.23-1-.68-.12-.24-.43-.39-.92-.46-.53-.07-.7.02-.72.07l-.06.09-.4.39c-.3.15-.73.41-1.29.78-.56.37-1.03.71-1.41,1.01-3.95,2.66-6.34,4.2-7.11,4.59-.73.37-1.41.85-1.99,1.44l-.96.96ZM149.63,58.08l-.26-.03c-.7-.08-1.28-.2-1.71-.35-.42-.15-.75-.29-.99-.41-.24-.12-.58-.34-1-.65-.41-.3-.89-.6-1.4-.9l-2.4-1.32v-9.49c0-8.09-.06-10.08-.11-10.33-.08-.39-.12-.67-.12-.84.04-.2.13-.32.26-.37.25-.1.68-.07,2.04.86h0c.23.15.76.48,1.58.96.84.49,1.6.95,2.28,1.37.73.45,1.16.83,1.34,1.18.05.11.14.28.37,10.25l.12,10.07ZM142.32,54.15l2.16,1.19c.53.31,1.02.62,1.45.93.4.29.72.5.94.61.22.11.54.24.95.39.34.13.79.23,1.34.3l-.11-9.55c-.19-8.38-.29-9.91-.33-10.08-.08-.15-.36-.47-1.16-.96-.68-.42-1.44-.87-2.28-1.37-.83-.49-1.37-.82-1.61-.98h0c-1.14-.78-1.51-.82-1.58-.82,0,.11.03.32.11.7.03.15.12.6.12,10.42v9.22Z"/>
      </g>
      <g>
        <path class="cls-1" d="M175.96,56.91c.76.76,1.44,1.14,2.05,1.14.3,0,1.1.38,2.39,1.14l-.46,1.03c-.3.53-1.22,1.62-2.74,3.25-1.52,1.64-2.51,2.57-2.96,2.79-.23.15-.76,0-1.6-.46-1.22-.68-2.43-1.46-3.65-2.34-1.22-.87-1.94-1.39-2.17-1.54-1.29-.91-1.94-1.67-1.94-2.28,0-.15.46-.99,1.37-2.51.38-.68.57-4.45.57-11.29,0-5.02-.04-8-.11-8.95-.08-.95-.27-1.58-.57-1.88-.46-.46-.84-.68-1.14-.68-.91,0-1.37-.42-1.37-1.25,0-.68.49-1.44,1.48-2.28,1.6-1.37,2.62-2.28,3.08-2.74,1.14-.99,1.82-1.48,2.05-1.48.3,0,1.01.53,2.11,1.6,1.1,1.07,1.65,1.75,1.65,2.05s.32.68.97,1.14,1.05.61,1.2.46c.15-.15,1.23-1.06,3.25-2.74,2.01-1.67,3.1-2.51,3.25-2.51s.66.38,1.54,1.14c.87.76,1.79,1.58,2.74,2.45.95.87,1.46,1.35,1.54,1.43,1.14.76,1.71,1.41,1.71,1.94,0,.46-.46,1.03-1.37,1.71-1.29.99-2.17,1.67-2.62,2.05-.99.91-1.94,1.37-2.85,1.37-.99,0-1.9-.42-2.74-1.25-.23-.23-.61-.64-1.14-1.25-.53-.61-.87-.99-1.03-1.14-.53-.68-.99-.91-1.37-.68-.46.46-.76,1.07-.91,1.82-.15.76-.23,2.55-.23,5.36v15.4Z"/>
        <path class="cls-1" d="M174.03,66.55c-.33,0-.81-.18-1.49-.55-1.22-.69-2.46-1.48-3.68-2.35-1.25-.9-1.94-1.39-2.16-1.53-1.37-.97-2.04-1.78-2.04-2.47,0-.12,0-.29,1.4-2.63.24-.44.54-2.74.54-11.17,0-4.96-.04-7.97-.11-8.93-.09-1.11-.32-1.56-.5-1.74-.51-.51-.81-.62-.98-.62-1.32,0-1.6-.81-1.6-1.48,0-.76.51-1.57,1.56-2.46,1.58-1.36,2.62-2.27,3.06-2.72,1.58-1.36,2-1.55,2.22-1.55.26,0,.74.19,2.27,1.66,1.52,1.47,1.72,1.95,1.72,2.22,0,.1.08.4.87.95.73.51.91.47.92.47.08-.09.53-.48,3.25-2.74,3.09-2.56,3.26-2.56,3.4-2.56.16,0,.42.09,1.69,1.2.85.74,1.77,1.57,2.74,2.46.95.88,1.47,1.36,1.54,1.43,1.19.79,1.78,1.48,1.78,2.1,0,.54-.48,1.16-1.46,1.89-1.27.97-2.15,1.66-2.61,2.05-1.02.94-2.03,1.42-3,1.42-1.05,0-2.02-.44-2.9-1.32-.24-.24-.64-.68-1.15-1.27-.5-.57-.86-.97-1.02-1.13-.46-.59-.82-.81-1.09-.65-.38.39-.66.96-.8,1.67-.15.74-.22,2.53-.22,5.31v15.3c.68.67,1.3,1.01,1.82,1.01.24,0,.74.13,2.51,1.17l.18.1-.54,1.21c-.33.57-1.23,1.65-2.78,3.31-1.56,1.67-2.55,2.6-3.03,2.84-.08.06-.19.09-.32.09ZM170.26,26.8c-.07,0-.41.14-1.9,1.43-.45.45-1.49,1.37-3.08,2.74-.93.79-1.4,1.5-1.4,2.11,0,.71.35,1.02,1.14,1.02.37,0,.8.25,1.3.75.35.35.56,1.01.64,2.03.08.98.11,4,.11,8.97,0,9.25-.34,10.94-.6,11.4-1.16,1.94-1.33,2.34-1.34,2.42,0,.34.32,1,1.84,2.07.22.15.91.64,2.17,1.54,1.2.86,2.42,1.65,3.63,2.32,1.1.6,1.34.48,1.36.47.32-.16,1.06-.76,2.92-2.76,1.5-1.61,2.41-2.69,2.71-3.21l.36-.82c-1.56-.91-1.99-1.01-2.1-1.01-.68,0-1.4-.4-2.22-1.21l-.07-.07v-15.49c0-2.86.08-4.63.23-5.4.16-.8.49-1.45.98-1.94.54-.33,1.1-.08,1.71.71.15.15.5.55,1.02,1.13.5.58.9,1.01,1.13,1.24.78.79,1.65,1.19,2.57,1.19.85,0,1.75-.44,2.69-1.31.48-.4,1.36-1.09,2.64-2.07,1.06-.79,1.28-1.27,1.28-1.53,0-.31-.28-.86-1.61-1.75-.11-.1-.62-.57-1.57-1.45-.96-.88-1.88-1.71-2.73-2.45-.96-.83-1.28-1.03-1.38-1.07-.16.08-.78.51-3.11,2.45-2,1.66-3.09,2.58-3.23,2.72-.33.32-.93-.04-1.49-.43-.73-.51-1.07-.93-1.07-1.33,0-.06-.08-.43-1.58-1.89-1.51-1.46-1.89-1.53-1.95-1.53Z"/>
      </g>
    </g>
  </g>
</svg>