<?xml version="1.0" encoding="UTF-8"?>
<svg id="Layer_2" data-name="Layer 2" xmlns="http://www.w3.org/2000/svg" viewBox="0 0 190.44 67.06">
  <defs>
    <style>
      .cls-1 {
        fill: #231f20;
      }
    </style>
  </defs>
  <g id="Layer_1-2" data-name="Layer 1">
    <g>
      <g>
        <g>
          <path d="M18.23,11.88l-.1-.02c-.54,0-1.55.4-4.07,3.86-.54.82-.82,1.1-.96,1.19-.19.13-.49.47-1.17,1.98-.68,1.52-.76,1.99-.76,2.21,0,.02-.02.18-.42.78-.32.49-.49,1.07-.49,1.73,0,.49-.15,1.03-.43,1.6-.33.65-.48,2.14-.48,4.55,0,3.22.28,3.91.54,4.18.11.08.37.45.37,2.1,0,.63.37,2.29,1.15,5.07.43,1.64.64,1.86.86,1.88.02.04.04.13.04.34,0,.4.2.7.59.89h0c.05.06.19.25.58.99.53,1,.77,1.2,1,1.2.5,0,.57-.82.57-1.71s.14-1.51.41-1.91c.15-.19.51-.63.51-13.37,0-10.63.18-12.63.27-12.84.11-.11.3-.37.57-1.29.23-.8.39-1.03.46-1.1l.28-.29c.12-.11.3-.33.59-.7.39-.51.45-.7.45-.83,0-.14-.06-.34-.36-.49ZM17.96,13.06c-.27.34-.46.57-.57.68-.12.11-.21.21-.29.29-.15.15-.32.55-.51,1.19-.19.65-.36,1.05-.51,1.2-.23.23-.34,4.56-.34,13s-.16,12.85-.46,13.23c-.31.46-.46,1.14-.46,2.05,0,.99-.11,1.48-.34,1.48-.15,0-.42-.36-.8-1.08-.38-.72-.61-1.08-.68-1.08-.31-.15-.46-.38-.46-.69,0-.38-.08-.57-.23-.57s-.38-.57-.68-1.71c-.76-2.73-1.14-4.41-1.14-5.01,0-1.3-.15-2.06-.46-2.29-.3-.3-.45-1.63-.45-3.99s.15-3.83.45-4.44c.31-.61.46-1.18.46-1.71,0-.61.15-1.15.46-1.6.3-.46.45-.76.45-.91,0-.31.25-1.01.74-2.11.5-1.1.86-1.73,1.09-1.89.22-.15.57-.57,1.02-1.25,1.83-2.51,3.12-3.76,3.88-3.76.15.07.23.17.23.28,0,.12-.13.34-.4.69ZM28.56,36.67l-.06-.04c-.35-.17-.8-.24-1.38-.2-.65.05-.98.18-1.1.42l-.02.1c0,.07-.02.21-.06.41-.04.24-.08.55-.11.93-.04.38-.06.7-.06.91-.15,1.25-.37,2.1-.64,2.51-.73.98-.73,1.07-.73,1.17,0,.03-.05.37-1.67,1.58-1.49,1.1-2.02,1.27-2.21,1.27-.24,0-.74.14-2.46,1.23-1.98,1.26-1.98,1.45-1.98,1.62,0,.37.32,1.03,2.83,2.81,1.87,1.33,3.21,2.05,4.09,2.2.42.08.77.2,1.05.37.33.21.78.36,1.38.44.03,0,.23.02,1.15.49.52.25.91.38,1.2.38.15,0,.28-.03.37-.1.23-.11.58-.29.7-9.21v-4.57c0-4.42-.18-4.6-.29-4.72ZM28.62,45.96c-.08,5.85-.27,8.85-.57,9.01-.23.15-.68.05-1.37-.29-.68-.34-1.1-.51-1.25-.51-.53-.08-.95-.21-1.26-.4-.3-.19-.68-.32-1.14-.4-.83-.15-2.16-.87-3.99-2.17-1.82-1.29-2.74-2.16-2.74-2.62,0-.15.63-.63,1.89-1.43,1.25-.79,2.03-1.19,2.33-1.19.39,0,1.16-.44,2.34-1.31,1.18-.88,1.77-1.47,1.77-1.77,0-.08.23-.42.68-1.03.31-.46.53-1.33.69-2.62,0-.23.02-.53.05-.91.04-.38.08-.69.12-.92.04-.22.06-.38.06-.45.07-.15.38-.25.91-.29.53-.03.95.02,1.25.17.15.16.23,1.68.23,4.56v4.57ZM28.31,11.79h-.02c-.49-.34-.96-.5-1.38-.5h-1.03v16.31h3.08v-7.64c0-7.64-.44-8-.65-8.17ZM28.73,27.37h-2.62v-15.85h.8c.38,0,.8.15,1.26.45.37.31.56,2.97.56,7.99v7.41ZM46.87,51.09c-.31,0-.73.27-1.26.8-.76.61-1.71,1.25-2.85,1.93-.3.16-.65.35-1.02.58-.08.07-.16.15-.23.22-.76.38-2.4.65-4.91.8h-.68l-3.32.09v.22l3.32-.08h.7c2.56-.15,4.2-.42,4.99-.82l.21-.2.03-.04c.35-.21.7-.4,1.03-.57,1.15-.69,2.12-1.34,2.9-1.97.63-.64.95-.73,1.09-.73.3,0,.61.18.9.54.31.38.46.76.46,1.17,0,.26-.3,1-2.32,3.03l-4.45,4.44c-.55.55-.95,1.07-1.18,1.54-.29.51-.87,1.2-1.73,2.06-.58.57-.94.89-1.16,1.05-.23.17-.31.19-.33.19-.29,0-.61.17-.96.52-.33.34-1.74.74-6.57.74-3.82,0-6.28-.26-7.28-.76-.5-.33-.96-.5-1.38-.5-.39,0-.69-.09-.84-.24-.12-.18-.41-.45-1.61-.78-1.08-.29-1.33-.45-1.38-.51-.35-.35-.71-.52-1.07-.52-.04,0-.22-.04-.96-.53-.87-.58-1-.61-1.07-.61h-.01c-.06,0-.35-.14-1.71-1.21-2.02-1.42-3.69-3.05-4.96-4.85-.98-1.42-1.28-1.79-1.43-1.89-.37-.39-1.05-1.51-2.04-3.34-1.25-2.31-1.51-3.14-1.51-3.42,0-.42-.15-.88-.43-1.37-.24-.42-.37-.8-.37-1.14,0-.59-.21-1.11-.63-1.53-.12-.15-.39-1.23-.39-7.94s.35-7.66.53-7.85c.33-.5.49-1,.49-1.5,0-.26.12-.58.37-.96.29-.45.43-.81.43-1.09,0-.26.13-.63.37-1.09.3-.55.43-.61.43-.62.28,0,.46-.18.46-.46,0-.26.32-1.1,2.45-3.67,1.65-1.99,3.05-3.37,4.21-4.15.06-.07.17-.15.31-.26.16-.12.27-.17.34-.19.14-.05.29-.15.46-.32l.25-.25c.07-.07.15-.13.25-.2.11-.07.23-.14.38-.22l.12-.1c.18-.05.51-.24,1.38-.93.83-.53,1.59-.94,2.25-1.24.83-.37,1.09-.59,1.15-.8.07-.03.24-.12.71-.28.65-.21.96-.41,1.01-.65.07-.03.26-.08.8-.08.18,0,.39-.04.64-.12l.69-.23c.22-.07.42-.13.6-.16.15-.03.21.01.25.05.07.07.1.18.1.35,0,.05-.04.25-.58.61-.46.3-.88.59-1.26.85-.33.23-.49.43-.5.64,0,.09,0,.22.12.34.15.15.3.18.4.18.91,0,2.05-.77,3.47-2.35,1.14-1.13,1.41-1.28,1.43-1.3h.08l1.23-.98c.14-.14.43-.39.89-.78.47-.39.77-.65.9-.79.78-.54,1.56-1.41,2.33-2.55,1.35-1.64,1.7-1.83,1.76-1.85.04,0,.3.04,1.33.91,1.11.95,1.36,1.03,1.52,1.03.1,0,.11.01.11.11,0,.17.09.46.69.46.13,0,.33.03.48.33.42.76,1.37,1.15,2.82,1.15.59,0,.68.11.69.11,0,.31.24.46,2.51.46s2.78-.14,2.93-.25c2.3-.89,2.74-.92,2.77-.92.21.12.33.26.35.43.05.3-.13.87-1.2,1.94-.8.8-.96,1.15-.98,1.37-.06.1-.34.47-1.43,1.73l-1.53,1.89v.08c0,.06-.08.42-1.64,1.77l-1.76,1.65h-1.96c-1.85,0-2.24-.26-2.35-.39-.35-.35-.82-.52-1.42-.52-.52,0-.72-.05-.79-.08-.03-.21-.17-.37-.41-.43-.09-.02-.18-.03-.29-.02v.23c.09-.01.17,0,.24.01.15.04.23.14.23.29s.34.23,1.02.23c.54,0,.95.15,1.26.45.23.31,1.06.46,2.51.46h2.05l1.83-1.71c1.14-.99,1.71-1.64,1.71-1.94l1.48-1.83c.99-1.14,1.48-1.74,1.48-1.82,0-.23.3-.65.91-1.26,1.37-1.36,1.64-2.28.8-2.73-.23-.08-1.21.23-2.96.91-.23.15-1.18.23-2.85.23-1.53,0-2.28-.08-2.28-.23,0-.23-.31-.34-.92-.34-1.37,0-2.24-.34-2.62-1.03-.15-.3-.38-.45-.68-.45s-.46-.08-.46-.23c0-.23-.11-.34-.34-.34-.16,0-.61-.33-1.37-.97-.76-.65-1.26-.97-1.48-.97s-.88.64-1.94,1.94c-.76,1.14-1.52,1.97-2.28,2.5-.16.16-.46.42-.92.8-.45.38-.76.65-.91.8l-1.14.91c-.15,0-.68.46-1.6,1.37-1.36,1.52-2.46,2.28-3.3,2.28-.08,0-.15-.03-.23-.11-.15-.15-.04-.36.34-.63.38-.26.8-.55,1.26-.85.45-.31.68-.57.68-.8s-.06-.4-.17-.51c-.11-.12-.27-.16-.46-.12-.19.04-.39.1-.62.17-.23.08-.46.16-.69.23-.23.08-.42.11-.57.11-.68,0-1.02.08-1.02.23,0,.16-.29.33-.86.51-.57.2-.85.33-.85.4,0,.16-.35.39-1.03.69-.69.3-1.45.72-2.28,1.25-.76.61-1.22.92-1.37.92l-.11.11c-.16.08-.29.15-.4.23-.12.07-.21.15-.29.23-.07.07-.17.17-.28.28-.12.11-.23.19-.35.23-.11.04-.24.11-.39.23-.16.11-.27.21-.35.28-1.14.76-2.54,2.15-4.22,4.16-1.67,2.02-2.5,3.29-2.5,3.82,0,.16-.08.23-.23.23-.16,0-.37.25-.63.74-.27.5-.4.9-.4,1.2,0,.23-.13.55-.4.97-.27.42-.4.78-.4,1.08,0,.46-.15.92-.45,1.37-.38.38-.57,3.04-.57,7.98s.15,7.8.45,8.1c.38.38.57.84.57,1.37,0,.38.13.8.4,1.25.27.46.4.88.4,1.26,0,.46.51,1.63,1.54,3.53,1.03,1.91,1.73,3.05,2.11,3.43.07,0,.53.6,1.37,1.82,1.29,1.82,2.96,3.46,5.02,4.9,1.06.84,1.67,1.26,1.82,1.26.08,0,.4.19.97.57.57.38.93.57,1.08.57.31,0,.61.15.92.45.15.16.64.35,1.48.57.83.23,1.33.46,1.48.69.23.23.57.34,1.03.34.38,0,.79.15,1.25.46,1.06.53,3.54.8,7.41.8s6.2-.27,6.73-.8c.3-.31.57-.46.8-.46s.78-.44,1.65-1.31c.88-.87,1.47-1.58,1.77-2.11.23-.46.61-.95,1.14-1.48l4.45-4.45c1.6-1.6,2.39-2.66,2.39-3.19,0-.46-.17-.9-.51-1.31-.34-.42-.7-.63-1.08-.63ZM32.6,26.97v9.64h2.29c2.06,0,3.39-.12,4-.35.6-.22,1.25-.83,1.93-1.82.92-1.14,1.45-1.79,1.6-1.94.53-.53.8-.95.8-1.25,0-.23.23-.54.68-.92.91-.83,1.07-1.82.46-2.96-.23-.38-2.32-.57-6.27-.57-2.81,0-4.64.06-5.49.17Z"/>
          <path class="cls-1" d="M18.23,11.88l-.1-.02c-.54,0-1.55.4-4.07,3.86-.54.82-.82,1.1-.96,1.19-.19.13-.49.47-1.17,1.98-.68,1.52-.76,1.99-.76,2.21,0,.02-.02.18-.42.78-.32.49-.49,1.07-.49,1.73,0,.49-.15,1.03-.43,1.6-.33.65-.48,2.14-.48,4.55,0,3.22.28,3.91.54,4.18.11.08.37.45.37,2.1,0,.63.37,2.29,1.15,5.07.43,1.64.64,1.86.86,1.88.02.04.04.13.04.34,0,.4.2.7.59.89h0c.05.06.19.25.58.99.53,1,.77,1.2,1,1.2.5,0,.57-.82.57-1.71s.14-1.51.41-1.91c.15-.19.51-.63.51-13.37,0-10.63.18-12.63.27-12.84.11-.11.3-.37.57-1.29.23-.8.39-1.03.46-1.1l.28-.29c.12-.11.3-.33.59-.7.39-.51.45-.7.45-.83,0-.14-.06-.34-.36-.49ZM12.38,42.54c-.06-.08-.22-.39-.53-1.55-.75-2.7-1.13-4.37-1.13-4.95,0-1.84-.31-2.29-.52-2.45-.12-.11-.39-.72-.39-3.83,0-2.3.14-3.77.43-4.34.32-.64.48-1.25.48-1.81s.14-1.06.42-1.47c.43-.66.49-.9.49-1.04,0-.16.09-.62.72-2.02.65-1.44.92-1.73,1-1.78.26-.18.61-.59,1.09-1.31,2.12-2.92,3.14-3.62,3.63-3.67.04.03.06.04.06.05s-.03.13-.35.54c-.28.36-.45.57-.56.67l-.28.28c-.12.12-.3.38-.57,1.3-.23.8-.38,1.03-.46,1.1-.15.15-.4.41-.4,13.16,0,10.79-.26,12.84-.42,13.1-.34.5-.5,1.21-.5,2.18,0,.81-.08,1.11-.12,1.22-.09-.09-.26-.31-.58-.93-.53-.99-.69-1.17-.83-1.2-.2-.11-.29-.25-.29-.46,0-.49-.13-.75-.39-.79ZM28.56,36.67l-.06-.04c-.35-.17-.8-.24-1.38-.2-.65.05-.98.18-1.1.42l-.02.1c0,.07-.02.21-.06.41-.04.24-.08.55-.11.93-.04.38-.06.7-.06.91-.15,1.25-.37,2.1-.64,2.51-.73.98-.73,1.07-.73,1.17,0,.03-.05.37-1.67,1.58-1.49,1.1-2.02,1.27-2.21,1.27-.24,0-.74.14-2.46,1.23-1.98,1.26-1.98,1.45-1.98,1.62,0,.37.32,1.03,2.83,2.81,1.87,1.33,3.21,2.05,4.09,2.2.42.08.77.2,1.05.37.33.21.78.36,1.38.44.03,0,.23.02,1.15.49.52.25.91.38,1.2.38.15,0,.28-.03.37-.1.23-.11.58-.29.7-9.21v-4.57c0-4.42-.18-4.6-.29-4.72ZM26.79,54.47c-.94-.46-1.21-.53-1.32-.53h-.01c-.5-.07-.89-.19-1.17-.37-.33-.2-.74-.35-1.22-.43-.79-.14-2.11-.86-3.89-2.13-2.24-1.58-2.6-2.18-2.64-2.39.07-.1.39-.39,1.77-1.27,1.65-1.05,2.1-1.16,2.21-1.16.28,0,.84-.14,2.48-1.36,1.64-1.22,1.86-1.67,1.85-1.91.02-.03.1-.2.66-.94.32-.49.56-1.38.72-2.75,0-.23.02-.53.05-.89.04-.37.08-.67.12-.9.03-.18.04-.31.05-.4.06-.04.22-.11.71-.15.45-.03.8,0,1.06.12.06.2.17,1.03.17,4.38v4.56c-.09,7.22-.35,8.64-.47,8.82-.05.04-.29.13-1.13-.3ZM28.31,11.79h-.02c-.49-.34-.96-.5-1.38-.5h-1.03v16.31h3.08v-7.64c0-7.64-.44-8-.65-8.17ZM28.5,27.14h-2.16v-15.39h.57c.33,0,.7.13,1.11.41.15.16.48,1.25.48,7.8v7.18ZM46.87,50.86c-.38,0-.83.27-1.4.85-.75.59-1.7,1.24-2.81,1.91-.33.17-.68.36-1.09.61l-.2.2c-.74.36-2.35.62-4.77.76l-4,.09v.45l3.32-.08h.7c2.56-.15,4.2-.42,4.99-.82l.21-.2.03-.04c.35-.21.7-.4,1.03-.57,1.15-.69,2.12-1.34,2.9-1.97.63-.64.95-.73,1.09-.73.3,0,.61.18.9.54.31.38.46.76.46,1.17,0,.26-.3,1-2.32,3.03l-4.45,4.44c-.55.55-.95,1.07-1.18,1.54-.29.51-.87,1.2-1.73,2.06-.58.57-.94.89-1.16,1.05-.23.17-.31.19-.33.19-.29,0-.61.17-.96.52-.33.34-1.74.74-6.57.74-3.82,0-6.28-.26-7.28-.76-.5-.33-.96-.5-1.38-.5-.39,0-.69-.09-.84-.24-.12-.18-.41-.45-1.61-.78-1.08-.29-1.33-.45-1.38-.51-.35-.35-.71-.52-1.07-.52-.04,0-.22-.04-.96-.53-.87-.58-1-.61-1.07-.61h-.01c-.06,0-.35-.14-1.71-1.21-2.02-1.42-3.69-3.05-4.96-4.85-.98-1.42-1.28-1.79-1.43-1.89-.37-.39-1.05-1.51-2.04-3.34-1.25-2.31-1.51-3.14-1.51-3.42,0-.42-.15-.88-.43-1.37-.24-.42-.37-.8-.37-1.14,0-.59-.21-1.11-.63-1.53-.12-.15-.39-1.23-.39-7.94s.35-7.66.53-7.85c.33-.5.49-1,.49-1.5,0-.26.12-.58.37-.96.29-.45.43-.81.43-1.09,0-.26.13-.63.37-1.09.3-.55.43-.61.43-.62.28,0,.46-.18.46-.46,0-.26.32-1.1,2.45-3.67,1.65-1.99,3.05-3.37,4.21-4.15.06-.07.17-.15.31-.26.16-.12.27-.17.34-.19.14-.05.29-.15.46-.32l.25-.25c.07-.07.15-.13.25-.2.11-.07.23-.14.38-.22l.12-.1c.18-.05.51-.24,1.38-.93.83-.53,1.59-.94,2.25-1.24.83-.37,1.09-.59,1.15-.8.07-.03.24-.12.71-.28.65-.21.96-.41,1.01-.65.07-.03.26-.08.8-.08.18,0,.39-.04.64-.12l.69-.23c.22-.07.42-.13.6-.16.15-.03.21.01.25.05.07.07.1.18.1.35,0,.05-.04.25-.58.61-.46.3-.88.59-1.26.85-.33.23-.49.43-.5.64,0,.09,0,.22.12.34.15.15.3.18.4.18.91,0,2.05-.77,3.47-2.35,1.14-1.13,1.41-1.28,1.43-1.3h.08l1.23-.98c.14-.14.43-.39.89-.78.47-.39.77-.65.9-.79.78-.54,1.56-1.41,2.33-2.55,1.35-1.64,1.7-1.83,1.76-1.85.04,0,.3.04,1.33.91,1.11.95,1.36,1.03,1.52,1.03.1,0,.11.01.11.11,0,.17.09.46.69.46.13,0,.33.03.48.33.42.76,1.37,1.15,2.82,1.15.59,0,.68.11.69.11,0,.31.24.46,2.51.46s2.78-.14,2.93-.25c2.3-.89,2.74-.92,2.77-.92.21.12.33.26.35.43.05.3-.13.87-1.2,1.94-.8.8-.96,1.15-.98,1.37-.06.1-.34.47-1.43,1.73l-1.53,1.89v.08c0,.06-.08.42-1.64,1.77l-1.76,1.65h-1.96c-1.85,0-2.24-.26-2.35-.39-.35-.35-.82-.52-1.42-.52-.52,0-.72-.05-.79-.08-.03-.21-.17-.37-.41-.43-.09-.02-.18-.03-.29-.02v.47c.07-.02.13-.01.18,0,.06.01.06.02.06.06,0,.42.65.46,1.25.46.48,0,.83.12,1.08.36.19.26.67.55,2.69.55h2.14l1.89-1.77c1.41-1.22,1.73-1.73,1.78-2.02l1.43-1.77c1.54-1.77,1.54-1.85,1.54-1.97,0-.04.04-.29.85-1.09.98-.98,1.41-1.74,1.33-2.33-.05-.33-.25-.59-.63-.79-.15-.05-.42-.14-3.16.94-.07.04-.46.19-2.72.19-1.47,0-1.93-.07-2.07-.11-.11-.46-.86-.46-1.13-.46-1.27,0-2.08-.31-2.41-.9-.25-.48-.62-.58-.89-.58-.15,0-.22-.02-.23-.02-.01-.34-.22-.55-.55-.55h0s-.26-.09-1.23-.92c-1.07-.9-1.42-1.02-1.63-1.02s-.58.15-2.13,2.04c-.75,1.11-1.49,1.94-2.26,2.47-.14.15-.45.41-.89.79-.48.4-.78.65-.91.79l-1.09.87c-.17.05-.51.27-1.68,1.44-1.31,1.46-2.37,2.2-3.13,2.2,0,0-.03,0-.07-.02,0,0,.03-.1.32-.3.37-.26.79-.55,1.24-.85.54-.36.79-.67.79-.99,0-.29-.08-.52-.24-.68-.12-.12-.32-.24-.66-.17-.2.04-.41.09-.66.17l-.68.23c-.2.07-.37.1-.5.1-.61,0-1.25.04-1.24.42-.01.02-.1.14-.71.34-.86.28-1.01.41-1,.57-.01.02-.12.17-.9.52-.69.3-1.47.73-2.34,1.28-.97.79-1.2.86-1.22.87h-.09l-.16.15c-.15.08-.28.15-.39.23-.12.08-.23.16-.32.25l-.29.29c-.08.09-.17.14-.25.17-.14.05-.3.14-.46.26-.17.12-.29.23-.33.28-1.16.77-2.6,2.18-4.27,4.21-2.3,2.76-2.56,3.59-2.56,3.96-.26,0-.5.25-.83.86-.29.54-.43.97-.43,1.31,0,.1-.05.35-.36.85-.29.45-.44.85-.44,1.2,0,.41-.14.83-.39,1.21-.29.3-.63,1.49-.63,8.14,0,7.74.35,8.09.52,8.26.34.34.5.74.5,1.21,0,.42.15.88.43,1.37.25.42.37.8.37,1.14,0,.32.16,1.04,1.57,3.64,1.06,1.98,1.75,3.08,2.15,3.48l.06.06h.02c.1.11.39.47,1.26,1.73,1.3,1.84,3.01,3.51,5.06,4.95,1.66,1.31,1.86,1.31,1.93,1.3.04.01.19.08.88.54.8.54,1.06.61,1.21.61.24,0,.49.13.75.38.13.13.42.32,1.59.64,1.05.28,1.29.51,1.38.62.27.27.67.41,1.19.41.33,0,.71.14,1.15.43,1.1.56,3.56.83,7.51.83,5.4,0,6.52-.5,6.9-.87.25-.25.47-.39.63-.39.23,0,.6-.17,1.82-1.38.89-.89,1.48-1.6,1.81-2.17.21-.43.58-.91,1.09-1.42l4.45-4.45c2.21-2.21,2.46-2.97,2.46-3.35,0-.51-.19-1-.56-1.46-.39-.47-.81-.71-1.26-.71ZM42.99,31.25c0,.13-.1.45-.73,1.09-.1.1-.38.41-1.63,1.97-.65.94-1.26,1.53-1.83,1.74-.58.21-1.89.33-3.91.33h-2.29v.46h2.29c2.1,0,3.43-.12,4.08-.36.66-.25,1.33-.87,2.03-1.9.91-1.13,1.44-1.77,1.58-1.92.58-.58.87-1.04.87-1.41,0-.06.04-.27.61-.75.99-.91,1.16-2,.5-3.25-.15-.24-.41-.68-6.47-.68-3.19,0-4.73.07-5.49.16v.47c.59-.08,2.03-.17,5.49-.17,5.27,0,5.98.35,6.07.45.55,1.04.42,1.92-.41,2.68-.52.43-.76.78-.76,1.09ZM18.23,11.88l-.1-.02c-.54,0-1.55.4-4.07,3.86-.54.82-.82,1.1-.96,1.19-.19.13-.49.47-1.17,1.98-.68,1.52-.76,1.99-.76,2.21,0,.02-.02.18-.42.78-.32.49-.49,1.07-.49,1.73,0,.49-.15,1.03-.43,1.6-.33.65-.48,2.14-.48,4.55,0,3.22.28,3.91.54,4.18.11.08.37.45.37,2.1,0,.63.37,2.29,1.15,5.07.43,1.64.64,1.86.86,1.88.02.04.04.13.04.34,0,.4.2.7.59.89h0c.05.06.19.25.58.99.53,1,.77,1.2,1,1.2.5,0,.57-.82.57-1.71s.14-1.51.41-1.91c.15-.19.51-.63.51-13.37,0-10.63.18-12.63.27-12.84.11-.11.3-.37.57-1.29.23-.8.39-1.03.46-1.1l.28-.29c.12-.11.3-.33.59-.7.39-.51.45-.7.45-.83,0-.14-.06-.34-.36-.49ZM12.38,42.54c-.06-.08-.22-.39-.53-1.55-.75-2.7-1.13-4.37-1.13-4.95,0-1.84-.31-2.29-.52-2.45-.12-.11-.39-.72-.39-3.83,0-2.3.14-3.77.43-4.34.32-.64.48-1.25.48-1.81s.14-1.06.42-1.47c.43-.66.49-.9.49-1.04,0-.16.09-.62.72-2.02.65-1.44.92-1.73,1-1.78.26-.18.61-.59,1.09-1.31,2.12-2.92,3.14-3.62,3.63-3.67.04.03.06.04.06.05s-.03.13-.35.54c-.28.36-.45.57-.56.67l-.28.28c-.12.12-.3.38-.57,1.3-.23.8-.38,1.03-.46,1.1-.15.15-.4.41-.4,13.16,0,10.79-.26,12.84-.42,13.1-.34.5-.5,1.21-.5,2.18,0,.81-.08,1.11-.12,1.22-.09-.09-.26-.31-.58-.93-.53-.99-.69-1.17-.83-1.2-.2-.11-.29-.25-.29-.46,0-.49-.13-.75-.39-.79ZM28.56,36.67l-.06-.04c-.35-.17-.8-.24-1.38-.2-.65.05-.98.18-1.1.42l-.02.1c0,.07-.02.21-.06.41-.04.24-.08.55-.11.93-.04.38-.06.7-.06.91-.15,1.25-.37,2.1-.64,2.51-.73.98-.73,1.07-.73,1.17,0,.03-.05.37-1.67,1.58-1.49,1.1-2.02,1.27-2.21,1.27-.24,0-.74.14-2.46,1.23-1.98,1.26-1.98,1.45-1.98,1.62,0,.37.32,1.03,2.83,2.81,1.87,1.33,3.21,2.05,4.09,2.2.42.08.77.2,1.05.37.33.21.78.36,1.38.44.03,0,.23.02,1.15.49.52.25.91.38,1.2.38.15,0,.28-.03.37-.1.23-.11.58-.29.7-9.21v-4.57c0-4.42-.18-4.6-.29-4.72ZM26.79,54.47c-.94-.46-1.21-.53-1.32-.53h-.01c-.5-.07-.89-.19-1.17-.37-.33-.2-.74-.35-1.22-.43-.79-.14-2.11-.86-3.89-2.13-2.24-1.58-2.6-2.18-2.64-2.39.07-.1.39-.39,1.77-1.27,1.65-1.05,2.1-1.16,2.21-1.16.28,0,.84-.14,2.48-1.36,1.64-1.22,1.86-1.67,1.85-1.91.02-.03.1-.2.66-.94.32-.49.56-1.38.72-2.75,0-.23.02-.53.05-.89.04-.37.08-.67.12-.9.03-.18.04-.31.05-.4.06-.04.22-.11.71-.15.45-.03.8,0,1.06.12.06.2.17,1.03.17,4.38v4.56c-.09,7.22-.35,8.64-.47,8.82-.05.04-.29.13-1.13-.3ZM28.31,11.79h-.02c-.49-.34-.96-.5-1.38-.5h-1.03v16.31h3.08v-7.64c0-7.64-.44-8-.65-8.17ZM28.5,27.14h-2.16v-15.39h.57c.33,0,.7.13,1.11.41.15.16.48,1.25.48,7.8v7.18ZM28.56,36.67l-.06-.04c-.35-.17-.8-.24-1.38-.2-.65.05-.98.18-1.1.42l-.02.1c0,.07-.02.21-.06.41-.04.24-.08.55-.11.93-.04.38-.06.7-.06.91-.15,1.25-.37,2.1-.64,2.51-.73.98-.73,1.07-.73,1.17,0,.03-.05.37-1.67,1.58-1.49,1.1-2.02,1.27-2.21,1.27-.24,0-.74.14-2.46,1.23-1.98,1.26-1.98,1.45-1.98,1.62,0,.37.32,1.03,2.83,2.81,1.87,1.33,3.21,2.05,4.09,2.2.42.08.77.2,1.05.37.33.21.78.36,1.38.44.03,0,.23.02,1.15.49.52.25.91.38,1.2.38.15,0,.28-.03.37-.1.23-.11.58-.29.7-9.21v-4.57c0-4.42-.18-4.6-.29-4.72ZM26.79,54.47c-.94-.46-1.21-.53-1.32-.53h-.01c-.5-.07-.89-.19-1.17-.37-.33-.2-.74-.35-1.22-.43-.79-.14-2.11-.86-3.89-2.13-2.24-1.58-2.6-2.18-2.64-2.39.07-.1.39-.39,1.77-1.27,1.65-1.05,2.1-1.16,2.21-1.16.28,0,.84-.14,2.48-1.36,1.64-1.22,1.86-1.67,1.85-1.91.02-.03.1-.2.66-.94.32-.49.56-1.38.72-2.75,0-.23.02-.53.05-.89.04-.37.08-.67.12-.9.03-.18.04-.31.05-.4.06-.04.22-.11.71-.15.45-.03.8,0,1.06.12.06.2.17,1.03.17,4.38v4.56c-.09,7.22-.35,8.64-.47,8.82-.05.04-.29.13-1.13-.3ZM18.23,11.88l-.1-.02c-.54,0-1.55.4-4.07,3.86-.54.82-.82,1.1-.96,1.19-.19.13-.49.47-1.17,1.98-.68,1.52-.76,1.99-.76,2.21,0,.02-.02.18-.42.78-.32.49-.49,1.07-.49,1.73,0,.49-.15,1.03-.43,1.6-.33.65-.48,2.14-.48,4.55,0,3.22.28,3.91.54,4.18.11.08.37.45.37,2.1,0,.63.37,2.29,1.15,5.07.43,1.64.64,1.86.86,1.88.02.04.04.13.04.34,0,.4.2.7.59.89h0c.05.06.19.25.58.99.53,1,.77,1.2,1,1.2.5,0,.57-.82.57-1.71s.14-1.51.41-1.91c.15-.19.51-.63.51-13.37,0-10.63.18-12.63.27-12.84.11-.11.3-.37.57-1.29.23-.8.39-1.03.46-1.1l.28-.29c.12-.11.3-.33.59-.7.39-.51.45-.7.45-.83,0-.14-.06-.34-.36-.49ZM12.38,42.54c-.06-.08-.22-.39-.53-1.55-.75-2.7-1.13-4.37-1.13-4.95,0-1.84-.31-2.29-.52-2.45-.12-.11-.39-.72-.39-3.83,0-2.3.14-3.77.43-4.34.32-.64.48-1.25.48-1.81s.14-1.06.42-1.47c.43-.66.49-.9.49-1.04,0-.16.09-.62.72-2.02.65-1.44.92-1.73,1-1.78.26-.18.61-.59,1.09-1.31,2.12-2.92,3.14-3.62,3.63-3.67.04.03.06.04.06.05s-.03.13-.35.54c-.28.36-.45.57-.56.67l-.28.28c-.12.12-.3.38-.57,1.3-.23.8-.38,1.03-.46,1.1-.15.15-.4.41-.4,13.16,0,10.79-.26,12.84-.42,13.1-.34.5-.5,1.21-.5,2.18,0,.81-.08,1.11-.12,1.22-.09-.09-.26-.31-.58-.93-.53-.99-.69-1.17-.83-1.2-.2-.11-.29-.25-.29-.46,0-.49-.13-.75-.39-.79ZM28.31,11.79h-.02c-.49-.34-.96-.5-1.38-.5h-1.03v16.31h3.08v-7.64c0-7.64-.44-8-.65-8.17ZM28.5,27.14h-2.16v-15.39h.57c.33,0,.7.13,1.11.41.15.16.48,1.25.48,7.8v7.18Z"/>
        </g>
        <g>
          <path d="M61.46,15.96c.53-.61.91-.91,1.14-.91.15,0,.29.08.4.23.11.15.27.38.46.68.19.31.36.53.51.68.15.15.34.36.57.63.23.27.49.59.8.97.3.38.57.68.8.91,1.06,1.22,3.5,3.73,7.3,7.53l5.7,5.7.11,11.75c0,8.06-.04,12.2-.11,12.43-.15.46-.42.72-.8.8-.38.15-1.2.55-2.45,1.2-1.25.65-2.04,1.12-2.34,1.43-.08.08-.23.17-.46.28-.23.11-.46.25-.68.4-.23.15-.34.27-.34.34,0,.15-.11.23-.34.23-.15,0-.61.3-1.37.91-1.6,1.45-3,2.58-4.22,3.42-.23.15-.55.15-.97,0-.42-.15-.63-.34-.63-.57,0-.15-.11-.23-.34-.23-.31,0-.87-.34-1.71-1.03-.99-.76-3.31-2.13-6.95-4.11-1.82-.91-2.32-1.67-1.48-2.28.3-.23.49-3.91.57-11.06l.11-10.61,1.03-1.03c.61-.61,1.14-.99,1.6-1.14l.57-.34c0-.23.08-.34.23-.34.61,0,1.52-.61,2.74-1.82.3-.3.53-.46.68-.46s.57-.49,1.25-1.48l-3.31-3.31c-2.21-2.2-3.31-3.46-3.31-3.76s.72-1.18,2.17-2.62c1.14-1.14,2.17-2.28,3.08-3.42ZM63.74,53.82c.91.91,1.4,1.37,1.48,1.37.15,0,1.03.53,2.62,1.6,1.14.84,2.01,1.25,2.62,1.25.3,0,.46-3.42.46-10.26,0-5.09-.04-8.15-.11-9.18-.08-1.03-.27-1.81-.57-2.34-.38-.76-.72-1.29-1.03-1.6-.08-.07-.25-.28-.51-.63-.27-.34-.48-.59-.63-.74-.3-.3-.89-.82-1.77-1.54-.87-.72-1.42-1.2-1.65-1.43s-.38-.34-.46-.34c-.31,0-.46,4.18-.46,12.54v11.29Z"/>
          <path class="cls-1" d="M65.73,65.92c-.19,0-.4-.04-.64-.13-.51-.19-.77-.45-.78-.78h0s-.05,0-.11,0c-.23,0-.68-.11-1.86-1.08-.97-.74-3.3-2.12-6.92-4.08-1.31-.66-1.95-1.23-2-1.8-.03-.32.14-.62.49-.87.12-.2.38-1.92.48-10.88l.11-10.7,1.09-1.09c.63-.63,1.19-1.03,1.68-1.2l.42-.26c.05-.4.35-.44.45-.44.37,0,1.12-.31,2.58-1.76.36-.36.62-.52.85-.52,0,0,.2-.15.96-1.23l-3.17-3.17c-3.37-3.37-3.37-3.73-3.37-3.93,0-.27.27-.82,2.23-2.79,1.13-1.13,2.16-2.27,3.06-3.4h0c.77-.89,1.1-1,1.31-1,.16,0,.38.06.58.32.12.16.27.39.47.7.18.29.34.51.48.64.16.16.35.37.58.64.23.27.5.59.8.98.29.36.55.66.78.89,1.07,1.22,3.52,3.75,7.3,7.53l5.77,5.77v.09s.11,11.75.11,11.75c0,12.12-.09,12.39-.12,12.5-.18.54-.51.86-.97.95-.32.13-1.12.52-2.39,1.18-1.23.63-2,1.1-2.28,1.38-.1.1-.27.2-.52.33-.21.11-.44.24-.66.39-.21.14-.25.2-.25.21.01.05-.03.4-.56.4-.02,0-.25.08-1.23.86-1.58,1.43-3.01,2.59-4.23,3.43-.15.1-.34.16-.54.16ZM54.96,35.79l-.11,10.51c-.12,10.83-.46,11.09-.66,11.24-.32.23-.31.41-.3.46.02.22.27.69,1.75,1.43,3.65,1.98,6,3.37,6.99,4.13,1.08.88,1.46.98,1.57.98.53,0,.57.35.57.46,0,.12.17.24.48.35.34.13.6.13.76.03,1.2-.83,2.61-1.97,4.19-3.4,1.12-.9,1.37-.97,1.52-.97.1,0,.13-.02.13-.02-.02-.15.11-.3.43-.51.24-.16.48-.3.71-.41.27-.13.36-.21.4-.24.32-.32,1.1-.8,2.39-1.47,1.3-.67,2.09-1.05,2.47-1.21.34-.07.54-.28.67-.66.03-.18.1-2.03.1-12.36l-.11-11.65-5.64-5.64c-3.78-3.78-6.24-6.32-7.31-7.54-.23-.23-.51-.55-.8-.92-.3-.38-.57-.7-.79-.96-.22-.26-.41-.47-.56-.62-.17-.16-.34-.4-.55-.72-.19-.29-.33-.52-.44-.67-.1-.13-.19-.13-.22-.13-.03,0-.26.02-.96.83-.91,1.14-1.96,2.3-3.09,3.44-1.92,1.92-2.09,2.37-2.1,2.46.03.13.4.76,3.24,3.6l3.44,3.44-.11.16c-1.01,1.46-1.25,1.58-1.44,1.58,0,0-.14,0-.52.39-1.27,1.27-2.21,1.89-2.89,1.89,0,.01,0,.05,0,.11v.13l-.68.41c-.47.16-.97.53-1.55,1.1l-.96.96ZM70.47,58.27c-.67,0-1.57-.42-2.76-1.3-2.01-1.34-2.43-1.53-2.51-1.55,0,0,0,0-.01,0-.1,0-.23-.05-1.61-1.43l-.07-.07v-11.38c0-12.77.32-12.77.69-12.77.13,0,.28.07.62.41.16.16.57.53,1.63,1.41.9.75,1.49,1.26,1.79,1.56.16.16.37.41.65.76.35.45.46.57.49.61.32.32.67.87,1.07,1.66.31.55.51,1.37.59,2.42.08,1.04.11,4.14.11,9.2,0,10.49-.33,10.49-.69,10.49ZM65.29,54.97c.15.03.58.22,2.69,1.63,1.03.76,1.83,1.16,2.39,1.21.14-.41.33-2.34.33-10.03,0-5.05-.04-8.13-.11-9.16-.07-.99-.26-1.74-.54-2.24-.38-.75-.71-1.26-.99-1.55-.08-.08-.26-.3-.53-.65-.26-.33-.47-.58-.61-.72-.29-.29-.86-.79-1.75-1.53-.86-.71-1.42-1.2-1.67-1.44-.08-.08-.15-.14-.2-.19-.14.64-.32,3.19-.32,12.23v11.19c.95.95,1.23,1.18,1.31,1.24Z"/>
        </g>
        <g>
          <path d="M89.63,28.28c.84-.68,1.29-1.03,1.37-1.03.38,0,.84.23,1.37.68,3.73,2.51,5.59,4.3,5.59,5.36,0,.15-.08.3-.23.46-.23.23-.34,4.11-.34,11.63s.11,11.4.34,11.63.65.34,1.26.34c1.06,0,1.6.38,1.6,1.14,0,.53-1.01,1.81-3.02,3.82s-3.29,3.02-3.82,3.02c-.84,0-2.85-1.44-6.04-4.33-.45-.46-.84-.68-1.14-.68-.46-.07-.34-.64.34-1.71.68-.99,1.08-2.05,1.2-3.19.11-1.14.17-4.37.17-9.69,0-6.77-.19-10.34-.57-10.72-.38-.38-.91-.53-1.6-.46-.23.08-.5.11-.8.11-.68,0-1.03-.19-1.03-.57,0-.68.72-1.63,2.17-2.85.3-.3.85-.82,1.65-1.54.8-.72,1.31-1.2,1.54-1.43ZM92.14,15.62c0-.53.34-.95,1.03-1.25.68-.3,1.21-.23,1.6.23,1.29,1.45,2.43,2.17,3.42,2.17.61,0,.91.38.91,1.14,0,.91-.3,1.67-.91,2.28-2.51,3.12-4.07,4.68-4.68,4.68-.46,0-1.14-.32-2.05-.97-.91-.64-1.52-1.04-1.82-1.2-.53-.23-1.07-.64-1.6-1.25-.53-.61-.8-1.06-.8-1.37s.17-.59.51-.85c.34-.26.66-.4.97-.4s.95-.46,1.94-1.37,1.48-1.52,1.48-1.82Z"/>
          <path class="cls-1" d="M93.73,65.57c-.58,0-1.85-.46-6.2-4.39-.54-.55-.85-.63-.98-.63-.29-.04-.4-.19-.45-.3-.15-.34.04-.88.6-1.76.66-.96,1.05-1.99,1.16-3.09.11-1.13.17-4.39.17-9.67,0-8.99-.35-10.38-.5-10.56-.33-.33-.78-.45-1.41-.39-.2.07-.49.12-.82.12-1.04,0-1.26-.43-1.26-.8,0-.76.73-1.75,2.25-3.03.3-.3.85-.82,1.65-1.53.81-.73,1.31-1.2,1.53-1.42l.02-.02c1.32-1.08,1.4-1.08,1.51-1.08.44,0,.94.24,1.52.74,3.81,2.56,5.67,4.38,5.67,5.53,0,.22-.1.42-.3.62-.09.2-.27,2-.27,11.47s.19,11.27.3,11.5c.16.15.54.24,1.07.24,1.51,0,1.83.74,1.83,1.37,0,.38-.32,1.21-3.09,3.98-2.77,2.77-3.6,3.09-3.98,3.09ZM86.59,60.1c.33,0,.76.25,1.26.75,3.89,3.52,5.35,4.27,5.88,4.27.26,0,1.09-.38,3.66-2.95,2.57-2.57,2.96-3.4,2.96-3.66,0-.39-.14-.91-1.37-.91-.68,0-1.14-.13-1.42-.41-.15-.15-.41-.41-.41-11.79s.26-11.64.41-11.79c.11-.11.16-.2.16-.29,0-.67-.95-2.12-5.49-5.17-.49-.42-.89-.63-1.2-.64-.08.04-.34.22-1.25.97-.23.23-.73.7-1.54,1.43-.79.71-1.34,1.23-1.65,1.53-1.74,1.46-2.1,2.27-2.1,2.69,0,.08,0,.34.8.34.28,0,.53-.03.73-.1.8-.1,1.4.08,1.83.51.19.19.64.64.64,10.88,0,5.3-.06,8.57-.17,9.72-.12,1.18-.54,2.29-1.24,3.3-.65,1.01-.58,1.28-.56,1.32,0,0,.01.02.07.03h0ZM93.51,25.09c-.51,0-1.23-.33-2.18-1.01-1.11-.78-1.59-1.08-1.8-1.18-.55-.23-1.12-.68-1.67-1.31-.58-.66-.85-1.15-.85-1.52s.2-.72.6-1.04c.39-.3.75-.45,1.11-.45.09,0,.47-.09,1.78-1.31,1.31-1.21,1.41-1.57,1.41-1.66,0-.63.39-1.12,1.16-1.46.98-.44,1.55-.08,1.87.29,1.23,1.38,2.33,2.08,3.24,2.08.43,0,1.14.18,1.14,1.37,0,.97-.33,1.79-.98,2.44-3.38,4.2-4.36,4.74-4.84,4.74ZM93.91,14.42c-.18,0-.39.05-.65.16-.6.27-.89.61-.89,1.04,0,.27-.19.73-1.56,1.99-1.37,1.27-1.84,1.43-2.09,1.43s-.53.12-.83.35c-.28.22-.42.44-.42.67,0,.14.1.48.74,1.22.5.58,1.01.98,1.51,1.2.33.17.96.58,1.87,1.22,1.08.77,1.64.93,1.92.93.24,0,1.17-.45,4.5-4.59.59-.59.86-1.28.86-2.14,0-.81-.36-.91-.68-.91-1.07,0-2.24-.73-3.59-2.24-.13-.16-.33-.33-.68-.33Z"/>
        </g>
        <g>
          <path d="M118.71,19.04c.53-.61,1.06-.91,1.6-.91.61,0,.91.15.91.46,0,.53-.42,1.25-1.26,2.17-1.22,1.45-1.82,2.59-1.82,3.42,0,.3.07.53.23.68.3.38.38,1.1.23,2.17v1.71h4.22c1.21,0,2.09-.11,2.62-.34.76-.3,1.21-.46,1.37-.46.23,0,.34.15.34.46,0,.68-.42,1.56-1.25,2.62-.08.08-.25.3-.51.68-.27.38-.46.63-.57.74-.11.11-.31.34-.57.68-.27.34-.48.57-.63.68-.15.11-.38.29-.68.51-.31.23-.57.4-.8.51s-.51.21-.86.28c-.34.08-.67.11-.97.11-1.29,0-1.94.76-1.94,2.28v5.93c0,7.22.19,11.48.57,12.77.61,1.75,1.86,2.62,3.76,2.62.76,0,1.24.04,1.43.11.19.08.28.31.28.68,0,.68-1.1,2.09-3.31,4.22-1.9,1.75-3.23,2.62-3.99,2.62s-1.58-.25-2.45-.74c-.87-.49-1.88-1.16-3.02-2-1.14-.84-1.94-1.41-2.4-1.71-1.29-.68-1.94-1.33-1.94-1.94,0-.3.27-.72.8-1.25.53-.53.87-.95,1.03-1.25.23-.46.34-4.26.34-11.4s-.23-10.64-.68-10.95c-.46-.3-.99-.38-1.6-.23-.68.08-1.14-.04-1.37-.34-.23-.3-.19-.76.11-1.37.23-.46,1.48-1.9,3.76-4.33,5.09-5.4,8.1-8.7,9.01-9.92Z"/>
          <path class="cls-1" d="M117.11,66.71c-.8,0-1.66-.26-2.56-.77-.88-.49-1.9-1.17-3.04-2.01-1.13-.83-1.93-1.4-2.39-1.7-1.37-.72-2.04-1.42-2.04-2.13,0-.37.28-.83.87-1.42.51-.51.84-.91.98-1.19.12-.24.32-2.02.32-11.3s-.41-10.59-.59-10.76c-.4-.26-.86-.33-1.41-.19-.8.1-1.33-.05-1.61-.43s-.25-.92.09-1.61c.15-.3.71-1.09,3.8-4.39,5.07-5.37,8.09-8.7,8.99-9.9h.01c.57-.67,1.17-1,1.77-1,.94,0,1.14.37,1.14.69,0,.6-.43,1.36-1.32,2.32-1.17,1.39-1.76,2.49-1.76,3.27,0,.24.05.42.16.52.37.46.46,1.23.29,2.36v1.45h3.99c1.18,0,2.03-.11,2.53-.32,1.04-.42,1.32-.48,1.46-.48s.57.05.57.69c0,.74-.43,1.65-1.3,2.76-.06.07-.19.21-.51.67-.28.39-.47.65-.59.77-.11.11-.29.33-.55.66-.28.36-.5.6-.67.73l-.68.51c-.33.24-.6.42-.83.54-.25.12-.56.23-.91.3-.35.08-.69.12-1.02.12-1.17,0-1.71.65-1.71,2.05v5.93c0,7.17.19,11.45.56,12.71.57,1.65,1.73,2.46,3.54,2.46,1.06,0,1.37.07,1.51.13.29.12.43.42.43.9s-.35,1.46-3.38,4.38c-1.97,1.81-3.32,2.69-4.15,2.69ZM107.77,34.7c.41,0,.8.11,1.14.34.26.17.78.53.78,11.14,0,9.66-.21,11.19-.37,11.51-.16.33-.51.76-1.07,1.31-.64.64-.73.96-.73,1.09,0,.51.63,1.11,1.82,1.74.48.32,1.29.9,2.42,1.73,1.13.83,2.14,1.5,3,1.98.83.47,1.62.71,2.34.71.48,0,1.54-.44,3.83-2.56,2.67-2.58,3.23-3.63,3.23-4.05,0-.26-.05-.43-.14-.47-.07-.03-.35-.1-1.34-.1-2,0-3.34-.93-3.98-2.78-.39-1.33-.58-5.53-.58-12.85v-5.93c0-2.08,1.18-2.51,2.17-2.51.29,0,.6-.04.92-.11.32-.07.59-.16.8-.27.21-.11.46-.27.76-.49l.68-.51c.13-.1.33-.32.58-.64.27-.35.47-.58.59-.71.07-.07.22-.25.54-.71.37-.52.48-.66.54-.72.78-1,1.19-1.83,1.19-2.46,0-.23-.06-.23-.11-.23-.04,0-.26.03-1.28.44-.56.24-1.45.36-2.71.36h-4.45v-1.94c.18-1.27,0-1.8-.18-2.02-.18-.17-.28-.46-.28-.83,0-.9.61-2.07,1.88-3.57,1-1.08,1.2-1.69,1.2-2.02,0-.2-.48-.23-.68-.23-.46,0-.94.28-1.42.83-.92,1.22-3.95,4.57-9.02,9.93-2.26,2.41-3.51,3.85-3.73,4.28-.26.52-.31.9-.13,1.13.17.23.56.32,1.16.25.21-.05.41-.08.61-.08Z"/>
        </g>
        <g>
          <path d="M146.08,26.23c.08-.23.4-.3.97-.23.57.08.93.27,1.08.57.23.38.49.57.8.57s.46.08.46.23c0,.23.07.34.23.34.38,0,1.98.95,4.79,2.85,1.06.76,1.98,1.25,2.74,1.48.99.23,1.48.65,1.48,1.25,0,.38-.19.87-.57,1.48-.38.61-.57,4.37-.57,11.29s-.08,10.3-.23,10.61c-.15.15-.34.23-.57.23s-.34.11-.34.34c0,.15-.19.23-.57.23s-1.07.27-2.05.8c-.99.53-1.75,1.03-2.28,1.48-.76.61-1.18.91-1.25.91l-.68.46c-.08.15-.53.53-1.37,1.14-.15.15-.53.49-1.14,1.03-.61.53-1.03.91-1.25,1.14-1.37,1.29-2.24,1.64-2.62,1.03-.53-.84-2.4-2.05-5.59-3.65l-3.19-1.6c-1.52-.76-2.28-1.44-2.28-2.05,0-.23.11-.57.34-1.03.3-.61.46-4.41.46-11.4v-10.26l1.03-1.03c.61-.61,1.29-1.1,2.05-1.48s3.12-1.9,7.07-4.56c.38-.3.85-.65,1.43-1.03.57-.38,1.01-.64,1.31-.8l.34-.34ZM143.8,34.44c-1.22-.84-1.86-1.06-1.94-.68,0,.15.04.42.11.8.08.38.11,3.84.11,10.38v9.35l2.28,1.25c.53.3,1.01.61,1.43.91.42.3.74.51.97.63s.55.25.97.4c.42.15.97.27,1.65.34l-.11-9.81c-.15-6.61-.27-10-.34-10.15-.15-.3-.57-.66-1.26-1.08-.68-.42-1.44-.87-2.28-1.37-.84-.49-1.37-.82-1.6-.97Z"/>
          <path class="cls-1" d="M143.63,65.98s-.08,0-.12,0c-.25-.03-.45-.17-.59-.39-.51-.79-2.36-2-5.49-3.56l-3.19-1.6c-1.62-.81-2.41-1.55-2.41-2.26,0-.26.12-.63.37-1.13.2-.4.43-2.68.43-11.3v-10.36l1.09-1.09c.62-.62,1.33-1.14,2.11-1.52.75-.38,3.12-1.91,7.04-4.55.37-.3.86-.65,1.43-1.03.55-.37.99-.63,1.3-.8l.28-.28c.21-.46.95-.36,1.2-.33.65.09,1.07.32,1.26.7.18.29.37.44.59.44.6,0,.69.29.69.46,0,.1.02.13.02.13,0,0,.01,0,.02,0,.3,0,1.17.37,4.88,2.87,1.04.75,1.94,1.23,2.67,1.45,1.09.25,1.65.75,1.65,1.47,0,.43-.2.95-.6,1.6-.25.39-.54,2.64-.54,11.17,0,10.21-.17,10.55-.25,10.71l-.04.06c-.2.2-.44.3-.73.3-.1,0-.11.01-.11.11,0,.3-.27.46-.8.46-.23,0-.76.13-1.94.77-.98.53-1.73,1.02-2.24,1.45-.91.73-1.19.91-1.31.95l-.61.41c-.11.15-.41.44-1.4,1.16-.14.14-.53.5-1.12,1.01-.6.53-1.02.91-1.24,1.13-1,.94-1.72,1.39-2.27,1.39ZM133.08,35.56v10.17c0,9.45-.27,11.09-.48,11.51-.26.53-.32.79-.32.92,0,.35.37.96,2.15,1.85l3.19,1.6c3.26,1.63,5.12,2.85,5.68,3.73.07.11.15.17.26.18.24.02.78-.1,2.01-1.25.23-.23.64-.6,1.26-1.15.57-.5.98-.86,1.13-1.01,1.13-.83,1.3-1.04,1.33-1.08l.08-.09.74-.49h.07s.18-.12,1.11-.86c.54-.46,1.3-.96,2.32-1.51,1.03-.56,1.74-.83,2.16-.83.29,0,.36-.05.36-.05-.02-.3.2-.52.55-.52.15,0,.27-.04.37-.13.08-.3.2-2.12.2-10.48,0-9.36.35-11,.61-11.41.35-.57.53-1.03.53-1.36,0-.18,0-.73-1.3-1.03-.8-.24-1.74-.75-2.82-1.52-3.75-2.53-4.5-2.81-4.66-2.81-.11,0-.45-.04-.46-.56-.01,0-.08-.01-.23-.01-.39,0-.73-.23-1-.68-.12-.24-.43-.39-.92-.46-.53-.07-.7.02-.72.07l-.06.09-.4.39c-.3.15-.73.41-1.29.78-.56.37-1.03.71-1.41,1.01-3.95,2.66-6.34,4.2-7.11,4.59-.73.37-1.41.85-1.99,1.44l-.96.96ZM149.62,58.07l-.26-.03c-.7-.08-1.28-.2-1.71-.35-.42-.15-.75-.29-.99-.41-.24-.12-.58-.34-1-.65-.41-.3-.89-.6-1.4-.9l-2.4-1.32v-9.49c0-8.09-.06-10.08-.11-10.33-.08-.39-.12-.67-.12-.84.04-.2.13-.32.26-.37.25-.1.68-.07,2.04.86h0c.23.15.76.48,1.58.96.84.49,1.6.95,2.28,1.37.73.45,1.16.83,1.34,1.18.05.11.14.28.37,10.25l.12,10.07ZM142.31,54.15l2.16,1.19c.53.31,1.02.62,1.45.93.4.29.72.5.94.61.22.11.54.24.95.39.34.13.79.23,1.34.3l-.11-9.55c-.19-8.38-.29-9.91-.33-10.08-.08-.15-.36-.47-1.16-.96-.68-.42-1.44-.87-2.28-1.37-.83-.49-1.37-.82-1.61-.98h0c-1.14-.78-1.51-.82-1.58-.82,0,.11.03.32.11.7.03.15.12.6.12,10.42v9.22Z"/>
        </g>
        <g>
          <path d="M175.95,56.9c.76.76,1.44,1.14,2.05,1.14.3,0,1.1.38,2.39,1.14l-.46,1.03c-.3.53-1.22,1.62-2.74,3.25-1.52,1.64-2.51,2.57-2.96,2.79-.23.15-.76,0-1.6-.46-1.22-.68-2.43-1.46-3.65-2.34-1.22-.87-1.94-1.39-2.17-1.54-1.29-.91-1.94-1.67-1.94-2.28,0-.15.46-.99,1.37-2.51.38-.68.57-4.45.57-11.29,0-5.02-.04-8-.11-8.95-.08-.95-.27-1.58-.57-1.88-.46-.46-.84-.68-1.14-.68-.91,0-1.37-.42-1.37-1.25,0-.68.49-1.44,1.48-2.28,1.6-1.37,2.62-2.28,3.08-2.74,1.14-.99,1.82-1.48,2.05-1.48.3,0,1.01.53,2.11,1.6,1.1,1.07,1.65,1.75,1.65,2.05s.32.68.97,1.14,1.05.61,1.2.46c.15-.15,1.23-1.06,3.25-2.74,2.01-1.67,3.1-2.51,3.25-2.51s.66.38,1.54,1.14c.87.76,1.79,1.58,2.74,2.45.95.87,1.46,1.35,1.54,1.43,1.14.76,1.71,1.41,1.71,1.94,0,.46-.46,1.03-1.37,1.71-1.29.99-2.17,1.67-2.62,2.05-.99.91-1.94,1.37-2.85,1.37-.99,0-1.9-.42-2.74-1.25-.23-.23-.61-.64-1.14-1.25-.53-.61-.87-.99-1.03-1.14-.53-.68-.99-.91-1.37-.68-.46.46-.76,1.07-.91,1.82-.15.76-.23,2.55-.23,5.36v15.4Z"/>
          <path class="cls-1" d="M174.02,66.55c-.33,0-.81-.18-1.49-.55-1.22-.69-2.46-1.48-3.68-2.35-1.25-.9-1.94-1.39-2.16-1.53-1.37-.97-2.04-1.78-2.04-2.47,0-.12,0-.29,1.4-2.63.24-.44.54-2.74.54-11.17,0-4.96-.04-7.97-.11-8.93-.09-1.11-.32-1.56-.5-1.74-.51-.51-.81-.62-.98-.62-1.32,0-1.6-.81-1.6-1.48,0-.76.51-1.57,1.56-2.46,1.58-1.36,2.62-2.27,3.06-2.72,1.58-1.36,2-1.55,2.22-1.55.26,0,.74.19,2.27,1.66,1.52,1.47,1.72,1.95,1.72,2.22,0,.1.08.4.87.95.73.51.91.47.92.47.08-.09.53-.48,3.25-2.74,3.09-2.56,3.26-2.56,3.4-2.56.16,0,.42.09,1.69,1.2.85.74,1.77,1.57,2.74,2.46.95.88,1.47,1.36,1.54,1.43,1.19.79,1.78,1.48,1.78,2.1,0,.54-.48,1.16-1.46,1.89-1.27.97-2.15,1.66-2.61,2.05-1.02.94-2.03,1.42-3,1.42-1.05,0-2.02-.44-2.9-1.32-.24-.24-.64-.68-1.15-1.27-.5-.57-.86-.97-1.02-1.13-.46-.59-.82-.81-1.09-.65-.38.39-.66.96-.8,1.67-.15.74-.22,2.53-.22,5.31v15.3c.68.67,1.3,1.01,1.82,1.01.24,0,.74.13,2.51,1.17l.18.1-.54,1.21c-.33.57-1.23,1.65-2.78,3.31-1.56,1.67-2.55,2.6-3.03,2.84-.08.06-.19.09-.32.09ZM170.25,26.8c-.07,0-.41.14-1.9,1.43-.45.45-1.49,1.37-3.08,2.74-.93.79-1.4,1.5-1.4,2.11,0,.71.35,1.02,1.14,1.02.37,0,.8.25,1.3.75.35.35.56,1.01.64,2.03.08.98.11,4,.11,8.97,0,9.25-.34,10.94-.6,11.4-1.16,1.94-1.33,2.34-1.34,2.42,0,.34.32,1,1.84,2.07.22.15.91.64,2.17,1.54,1.2.86,2.42,1.65,3.63,2.32,1.1.6,1.34.48,1.36.47.32-.16,1.06-.76,2.92-2.76,1.5-1.61,2.41-2.69,2.71-3.21l.36-.82c-1.56-.91-1.99-1.01-2.1-1.01-.68,0-1.4-.4-2.22-1.21l-.07-.07v-15.49c0-2.86.08-4.63.23-5.4.16-.8.49-1.45.98-1.94.54-.33,1.1-.08,1.71.71.15.15.5.55,1.02,1.13.5.58.9,1.01,1.13,1.24.78.79,1.65,1.19,2.57,1.19.85,0,1.75-.44,2.69-1.31.48-.4,1.36-1.09,2.64-2.07,1.06-.79,1.28-1.27,1.28-1.53,0-.31-.28-.86-1.61-1.75-.11-.1-.62-.57-1.57-1.45-.96-.88-1.88-1.71-2.73-2.45-.96-.83-1.28-1.03-1.38-1.07-.16.08-.78.51-3.11,2.45-2,1.66-3.09,2.58-3.23,2.72-.33.32-.93-.04-1.49-.43-.73-.51-1.07-.93-1.07-1.33,0-.06-.08-.43-1.58-1.89-1.51-1.46-1.89-1.53-1.95-1.53Z"/>
        </g>
      </g>
      <path d="M46.87,51.32c-.14,0-.46.09-1.09.73-.78.63-1.75,1.28-2.9,1.97-.33.17-.68.36-1.03.57l-.03.04-.21.2c-.79.4-2.43.67-4.99.82h-.7l-3.32.08V13.27c.11,0,.2,0,.29.02.24.06.38.22.41.43.07.03.27.08.79.08.6,0,1.07.17,1.42.52.11.13.5.39,2.35.39h1.96l1.76-1.65c1.56-1.35,1.64-1.71,1.64-1.77v-.08l1.53-1.89c1.09-1.26,1.37-1.63,1.43-1.73.02-.22.18-.57.98-1.37,1.07-1.07,1.25-1.64,1.2-1.94-.02-.17-.14-.31-.35-.43-.03,0-.47.03-2.77.92-.15.11-.66.25-2.93.25s-2.51-.15-2.51-.46c0,0-.1-.11-.69-.11-1.45,0-2.4-.39-2.82-1.15-.15-.3-.35-.33-.48-.33-.6,0-.69-.29-.69-.46,0-.1-.01-.11-.11-.11-.16,0-.41-.08-1.52-1.03-1.03-.87-1.29-.91-1.33-.91-.06.02-.41.21-1.76,1.85-.77,1.14-1.55,2.01-2.33,2.55-.13.14-.43.4-.9.79-.46.39-.75.64-.89.78l-1.23.98h-.08s-.29.17-1.43,1.3c-1.42,1.58-2.56,2.35-3.47,2.35-.1,0-.25-.03-.4-.18-.12-.12-.13-.25-.12-.34.01-.21.17-.41.5-.64.38-.26.8-.55,1.26-.85.54-.36.58-.56.58-.61,0-.17-.03-.28-.1-.35-.04-.04-.1-.08-.25-.05-.18.03-.38.09-.6.16l-.69.23c-.25.08-.46.12-.64.12-.54,0-.73.05-.8.08-.05.24-.36.44-1.01.65-.47.16-.64.25-.71.28-.06.21-.32.43-1.15.8-.66.3-1.42.71-2.25,1.24-.87.69-1.2.88-1.38.93l-.12.1c-.15.08-.27.15-.38.22-.1.07-.18.13-.25.2l-.25.25c-.17.17-.32.27-.46.32-.07.02-.18.07-.34.19-.14.11-.25.19-.31.26-1.16.78-2.56,2.16-4.21,4.15-2.13,2.57-2.45,3.41-2.45,3.67,0,.28-.18.46-.46.46,0,.01-.13.07-.43.62-.24.46-.37.83-.37,1.09,0,.28-.14.64-.43,1.09-.25.38-.37.7-.37.96,0,.5-.16,1-.49,1.5-.18.19-.53,1.25-.53,7.85s.27,7.79.39,7.94c.42.42.63.94.63,1.53,0,.34.13.72.37,1.14.28.49.43.95.43,1.37,0,.28.26,1.11,1.51,3.42.99,1.83,1.67,2.95,2.04,3.34.15.1.45.47,1.43,1.89,1.27,1.8,2.94,3.43,4.96,4.85,1.36,1.07,1.65,1.2,1.71,1.21h.01c.07,0,.2.03,1.07.61.74.49.92.53.96.53.36,0,.72.17,1.07.52.05.06.3.22,1.38.51,1.2.33,1.49.6,1.61.78.15.15.45.24.84.24.42,0,.88.17,1.38.5,1,.5,3.46.76,7.28.76,4.83,0,6.24-.4,6.57-.74.35-.35.67-.52.96-.52.02,0,.1-.02.33-.19.22-.16.58-.48,1.16-1.05.86-.86,1.44-1.55,1.73-2.06.23-.47.63-.99,1.18-1.54l4.45-4.44c2.02-2.03,2.32-2.77,2.32-3.03,0-.41-.15-.79-.46-1.17-.29-.36-.6-.54-.9-.54ZM15.46,42.79c-.27.4-.41,1.05-.41,1.91s-.07,1.71-.57,1.71c-.23,0-.47-.2-1-1.2-.39-.74-.53-.93-.58-.98h0c-.39-.2-.59-.5-.59-.9,0-.21-.02-.3-.04-.34-.22-.02-.43-.24-.86-1.88-.78-2.78-1.15-4.44-1.15-5.07,0-1.65-.26-2.02-.37-2.1-.26-.27-.54-.96-.54-4.18,0-2.41.15-3.9.48-4.55.28-.57.43-1.11.43-1.6,0-.66.17-1.24.49-1.73.4-.6.42-.76.42-.78,0-.22.08-.69.76-2.21.68-1.51.98-1.85,1.17-1.98.14-.09.42-.37.96-1.19,2.52-3.46,3.53-3.86,4.07-3.86l.1.02c.3.15.36.35.36.49,0,.13-.06.32-.45.83-.29.37-.47.59-.59.7l-.28.29c-.07.07-.23.3-.46,1.1-.27.92-.46,1.18-.57,1.29-.09.21-.27,2.21-.27,12.84,0,12.74-.36,13.18-.51,13.37ZM28.85,45.96c-.12,8.92-.47,9.1-.7,9.21-.09.07-.22.1-.37.1-.29,0-.68-.13-1.2-.38-.92-.47-1.12-.49-1.15-.49-.6-.08-1.05-.23-1.38-.44-.28-.17-.63-.29-1.05-.37-.88-.15-2.22-.87-4.09-2.2-2.51-1.78-2.83-2.44-2.83-2.81,0-.17,0-.36,1.98-1.62,1.72-1.09,2.22-1.23,2.46-1.23.19,0,.72-.17,2.21-1.27,1.62-1.21,1.67-1.55,1.67-1.58,0-.1,0-.19.73-1.17.27-.41.49-1.26.64-2.51,0-.21.02-.53.06-.91.03-.38.07-.69.11-.93.04-.2.06-.34.06-.41l.02-.1c.12-.24.45-.37,1.1-.42.58-.04,1.03.03,1.38.2l.06.04c.11.12.29.3.29,4.72v4.57ZM28.96,27.6h-3.08V11.29h1.03c.42,0,.89.16,1.38.49h.02c.21.18.65.54.65,8.18v7.64Z"/>
    </g>
  </g>
</svg>