<?xml version="1.0" encoding="UTF-8"?>
<svg id="Layer_2" data-name="Layer 2" xmlns="http://www.w3.org/2000/svg" viewBox="0 0 504.38 69">
  <defs>
    <style>
      .cls-1 {
        fill: #fff;
      }
    </style>
  </defs>
  <g id="Layer_1-2" data-name="Layer 1">
    <g>
      <g>
        <path class="cls-1" d="M11.22.65c.66-.27,2.16-.4,4.49-.4,2.13,0,3.92.13,5.38.4,1.33.27,3.06.4,5.18.4,2.46,0,3.85.13,4.19.4.33.27,2.62.4,6.88.4,3.26,0,5.28.05,6.08.15.8.1,1.2.38,1.2.85,0,.14-.37.57-1.1,1.3-.67.66-1.4,1.53-2.19,2.59-.73.93-1.16,1.39-1.3,1.39s-.33.27-.6.8c-.2.47-.7,1.16-1.5,2.09l-1.1,1.2-1.99.1h-2.09l-.1,8.77v3.49c0,2.93.13,4.87.4,5.83.27.96.4,3.74.4,8.32v7.98h1.4c.93,0,2.16-.41,3.69-1.25,1.53-.83,2.66-1.61,3.39-2.34.8-.8,1.36-1.2,1.69-1.2.2,0,.45.27.75.8.3.53.45.96.45,1.3,0,.07-.8.96-2.39,2.69-1.13,1.13-2.11,2.19-2.94,3.19s-1.81,2.06-2.94,3.19c-1.73,1.73-3.01,2.74-3.84,3.04-.83.3-2.91.45-6.23.45-3.66,0-5.52-.07-5.58-.2-.13-.2-.37-.3-.7-.3-.73,0-2.03-.4-3.89-1.2s-3.32-1.6-4.39-2.39c-1.53-1.13-3.03-2.54-4.49-4.24-1.46-1.69-2.49-3.34-3.09-4.93-.13-.33-.3-.68-.5-1.05-.2-.36-.35-.68-.45-.95-.1-.27-.15-.56-.15-.9,0-.4-.1-.63-.3-.7-.13-.13-.2-.53-.2-1.2s-.13-1.2-.4-1.6c-.27-.26-.4-1.36-.4-3.29,0-1.4.1-2.29.3-2.69.2-.27.36-.9.5-1.89.2-1.66.63-3.32,1.3-4.99.8-1.79,1.58-3.24,2.34-4.34.76-1.1,2.04-2.64,3.84-4.64.46-.53.9-1.03,1.3-1.5.4-.46.66-.76.8-.9.13-.13.31-.32.55-.55.23-.23.46-.41.7-.55.23-.13.61-.36,1.15-.7.46-.27.81-.48,1.05-.65.23-.16.32-.28.25-.35-2.06-.53-3.76-.8-5.09-.8-.8,0-1.33.14-1.6.4-.2.27-.66.4-1.4.4s-1.43.17-2.09.5-1.1.5-1.3.5c-.07,0-.63.53-1.69,1.6-.93,1-1.6,1.5-1.99,1.5s-.6-.2-.6-.6c0-.26.36-1.26,1.1-2.99.86-2.13,2.26-4.22,4.19-6.28,1.93-2.06,3.42-3.09,4.49-3.09.26,0,.66-.13,1.2-.4ZM17.1,42.42c.13-.13.38-.36.75-.7.37-.33.57-.52.6-.55s.13-.22.3-.55c.16-.33.25-.58.25-.75s.03-.51.1-1.05c.07-.53.1-1.05.1-1.55v-2.14c0-3.26-.14-5.02-.4-5.28-.33-.33-.5-2.59-.5-6.78s.16-6.58.5-6.78c.26-.26.4-.56.4-.9,0-1.26.66-2.56,1.99-3.89l1-1.1h-1.3c-1,0-1.99.3-2.99.9-.53.27-1.33.9-2.39,1.89s-1.66,1.66-1.79,1.99c-.14.4-.23.6-.3.6-.2,0-.68.83-1.44,2.49-.76,1.66-1.15,2.73-1.15,3.19,0,.33-.14.63-.4.9-.27.27-.4,1.53-.4,3.79s.13,3.56.4,4.09c.06.13.13.38.2.75.06.37.1.58.1.65.2,1.46.8,3.16,1.79,5.08,1,1.93,2.06,3.39,3.19,4.39l1.4,1.3ZM30.16,11.42c-.2-.2-.58-.35-1.15-.45-.57-.1-.91-.05-1.05.15-.13.13-.2,2.06-.2,5.78,0,5.98.1,9.04.3,9.17.2.13.3,1.6.3,4.39,0,2.99-.2,4.89-.6,5.68-.6,1.26-1.65,2.49-3.14,3.69-1.5,1.2-2.84,2.13-4.04,2.79-1.2.67-1.79,1.1-1.79,1.3,0,.33,1.23.93,3.69,1.79.2.07.76.17,1.69.3.93.13,1.5.3,1.69.5s.96.3,2.29.3c1.86,0,2.86-.13,2.99-.4.07-.13.1-.9.1-2.29,0-4.65-.1-7.18-.3-7.58-.13-.13-.23-4.25-.3-12.36-.07-8.11-.23-12.36-.5-12.76Z"/>
        <path class="cls-1" d="M26.47,56.83c-5.64,0-5.71-.14-5.81-.34-.01-.02-.11-.16-.47-.16-.77,0-2.08-.4-3.99-1.22-1.87-.8-3.36-1.62-4.44-2.42-1.54-1.14-3.06-2.58-4.53-4.28-1.47-1.7-2.53-3.39-3.14-5.01-.12-.31-.29-.65-.48-1.02-.2-.37-.36-.7-.46-.98-.11-.29-.17-.62-.17-.99,0-.26-.05-.43-.13-.46l-.1-.06c-.13-.13-.27-.4-.27-1.38,0-.61-.12-1.1-.36-1.46-.19-.18-.44-.77-.44-3.43,0-1.45.11-2.36.33-2.8.14-.2.31-.63.47-1.82.2-1.67.64-3.37,1.31-5.05.81-1.81,1.6-3.29,2.37-4.39.77-1.11,2.03-2.63,3.86-4.66.46-.53.89-1.03,1.29-1.49.44-.51.68-.78.81-.91l.55-.55c.25-.25.5-.44.75-.59.23-.13.61-.36,1.14-.69.45-.26.79-.47,1.02-.63-1.88-.47-3.45-.7-4.68-.7-.9,0-1.27.18-1.42.33-.23.31-.75.47-1.57.47-.69,0-1.36.16-1.98.47-.81.41-1.16.5-1.34.52-.1.08-.44.38-1.59,1.53-1.31,1.41-1.87,1.57-2.17,1.57-.54,0-.85-.31-.85-.85,0-.21.13-.75,1.12-3.09.87-2.14,2.29-4.28,4.24-6.35,2-2.13,3.52-3.17,4.67-3.17.15,0,.47-.06,1.08-.37h.02c.7-.29,2.2-.43,4.58-.43,2.13,0,3.96.14,5.43.4,1.31.26,3.04.39,5.14.39,3.34,0,4.08.24,4.34.45.15.1,1.1.34,6.72.34,3.31,0,5.31.05,6.11.15,1.17.14,1.42.67,1.42,1.09,0,.17-.09.39-1.17,1.47-.65.65-1.38,1.51-2.17,2.57-1.17,1.48-1.34,1.49-1.49,1.49.03,0-.1.1-.38.66-.2.48-.71,1.18-1.53,2.15l-1.17,1.28-2.1.11h-1.86l-.1,8.53v3.49c0,2.89.13,4.83.39,5.77.27,1,.41,3.74.41,8.39v7.73h1.15c.88,0,2.09-.41,3.57-1.21,1.5-.82,2.62-1.59,3.33-2.3,1.14-1.14,1.61-1.27,1.87-1.27.31,0,.61.29.96.93.32.57.48,1.04.48,1.42,0,.14,0,.2-2.46,2.86-1.12,1.12-2.11,2.19-2.93,3.18-.83,1-1.83,2.08-2.96,3.21-1.77,1.77-3.05,2.78-3.93,3.1-.87.31-2.94.46-6.32.46ZM21.06,56.19c.24.06,1.29.14,5.42.14,3.28,0,5.34-.15,6.15-.43.79-.29,2.05-1.29,3.75-2.98,1.12-1.12,2.1-2.18,2.93-3.17.84-1,1.83-2.08,2.96-3.21,1.72-1.87,2.2-2.42,2.32-2.58-.02-.28-.16-.65-.42-1.11-.36-.64-.53-.67-.53-.67-.12,0-.5.11-1.52,1.12-.74.74-1.9,1.55-3.45,2.39-1.58.86-2.83,1.28-3.81,1.28h-1.65v-8.23c0-4.54-.13-7.32-.39-8.26-.27-.99-.41-2.92-.41-5.9v-3.49l.1-9.02h2.34l1.88-.09,1.03-1.12c.77-.9,1.26-1.58,1.45-2.02.35-.7.57-.95.83-.95-.01-.01.22-.18,1.1-1.3.8-1.07,1.55-1.95,2.21-2.62.89-.89,1.01-1.11,1.03-1.16,0-.08,0-.44-.98-.56-.78-.1-2.81-.15-6.05-.15-6.47,0-6.86-.32-7.03-.45-.13-.1-.79-.34-4.03-.34-2.13,0-3.89-.14-5.23-.4-1.44-.26-3.24-.39-5.34-.39-2.27,0-3.75.13-4.38.38-.57.28-.99.42-1.3.42-.99,0-2.44,1.01-4.3,3.01-1.9,2.03-3.29,4.12-4.14,6.2-.97,2.3-1.08,2.79-1.08,2.9,0,.26.09.35.35.35.18,0,.66-.18,1.81-1.42,1.67-1.67,1.74-1.67,1.88-1.67.06,0,.31-.03,1.18-.47.7-.35,1.44-.53,2.21-.53.85,0,1.11-.19,1.2-.3.34-.34.92-.5,1.79-.5,1.34,0,3.07.27,5.15.81l.07.02.05.05c.07.07.1.16.09.26-.01.15-.12.29-.38.47-.24.17-.6.4-1.07.66-.53.33-.92.57-1.15.7-.21.12-.43.29-.64.51l-.55.55c-.12.12-.36.39-.79.88-.4.47-.83.96-1.3,1.5-1.79,1.99-3.08,3.54-3.82,4.61-.75,1.07-1.53,2.52-2.32,4.29-.65,1.63-1.08,3.28-1.28,4.91-.14,1.07-.32,1.71-.55,2.01-.1.21-.25.86-.25,2.54,0,2.59.25,3.04.32,3.11.33.48.47,1.06.47,1.77s.07.92.11.99c.26.13.39.43.39.9,0,.3.05.57.13.81.1.26.24.57.43.92.21.39.38.74.51,1.08.59,1.57,1.61,3.21,3.05,4.86,1.44,1.67,2.94,3.08,4.45,4.2,1.04.78,2.5,1.58,4.34,2.36,1.82.78,3.1,1.18,3.79,1.18.39,0,.68.12.87.35ZM28.17,47.06c-1.85,0-2.28-.19-2.47-.37-.07-.07-.37-.26-1.55-.43-1.27-.18-1.6-.26-1.74-.31-3.56-1.25-3.86-1.69-3.86-2.03,0-.24.15-.53,1.92-1.52,1.17-.65,2.52-1.58,4-2.77,1.46-1.17,2.49-2.38,3.07-3.6.38-.76.57-2.64.57-5.58,0-3.47-.16-4.1-.22-4.22-.15-.09-.37-.24-.37-9.35,0-5.69.14-5.83.27-5.96.17-.25.59-.34,1.27-.22.62.11,1.04.28,1.28.52l.03.04c.13.2.44.66.54,12.9.08,9.98.2,11.97.27,12.25h0c.09.18.33.66.33,7.7,0,2.15-.08,2.31-.13,2.4-.13.26-.5.54-3.22.54ZM19.06,43.93c.12.14.7.57,3.5,1.55.12.04.51.13,1.65.29,1.31.19,1.67.4,1.84.57.04.04.32.23,2.12.23,2.39,0,2.73-.23,2.78-.27,0-.03.07-.35.07-2.17,0-6.02-.17-7.26-.27-7.47h0c-.12-.27-.24-1.66-.33-12.47-.08-10.16-.31-12.28-.45-12.61-.12-.11-.4-.25-.99-.35-.67-.12-.79.02-.8.04-.06.14-.16,1.08-.16,5.64,0,7.11.14,8.71.24,9,.17.15.36.65.36,4.56,0,3.06-.2,4.95-.62,5.79-.61,1.29-1.69,2.56-3.21,3.77-1.51,1.21-2.88,2.15-4.07,2.81-1.24.69-1.56.98-1.65,1.08ZM17.1,42.77l-1.57-1.46c-1.14-1.01-2.23-2.51-3.24-4.46-1.01-1.94-1.62-3.68-1.82-5.16,0-.07-.02-.2-.1-.64-.08-.44-.15-.62-.18-.68-.28-.57-.42-1.94-.42-4.2,0-3.08.24-3.73.47-3.97.22-.22.33-.46.33-.72,0-.51.38-1.58,1.17-3.3,1.02-2.21,1.35-2.57,1.56-2.63.03-.05.08-.18.17-.44.1-.25.39-.72,1.86-2.1,1.09-1.02,1.89-1.65,2.45-1.93,1.01-.61,2.06-.92,3.1-.92h1.86l-1.38,1.51c-1.28,1.28-1.93,2.53-1.93,3.72,0,.4-.16.76-.47,1.07-.15.16-.43,1.09-.43,6.6s.3,6.46.43,6.6c.15.15.47.48.47,5.46v2.14c0,.5-.03,1.03-.1,1.58-.08.66-.1.92-.1,1.01,0,.21-.09.48-.28.86-.26.53-.31.58-.35.62s-.24.22-.61.56c-.36.33-.61.56-.74.69l-.17.17ZM13.46,16.05c-.09.07-.4.45-1.27,2.35-.93,2.02-1.12,2.79-1.12,3.09,0,.4-.16.76-.47,1.07-.08.08-.33.56-.33,3.61,0,2.67.2,3.64.37,3.98.08.16.15.43.22.81.09.49.1.62.1.69.19,1.39.79,3.08,1.77,4.97.98,1.89,2.03,3.35,3.13,4.32l1.23,1.14c.14-.13.33-.31.58-.54.36-.33.56-.51.59-.54h0s.05-.08.25-.48c.19-.39.22-.57.22-.64,0-.23.05-.71.1-1.08.07-.53.1-1.04.1-1.51v-2.14c0-4.36-.25-5.01-.33-5.11-.28-.28-.57-1.32-.57-6.95,0-6.63.39-6.86.62-7,.17-.18.28-.42.28-.68,0-1.33.7-2.69,2.07-4.07l.61-.67h-.73c-.95,0-1.91.29-2.86.86-.53.27-1.31.89-2.35,1.86-1.35,1.27-1.67,1.74-1.73,1.9-.16.48-.28.72-.48.75Z"/>
      </g>
      <g>
        <path class="cls-1" d="M57.58,12.71c.4-.2.7-.3.9-.3.4,0,.63.48.7,1.45.06.96.1,3.34.1,7.13,0,5.32.1,7.98.3,7.98s.36-.06.5-.2c.27-.26,1.6-1.33,3.99-3.19.73-.6,1.36-.9,1.89-.9.46,0,1.06.27,1.79.8.4.33,1.63,1.16,3.69,2.49,1.93,1.26,2.89,2.06,2.89,2.39,0,.13-.33.53-1,1.2l-.1,11.07-.2,11.07-.8,1.7c-1.2,2.33-3.29,4.59-6.28,6.78-3.06,1.99-5.09,2.99-6.08,2.99h-.1c-.07-.06-.14-.1-.2-.1-.6-.4-.2-1.13,1.2-2.19,1.73-1.33,3.02-3.12,3.89-5.38l.7-1.79v-22.53l-.8-.9c-.33-.46-1-.96-1.99-1.5l-1.3-.6-1,.5-.9.6-.1,9.27c0,6.32.07,9.57.2,9.77.27.4.66.7,1.2.9.6.27.9.5.9.7,0,.27-1.06,1.26-3.19,2.99-.73.6-1.33,1.2-1.79,1.79-.47.6-.83.9-1.1.9-.33,0-.9-.4-1.7-1.2-.86-.86-1.36-1.3-1.5-1.3-.07,0-.53-.3-1.4-.9s-1.3-1.2-1.3-1.79c0-.27.03-.48.1-.65.07-.16.13-.3.2-.4.07-.1.18-.22.35-.35.16-.13.31-.3.45-.5l.7-.9v-26.82l-.1-3.39-1-1.69c-.66-1.06-.9-1.79-.7-2.19.33-.6.83-.56,1.5.1.46.47.9.63,1.3.5.33-.13,1.13-.6,2.39-1.39,1.26-.8,1.96-1.3,2.09-1.5s.37-.36.7-.5Z"/>
        <path class="cls-1" d="M59.87,65.41h-.2l-.07-.07h-.08l-.09-.07c-.3-.2-.38-.46-.38-.63-.02-.52.48-1.14,1.56-1.97,1.68-1.29,2.96-3.07,3.81-5.28l.68-1.75v-22.39l-.73-.83c-.33-.45-.97-.93-1.93-1.44l-1.17-.54-.89.45-.76.51-.1,9.14c0,7.55.09,9.42.17,9.66.22.32.57.59,1.06.77.75.33,1.06.61,1.06.93,0,.21,0,.52-3.28,3.18-.71.58-1.3,1.17-1.76,1.75-.53.68-.94.99-1.29.99-.42,0-.99-.39-1.87-1.27-1.06-1.06-1.31-1.21-1.37-1.23-.06.01-.14,0-1.49-.93-.93-.64-1.4-1.32-1.4-2,0-.3.04-.54.12-.74.07-.18.15-.33.22-.45.08-.12.21-.26.4-.41.14-.12.28-.26.39-.44l.66-.85v-26.73l-.1-3.32-.96-1.64c-.73-1.16-.95-1.94-.71-2.43.18-.33.42-.52.7-.55.36-.05.75.14,1.2.59.39.39.74.54,1.04.44.3-.12,1.09-.58,2.34-1.37,1.71-1.08,1.98-1.36,2.02-1.42.16-.24.43-.43.8-.59.44-.22.76-.32,1-.32.83,0,.92,1.26.95,1.68.07,1,.1,3.4.1,7.15,0,5.61.11,7.26.2,7.71.06-.02.12-.05.17-.1.28-.28,1.63-1.36,4.01-3.21.78-.64,1.45-.95,2.05-.95.52,0,1.16.28,1.94.85.4.33,1.63,1.16,3.68,2.48,2.64,1.73,3.01,2.28,3.01,2.6,0,.16-.08.37-1,1.3l-.1,10.96-.22,11.17-.8,1.7c-1.21,2.36-3.35,4.67-6.36,6.87-3.14,2.05-5.17,3.04-6.23,3.04ZM59.86,64.91h0c.94,0,2.95-.99,5.95-2.95,2.94-2.15,5.02-4.41,6.2-6.68l.77-1.64.2-11.01.1-11.17.07-.07c.82-.82.92-1.02.93-1.06-.03-.06-.29-.51-2.78-2.15-2.09-1.35-3.31-2.17-3.71-2.51-.67-.49-1.23-.74-1.63-.74-.47,0-1.05.28-1.74.84-2.96,2.3-3.79,2.99-3.97,3.17-.18.18-.41.27-.67.27-.35,0-.55,0-.55-8.23,0-3.68-.03-6.14-.1-7.11-.05-.76-.22-1.21-.45-1.21-.11,0-.33.05-.79.27h-.02c-.28.12-.48.26-.58.41-.11.16-.45.49-2.17,1.57-1.29.82-2.09,1.28-2.43,1.42-.51.17-1.03-.02-1.57-.55-.32-.32-.59-.47-.78-.45-.12.02-.22.11-.32.29-.08.17-.11.66.69,1.94l1.04,1.82.1,3.39v26.91l-.75.97c-.14.21-.3.39-.49.54-.18.15-.26.24-.3.29-.06.09-.12.21-.18.35-.05.13-.08.32-.08.55,0,.51.4,1.04,1.19,1.59.96.66,1.22.82,1.3.85.14.01.4.14,1.63,1.37,1.01,1.01,1.4,1.12,1.52,1.12.05,0,.31-.04.9-.8.47-.61,1.09-1.23,1.83-1.83,2.65-2.16,3.05-2.69,3.1-2.82,0,0-.08-.14-.75-.44-.57-.21-1.01-.55-1.3-.99-.1-.14-.24-.36-.24-9.91l.1-9.41,1.01-.67,1.13-.57,1.41.65c1.05.56,1.73,1.07,2.09,1.58l.84.95-.02,22.72-.7,1.79c-.88,2.29-2.21,4.14-3.97,5.49-1.2.92-1.37,1.37-1.37,1.56,0,.05.02.12.11.2.07.01.13.04.19.09Z"/>
      </g>
      <g>
        <path class="cls-1" d="M94.37,49.3c.13,0,.41-.3.85-.9.43-.6.75-.9.95-.9.8,0,1.2.33,1.2,1,0,.27-1.12,1.51-3.34,3.74-2.23,2.23-3.47,3.34-3.74,3.34-.13,0-.33.27-.6.8-.53.86-1.06,1.03-1.6.5-.53-.53-1.93-1.33-4.19-2.39-.33-.13-.62-.3-.85-.5-.23-.2-.48-.36-.75-.5-.33-.2-.83-.51-1.5-.95-.67-.43-1.16-.71-1.5-.85-.4-.27-.63-.46-.7-.6-.07-.13.05-.35.35-.65.3-.3.51-.55.65-.75.33-.6.5-3.16.5-7.68s-.17-7.04-.5-7.58c-.33-.6-.6-.9-.8-.9-.4,0-.37-.3.1-.9.07-.13.13-.23.2-.3.07-.07.22-.2.45-.4.23-.2.41-.36.55-.5.33-.33.53-.5.6-.5.13,0,.46-.16,1-.5.53-.33.86-.56,1-.7l1.99-1.3c1.33-.93,1.99-1.43,1.99-1.5.07-.07.32-.23.75-.5.43-.27.83-.55,1.2-.85.37-.3.55-.48.55-.55.13-.13.3-.2.5-.2.27,0,.43-.1.5-.3,0-.07.27-.27.8-.6.53-.33.8-.53.8-.6s.16-.16.5-.3c.46-.13.8-.1,1,.1.13.13.63,1,1.5,2.59,1.26,2.33,2.06,3.69,2.39,4.09.33.33.5.57.5.7,0,.07.38.5,1.15,1.3.76.8,1.15,1.26,1.15,1.4,0,.2-.18.47-.55.8-.37.33-.62.5-.75.5-.2,0-.37.17-.5.5-.07.07-.22.17-.45.3-.23.13-.47.27-.7.4s-.35.23-.35.3c0,.13-.22.28-.65.45-.43.17-.65.35-.65.55s-.13.3-.4.3-.5.1-.7.3c-.13.13-1.3.96-3.49,2.49-1.73,1.13-2.71,1.86-2.94,2.19-.23.33-.35,1.1-.35,2.29,0,1.13.08,1.86.25,2.19.16.33.68.76,1.55,1.3.53.33,1,.7,1.4,1.1s.66.6.8.6c.2,0,.4.17.6.5.26.27.51.32.75.15.23-.16.5-.4.8-.7.3-.3.55-.45.75-.45ZM88.39,29.76c-.14-.46-.3-.7-.5-.7-.27,0-.4,1.63-.4,4.89,0,2.39.02,3.81.05,4.24.03.43.18.65.45.65s.53-.08.8-.25c.26-.16.5-.28.7-.35.53-.13.8-.23.8-.3,0-.13.27-.33.8-.6.6-.33.9-.73.9-1.2s-.2-.93-.6-1.39c-1.66-2.39-2.66-4.05-2.99-4.99Z"/>
        <path class="cls-1" d="M88.69,57.44c-.27,0-.53-.13-.78-.38-.51-.51-1.89-1.3-4.12-2.34-.34-.13-.65-.32-.9-.54-.22-.19-.45-.34-.7-.47-.35-.21-.85-.52-1.52-.96-.64-.42-1.13-.7-1.45-.82-.63-.41-.77-.6-.83-.72-.16-.32.15-.69.4-.93.28-.28.49-.52.62-.71.2-.37.46-1.99.46-7.54,0-5.83-.29-7.17-.46-7.45-.41-.73-.58-.78-.59-.78h0c-.29,0-.42-.13-.48-.25-.12-.24,0-.56.38-1.05.05-.11.13-.23.22-.32.07-.07.22-.21.46-.41.23-.19.4-.35.53-.48.49-.49.63-.57.77-.57.02,0,.19-.04.87-.46.52-.33.84-.55.95-.66l2.04-1.33c1.35-.94,1.76-1.27,1.88-1.38h0s.07-.09.07-.09c.06-.06.2-.17.79-.54.42-.26.81-.54,1.17-.83.31-.25.42-.37.46-.41v-.05l.07-.07c.18-.18.41-.27.67-.27.18,0,.23-.06.25-.1.02-.15.17-.29.91-.76.49-.31.65-.43.69-.48.06-.17.28-.29.64-.44.58-.17,1-.11,1.27.15.11.11.38.51,1.54,2.65,1.25,2.3,2.04,3.66,2.37,4.05.35.35.52.59.55.79.05.08.26.33,1.08,1.19,1.22,1.27,1.22,1.44,1.22,1.57,0,.28-.2.59-.63.98-.54.5-.77.56-.92.56-.08,0-.18.13-.27.34l-.06.08c-.05.05-.16.15-.5.34l-.7.4c-.14.08-.2.13-.23.15-.05.29-.43.47-.8.61-.47.18-.49.31-.49.32,0,.13-.05.55-.65.55-.2,0-.37.07-.52.23-.06.06-.22.22-3.52,2.52-2.12,1.38-2.73,1.92-2.88,2.13-.14.2-.3.73-.3,2.15s.12,1.88.22,2.08c.1.2.43.57,1.45,1.19.55.35,1.04.73,1.44,1.13.48.48.62.52.64.53h0c.28,0,.54.2.79.62.21.2.33.12.39.08.22-.15.47-.37.77-.67.34-.34.63-.51.89-.52.05-.03.22-.17.68-.8.51-.7.85-1,1.15-1,1.26,0,1.45.78,1.45,1.25,0,.2,0,.5-3.41,3.92-3.4,3.4-3.73,3.41-3.91,3.41.03,0-.1.1-.38.66-.36.59-.72.89-1.11.93-.03,0-.07,0-.1,0ZM78.85,51.02s.1.13.6.47c.31.12.81.4,1.49.84.66.43,1.16.74,1.49.94.27.14.53.31.78.52.21.18.48.34.78.46,2.32,1.09,3.71,1.89,4.27,2.45.17.17.32.24.47.23.22-.03.47-.26.73-.68.33-.66.55-.92.81-.92.11-.03.72-.43,3.56-3.27,2.84-2.84,3.23-3.46,3.27-3.59,0-.34-.12-.72-.95-.72,0,0-.2.04-.74.79-.61.84-.85,1-1.05,1-.06,0-.23.04-.57.38-.32.32-.59.55-.83.72-.2.14-.59.3-1.07-.18-.25-.4-.38-.42-.42-.42-.18,0-.42-.11-.97-.67-.38-.38-.83-.74-1.35-1.06-.93-.57-1.45-1.01-1.64-1.4-.19-.37-.28-1.12-.28-2.3,0-1.28.12-2.05.39-2.44.16-.23.65-.72,3.01-2.26,2.93-2.04,3.39-2.4,3.45-2.46.25-.25.54-.37.88-.37.12,0,.15-.02.15-.02,0-.49.61-.73.81-.81.43-.16.5-.26.5-.26-.01-.15.17-.3.46-.47l.7-.4c.21-.12.32-.19.36-.23.17-.4.41-.6.71-.6,0,0,.14-.03.58-.43.44-.4.47-.58.47-.61-.01,0-.14-.25-1.08-1.22-1.22-1.27-1.22-1.34-1.22-1.47,0,0-.04-.13-.43-.52-.36-.43-1.16-1.78-2.44-4.14-1.11-2.04-1.39-2.47-1.45-2.54-.16-.16-.5-.11-.75-.03-.2.08-.3.13-.33.16-.05.13-.24.3-.9.71-.51.32-.66.44-.7.48-.06.18-.24.45-.73.45-.11,0-.2.03-.28.09-.06.12-.22.28-.61.6-.37.3-.78.6-1.22.87-.48.29-.64.41-.68.45-.13.17-.57.5-2.05,1.54l-2,1.3c-.11.11-.43.34-1,.7-.67.42-.93.52-1.08.53-.04.03-.16.12-.47.43-.14.14-.33.31-.56.51-.23.19-.37.32-.43.39-.03.03-.09.1-.15.23-.23.3-.31.46-.33.54.31-.03.62.3,1.03,1.03.22.36.53,1.56.53,7.7s-.3,7.39-.53,7.8c-.16.24-.39.5-.69.8-.28.28-.29.39-.29.39h0ZM87.99,39.09c-.24,0-.64-.11-.7-.88-.04-.44-.05-1.79-.05-4.26,0-5.14.32-5.14.65-5.14.48,0,.67.65.74.87.32.9,1.32,2.56,2.96,4.92.42.49.64,1.01.64,1.54,0,.56-.34,1.04-1.03,1.42-.59.29-.67.42-.68.43.01.2-.24.3-.98.49-.16.05-.38.16-.63.32-.31.19-.62.29-.93.29ZM87.96,29.39c-.09.33-.22,1.36-.22,4.56,0,2.42.02,3.8.05,4.22.03.42.16.42.2.42.22,0,.44-.07.67-.21.28-.18.54-.3.75-.37.41-.1.58-.17.65-.2.08-.21.35-.41.91-.69.51-.28.76-.6.76-.97,0-.4-.18-.82-.54-1.23-1.71-2.46-2.7-4.11-3.04-5.07h0c-.07-.26-.14-.39-.19-.46Z"/>
      </g>
      <g>
        <path class="cls-1" d="M138.34.65c.66-.27,2.16-.4,4.49-.4,2.13,0,3.92.13,5.38.4,1.33.27,3.06.4,5.18.4,2.46,0,3.85.13,4.19.4.33.27,2.62.4,6.88.4,3.26,0,5.28.05,6.08.15.8.1,1.2.38,1.2.85,0,.14-.37.57-1.1,1.3-.67.66-1.4,1.53-2.19,2.59-.73.93-1.16,1.39-1.3,1.39s-.33.27-.6.8c-.2.47-.7,1.16-1.5,2.09l-1.1,1.2-1.99.1h-2.09l-.1,8.77v3.49c0,2.93.13,4.87.4,5.83.27.96.4,3.74.4,8.32v7.98h1.4c.93,0,2.16-.41,3.69-1.25,1.53-.83,2.66-1.61,3.39-2.34.8-.8,1.36-1.2,1.69-1.2.2,0,.45.27.75.8.3.53.45.96.45,1.3,0,.07-.8.96-2.39,2.69-1.13,1.13-2.11,2.19-2.94,3.19s-1.81,2.06-2.94,3.19c-1.73,1.73-3.01,2.74-3.84,3.04-.83.3-2.91.45-6.23.45-3.66,0-5.52-.07-5.58-.2-.13-.2-.37-.3-.7-.3-.73,0-2.03-.4-3.89-1.2s-3.32-1.6-4.39-2.39c-1.53-1.13-3.03-2.54-4.49-4.24-1.46-1.69-2.49-3.34-3.09-4.93-.13-.33-.3-.68-.5-1.05-.2-.36-.35-.68-.45-.95-.1-.27-.15-.56-.15-.9,0-.4-.1-.63-.3-.7-.13-.13-.2-.53-.2-1.2s-.13-1.2-.4-1.6c-.27-.26-.4-1.36-.4-3.29,0-1.4.1-2.29.3-2.69.2-.27.36-.9.5-1.89.2-1.66.63-3.32,1.3-4.99.8-1.79,1.58-3.24,2.34-4.34.76-1.1,2.04-2.64,3.84-4.64.46-.53.9-1.03,1.3-1.5.4-.46.66-.76.8-.9.13-.13.31-.32.55-.55.23-.23.46-.41.7-.55.23-.13.61-.36,1.15-.7.46-.27.81-.48,1.05-.65.23-.16.32-.28.25-.35-2.06-.53-3.76-.8-5.09-.8-.8,0-1.33.14-1.6.4-.2.27-.66.4-1.4.4s-1.43.17-2.09.5-1.1.5-1.3.5c-.07,0-.63.53-1.69,1.6-.93,1-1.6,1.5-1.99,1.5s-.6-.2-.6-.6c0-.26.36-1.26,1.1-2.99.86-2.13,2.26-4.22,4.19-6.28,1.93-2.06,3.42-3.09,4.49-3.09.26,0,.66-.13,1.2-.4ZM144.22,42.42c.13-.13.38-.36.75-.7.37-.33.57-.52.6-.55s.13-.22.3-.55c.16-.33.25-.58.25-.75s.03-.51.1-1.05c.07-.53.1-1.05.1-1.55v-2.14c0-3.26-.14-5.02-.4-5.28-.33-.33-.5-2.59-.5-6.78s.16-6.58.5-6.78c.26-.26.4-.56.4-.9,0-1.26.66-2.56,1.99-3.89l1-1.1h-1.3c-1,0-1.99.3-2.99.9-.53.27-1.33.9-2.39,1.89s-1.66,1.66-1.79,1.99c-.14.4-.23.6-.3.6-.2,0-.68.83-1.44,2.49-.76,1.66-1.15,2.73-1.15,3.19,0,.33-.14.63-.4.9-.27.27-.4,1.53-.4,3.79s.13,3.56.4,4.09c.06.13.13.38.2.75.06.37.1.58.1.65.2,1.46.8,3.16,1.79,5.08,1,1.93,2.06,3.39,3.19,4.39l1.4,1.3ZM157.28,11.42c-.2-.2-.58-.35-1.15-.45-.57-.1-.91-.05-1.05.15-.13.13-.2,2.06-.2,5.78,0,5.98.1,9.04.3,9.17.2.13.3,1.6.3,4.39,0,2.99-.2,4.89-.6,5.68-.6,1.26-1.65,2.49-3.14,3.69-1.5,1.2-2.84,2.13-4.04,2.79-1.2.67-1.79,1.1-1.79,1.3,0,.33,1.23.93,3.69,1.79.2.07.76.17,1.69.3.93.13,1.5.3,1.69.5s.96.3,2.29.3c1.86,0,2.86-.13,2.99-.4.07-.13.1-.9.1-2.29,0-4.65-.1-7.18-.3-7.58-.13-.13-.23-4.25-.3-12.36-.07-8.11-.23-12.36-.5-12.76Z"/>
        <path class="cls-1" d="M153.59,56.83c-5.64,0-5.71-.14-5.81-.34-.01-.02-.11-.16-.47-.16-.77,0-2.08-.4-3.99-1.22-1.87-.8-3.37-1.62-4.44-2.42-1.54-1.14-3.06-2.58-4.53-4.28-1.47-1.71-2.53-3.39-3.13-5.01-.13-.32-.29-.66-.49-1.02-.2-.37-.36-.7-.46-.98-.11-.29-.17-.62-.17-.99,0-.26-.05-.43-.13-.46l-.1-.06c-.13-.13-.27-.4-.27-1.38,0-.61-.12-1.1-.36-1.46-.19-.18-.44-.77-.44-3.43,0-1.45.11-2.36.33-2.8.14-.2.31-.63.47-1.82.2-1.67.64-3.37,1.31-5.05.81-1.81,1.6-3.29,2.37-4.39.77-1.1,2.03-2.63,3.86-4.66l.07-.08c.44-.5.84-.97,1.22-1.41.43-.5.68-.78.81-.91l.55-.55c.24-.24.5-.44.75-.59.23-.13.61-.36,1.14-.69.45-.26.79-.47,1.02-.63-1.88-.47-3.45-.7-4.68-.7-.9,0-1.27.18-1.42.33-.23.31-.75.47-1.57.47-.69,0-1.36.16-1.98.47-.81.41-1.15.5-1.34.52-.1.08-.45.38-1.59,1.53-1.31,1.41-1.87,1.57-2.17,1.57-.54,0-.85-.31-.85-.85,0-.21.13-.75,1.12-3.09.87-2.14,2.3-4.28,4.24-6.35,2-2.13,3.52-3.17,4.67-3.17.15,0,.47-.06,1.08-.37h.02c.7-.29,2.2-.43,4.58-.43,2.13,0,3.95.14,5.43.4,1.31.26,3.04.39,5.14.39,3.34,0,4.08.24,4.34.45.15.1,1.1.34,6.72.34,3.31,0,5.31.05,6.11.15,1.17.14,1.42.67,1.42,1.09,0,.17-.09.39-1.17,1.47-.65.65-1.38,1.51-2.17,2.57-1.17,1.49-1.34,1.49-1.49,1.49.03,0-.1.1-.38.66-.2.48-.71,1.18-1.53,2.15l-1.17,1.28-2.1.11h-1.86l-.1,8.53v3.49c0,2.89.13,4.83.39,5.77.27,1,.41,3.74.41,8.39v7.73h1.15c.88,0,2.09-.41,3.57-1.21,1.5-.82,2.62-1.59,3.33-2.3.88-.88,1.46-1.27,1.87-1.27.31,0,.61.29.97.93.32.57.48,1.04.48,1.42,0,.14,0,.2-2.46,2.86-1.13,1.13-2.11,2.2-2.93,3.18-.84,1.01-1.83,2.08-2.96,3.21-1.77,1.77-3.05,2.78-3.93,3.1-.87.31-2.94.46-6.32.46ZM148.18,56.19c.24.06,1.29.14,5.42.14,3.28,0,5.34-.15,6.15-.43.79-.29,2.05-1.29,3.75-2.98,1.11-1.11,2.1-2.18,2.93-3.17.83-1,1.82-2.08,2.96-3.21,1.72-1.87,2.2-2.42,2.32-2.58-.02-.28-.16-.65-.41-1.11-.36-.64-.53-.67-.53-.67-.12,0-.5.11-1.52,1.12-.74.74-1.9,1.55-3.45,2.39-1.56.85-2.84,1.28-3.81,1.28h-1.65v-8.23c0-4.54-.13-7.32-.39-8.26-.27-.98-.41-2.97-.41-5.9v-3.49l.1-9.02h2.34l1.88-.09,1.03-1.12c.77-.9,1.26-1.59,1.45-2.02.34-.7.57-.95.83-.95-.02,0,.2-.15,1.1-1.3.8-1.07,1.55-1.95,2.21-2.62.89-.89,1.01-1.11,1.03-1.16,0-.08,0-.44-.98-.56-.78-.1-2.81-.15-6.05-.15-6.47,0-6.87-.32-7.04-.45-.13-.1-.78-.34-4.03-.34-2.13,0-3.89-.14-5.23-.4-1.44-.26-3.24-.39-5.34-.39-2.27,0-3.75.13-4.39.38-.57.28-.99.42-1.3.42-.99,0-2.44,1.01-4.3,3.01-1.9,2.03-3.29,4.12-4.14,6.2-.97,2.3-1.08,2.79-1.08,2.9,0,.26.09.35.35.35.18,0,.66-.18,1.81-1.42,1.67-1.67,1.74-1.67,1.88-1.67.07,0,.33-.05,1.18-.47.7-.35,1.44-.53,2.21-.53.85,0,1.11-.19,1.2-.3.34-.35.92-.5,1.8-.5,1.34,0,3.07.27,5.15.81l.07.02.05.05c.07.07.1.16.09.26-.01.15-.13.29-.38.47-.24.17-.6.4-1.07.66-.53.33-.91.57-1.15.7-.21.12-.43.29-.64.51l-.55.55c-.12.12-.37.4-.79.88-.38.44-.79.91-1.22,1.42l-.07.08c-1.79,1.99-3.08,3.54-3.82,4.61-.75,1.07-1.53,2.52-2.32,4.29-.65,1.62-1.08,3.28-1.28,4.91-.14,1.07-.32,1.71-.55,2.01-.1.21-.25.86-.25,2.54,0,2.59.25,3.04.32,3.11.33.48.47,1.06.47,1.77s.07.92.11.99c.26.13.39.43.39.9,0,.3.04.58.13.81.1.26.24.57.43.92.2.37.38.73.51,1.08.59,1.57,1.61,3.2,3.05,4.86,1.44,1.67,2.93,3.08,4.45,4.2,1.04.78,2.5,1.58,4.34,2.36,1.82.78,3.1,1.18,3.79,1.18.39,0,.68.12.87.35ZM155.29,47.06c-1.85,0-2.29-.19-2.47-.37-.07-.07-.37-.26-1.55-.43-1.27-.18-1.6-.26-1.74-.31-3.56-1.25-3.86-1.69-3.86-2.03,0-.23.15-.53,1.92-1.52,1.17-.64,2.51-1.58,4.01-2.77,1.46-1.17,2.49-2.38,3.07-3.6.38-.76.57-2.64.57-5.57,0-3.47-.16-4.1-.22-4.22-.15-.09-.37-.24-.37-9.35,0-5.69.14-5.83.27-5.96.17-.26.59-.34,1.27-.22.62.11,1.04.28,1.28.52l.03.04c.13.2.44.66.54,12.9.08,9.97.2,11.97.27,12.25h0c.09.19.33.66.33,7.7,0,2.15-.08,2.31-.13,2.4-.13.26-.5.54-3.21.54ZM146.18,43.93c.12.14.7.57,3.5,1.55.12.04.51.13,1.65.29,1.31.19,1.67.4,1.84.57.04.04.32.23,2.12.23,2.39,0,2.73-.23,2.78-.27,0-.03.07-.35.07-2.17,0-6.02-.17-7.26-.27-7.47h0c-.12-.27-.24-1.67-.33-12.47-.08-10.17-.31-12.29-.45-12.61-.12-.11-.39-.25-.99-.35-.67-.12-.79.02-.8.04-.05.14-.16,1.08-.16,5.64,0,7.11.14,8.71.24,9,.17.15.36.65.36,4.56,0,3.06-.2,4.95-.62,5.79-.61,1.29-1.69,2.56-3.21,3.77-1.51,1.21-2.88,2.16-4.08,2.81-1.24.69-1.56.98-1.65,1.08ZM144.22,42.77l-1.57-1.46c-1.14-1.01-2.23-2.51-3.24-4.46-1.01-1.94-1.62-3.68-1.82-5.16,0-.07-.02-.2-.1-.64-.08-.44-.15-.62-.18-.68-.28-.57-.42-1.94-.42-4.2,0-3.08.24-3.73.47-3.97.22-.22.33-.46.33-.72,0-.51.38-1.58,1.17-3.3,1.02-2.21,1.35-2.57,1.56-2.63.03-.06.09-.18.17-.44.1-.25.39-.72,1.86-2.1,1.09-1.02,1.89-1.65,2.45-1.93,1.01-.61,2.06-.92,3.1-.92h1.86l-1.38,1.51c-1.28,1.28-1.93,2.53-1.93,3.72,0,.4-.16.76-.47,1.07-.15.16-.43,1.08-.43,6.6s.3,6.46.43,6.6c.15.15.47.48.47,5.46v2.14c0,.5-.03,1.03-.1,1.58-.08.66-.1.92-.1,1.02,0,.21-.09.48-.28.86-.27.53-.31.58-.35.62-.03.03-.23.22-.61.56-.36.33-.61.56-.74.69l-.17.17ZM140.58,16.05c-.09.07-.4.45-1.27,2.35-.93,2.02-1.12,2.79-1.12,3.09,0,.4-.16.76-.47,1.07-.08.08-.33.56-.33,3.61,0,2.67.2,3.64.37,3.98.08.16.15.43.22.81.09.49.1.62.1.69.19,1.4.79,3.08,1.77,4.97.98,1.89,2.03,3.35,3.13,4.32l1.23,1.14c.14-.13.34-.31.58-.54.36-.32.55-.5.59-.54h0s.05-.08.26-.49c.19-.39.22-.57.22-.64,0-.24.06-.72.1-1.08.06-.53.1-1.04.1-1.51v-2.14c0-4.36-.25-5.01-.33-5.11-.28-.28-.57-1.32-.57-6.95,0-6.63.39-6.86.62-7,.17-.18.28-.42.28-.68,0-1.33.7-2.69,2.07-4.07l.61-.67h-.73c-.95,0-1.91.29-2.86.86-.53.27-1.31.89-2.35,1.86-1.35,1.27-1.67,1.74-1.73,1.9-.16.48-.28.72-.48.75Z"/>
      </g>
      <g>
        <path class="cls-1" d="M188.48,22.78c.07-.2.35-.27.85-.2.5.07.81.23.95.5.2.33.43.5.7.5s.4.07.4.2c0,.2.06.3.2.3.33,0,1.73.83,4.19,2.49.93.66,1.73,1.1,2.39,1.3.86.2,1.3.57,1.3,1.1,0,.33-.17.76-.5,1.3-.33.53-.5,3.82-.5,9.87s-.07,9.01-.2,9.27c-.13.14-.3.2-.5.2s-.3.1-.3.3c0,.13-.17.2-.5.2s-.93.23-1.79.7c-.86.47-1.53.9-1.99,1.3-.66.53-1.03.8-1.1.8l-.6.4c-.07.14-.47.47-1.2,1-.13.14-.46.43-1,.9s-.9.8-1.1,1c-1.2,1.13-1.96,1.43-2.29.9-.47-.73-2.09-1.79-4.89-3.19l-2.79-1.39c-1.33-.66-1.99-1.26-1.99-1.79,0-.2.1-.5.3-.9.27-.53.4-3.85.4-9.97v-8.97l.9-.9c.53-.53,1.13-.96,1.79-1.3.66-.33,2.72-1.66,6.18-3.99.33-.26.75-.56,1.25-.9.5-.33.88-.56,1.15-.7l.3-.3ZM186.49,29.96c-1.06-.73-1.63-.93-1.7-.6,0,.14.03.37.1.7.07.33.1,3.36.1,9.07v8.18l1.99,1.1c.46.27.88.53,1.25.8.36.27.65.45.85.55.2.1.48.22.85.35.36.13.85.23,1.45.3l-.1-8.57c-.13-5.78-.23-8.74-.3-8.87-.14-.27-.5-.58-1.1-.95-.6-.36-1.26-.76-1.99-1.2-.73-.43-1.2-.71-1.39-.85Z"/>
        <path class="cls-1" d="M186.35,57.59s-.08,0-.11,0c-.23-.03-.42-.16-.55-.37-.3-.47-1.38-1.39-4.79-3.1l-2.79-1.39c-1.46-.73-2.13-1.37-2.13-2.02,0-.24.11-.57.33-1.01.14-.28.37-1.93.37-9.86v-9.08l.97-.97c.55-.55,1.18-1,1.86-1.34.64-.32,2.71-1.66,6.15-3.97.34-.27.76-.57,1.25-.9.49-.33.86-.55,1.14-.69l.23-.24c.2-.42.87-.34,1.09-.31.58.08.97.29,1.14.64.22.36.41.36.48.36.58,0,.65.31.65.45,0,.02,0,.04,0,.05.22.02.83.21,4.27,2.54.91.65,1.69,1.07,2.33,1.26.97.22,1.47.67,1.47,1.33,0,.38-.18.85-.54,1.43-.17.27-.46,1.9-.46,9.74,0,8.94-.15,9.24-.23,9.38l-.04.06c-.18.18-.41.27-.68.27l-.05.05c0,.21-.13.45-.75.45-.2,0-.65.12-1.68.67-.85.46-1.51.89-1.95,1.27-.78.63-1.04.79-1.16.84l-.52.34c-.1.14-.38.4-1.23,1.02-.1.11-.41.39-.98.88-.5.44-.88.78-1.08.99-.88.83-1.53,1.23-2.02,1.23ZM177.17,30.96v8.87c0,8.27-.24,9.71-.42,10.08-.24.48-.27.7-.27.79,0,.24.24.76,1.86,1.57l2.79,1.39c2.86,1.43,4.49,2.5,4.99,3.28.07.11.14.13.19.14.17.03.66-.08,1.72-1.08.21-.21.59-.55,1.1-1,.55-.48.86-.76.98-.88.98-.71,1.13-.9,1.15-.94l.08-.09.69-.44c.07-.04.29-.18.99-.74.47-.4,1.14-.84,2.03-1.32.93-.5,1.54-.73,1.91-.73.14,0,.21-.01.25-.02.03-.3.23-.48.55-.48.11,0,.21-.03.28-.09.06-.28.17-1.91.17-9.13,0-8.2.31-9.64.54-10,.3-.49.46-.88.46-1.16,0-.15,0-.6-1.1-.85-.71-.21-1.54-.66-2.48-1.34-3.23-2.18-3.9-2.44-4.04-2.45-.2,0-.42-.13-.45-.49-.03,0-.08-.01-.15-.01-.36,0-.67-.21-.91-.62-.1-.2-.36-.33-.76-.38-.49-.07-.58.03-.58.03l-.06.1-.36.35c-.26.13-.63.36-1.12.68-.47.32-.89.61-1.23.88-3.52,2.37-5.55,3.68-6.23,4.02-.64.32-1.22.74-1.73,1.25l-.82.83ZM191.63,50.68l-.28-.03c-.62-.07-1.12-.17-1.51-.31-.38-.14-.67-.26-.87-.36-.22-.11-.52-.3-.88-.57-.36-.26-.77-.52-1.22-.78l-2.12-1.17v-8.32c0-7.06-.05-8.81-.09-9.02-.07-.34-.11-.59-.11-.75.04-.2.13-.31.26-.37.23-.1.62-.07,1.83.76.19.13.64.4,1.38.84.73.43,1.4.83,2,1.2.64.39,1.03.74,1.19,1.05.05.1.12.26.33,8.98l.1,8.86ZM185.25,47.16l1.86,1.02c.47.27.9.54,1.27.81.43.31.68.46.81.53.19.09.46.21.82.34.29.11.66.19,1.11.25l-.1-8.29c-.17-7.29-.25-8.64-.29-8.8-.06-.11-.3-.38-.99-.81-.6-.36-1.26-.76-1.99-1.19-.76-.45-1.2-.72-1.41-.86h0c-.84-.58-1.18-.69-1.3-.71.01.08.03.26.09.55.04.23.1,1.42.1,9.12v8.03Z"/>
      </g>
      <g>
        <path class="cls-1" d="M207.73,53.19c-.07,0-.48-.22-1.25-.65-.76-.43-1.21-.65-1.35-.65-.2,0-.57-.2-1.1-.6-.46-.4-.6-.8-.4-1.2s.3-3.26.3-8.57c0-6.31.23-9.94.7-10.87.07-.2.76-.76,2.09-1.7,1.33-.93,2.06-1.39,2.19-1.39s.55-.37,1.25-1.1c.7-.73,1.05-1.16,1.05-1.3s-.93-1.13-2.79-2.99c-1.79-1.79-2.69-2.89-2.69-3.29,0-.27.78-1.26,2.34-2.99,1.56-1.73,2.34-2.62,2.34-2.69.46-.86.93-.83,1.39.1.4.8,3.09,3.72,8.08,8.77l5.68,5.88c.26.33.4,3.92.4,10.77v10.37c-.8.47-1.63.93-2.49,1.4-.73.33-1.1.57-1.1.7s-.07.2-.2.2c-.27,0-1.4.71-3.39,2.14-1.99,1.43-3.32,2.44-3.99,3.04-.4.4-.7.6-.9.6s-.57-.23-1.1-.7c-.86-.8-2.33-1.69-4.39-2.69-.33-.13-.5-.27-.5-.4s-.07-.2-.2-.2ZM214.11,26.97c-.47-.4-.87-.6-1.2-.6-.47,0-.73.46-.8,1.39-.07.93-.1,3.96-.1,9.07v9.97l1.1.7c.73.47,1.1.76,1.1.9.13.14.23.2.3.2.13,0,.66.3,1.59.9s1.46.9,1.6.9c.46,0,.7-1.53.7-4.59.06-.33.1-.9.1-1.69v-2.49c0-1,.02-2.11.05-3.34.03-1.23.05-2.01.05-2.34,0-2.06-.14-3.35-.4-3.89-.73-1.73-2.09-3.42-4.09-5.08Z"/>
        <path class="cls-1" d="M213.91,57.43c-.18,0-.5-.09-1.26-.76-.84-.78-2.3-1.67-4.33-2.66-.25-.1-.6-.27-.64-.58-.1-.02-.32-.11-1.32-.68-.97-.55-1.19-.61-1.23-.62h0c-.17,0-.47-.07-1.23-.65-.71-.61-.65-1.16-.47-1.51.1-.21.27-1.58.27-8.46,0-6.41.24-10,.72-10.98.05-.15.27-.46,2.17-1.79,2.06-1.44,2.21-1.44,2.34-1.44,0-.01.22-.14,1.07-1.02.68-.71.89-1,.95-1.11-.14-.2-.71-.84-2.7-2.83-2.44-2.44-2.76-3.12-2.76-3.47,0-.17,0-.49,2.41-3.16,1.68-1.86,2.18-2.45,2.29-2.6l.02-.04c.27-.51.56-.75.89-.75h0c.34,0,.65.29.94.86.39.77,3.09,3.7,8.03,8.71l5.69,5.88c.16.21.47.59.47,10.94v10.51l-.12.07c-.78.45-1.62.92-2.5,1.4-.72.33-.91.48-.97.53-.02.24-.2.39-.45.39-.11.01-.67.25-3.24,2.1-2.02,1.45-3.31,2.44-3.97,3.02-.46.46-.79.66-1.06.66ZM208.18,53.38s.08.07.34.17c2.09,1.01,3.59,1.93,4.46,2.74.7.61.91.63.93.63.03,0,.22-.03.72-.52.68-.61,1.99-1.61,4.02-3.07,2.8-2.01,3.3-2.17,3.49-2.19.04-.22.28-.44,1.24-.88.82-.44,1.61-.88,2.35-1.31v-10.23c0-8.69-.22-10.39-.35-10.62l-5.66-5.85c-5.05-5.12-7.71-8.01-8.12-8.83-.21-.43-.4-.58-.5-.59h0s-.21.04-.45.49h0c-.1.19-.53.7-2.38,2.74-2.05,2.27-2.26,2.74-2.28,2.84,0,.1.19.67,2.62,3.1,2.86,2.87,2.86,3.01,2.86,3.17s-.08.39-1.12,1.47c-1.04,1.09-1.26,1.17-1.43,1.17-.04.02-.4.19-2.05,1.35-1.73,1.21-1.97,1.51-2,1.58-.46.92-.68,4.53-.68,10.78,0,7.12-.17,8.38-.33,8.69-.09.18-.15.47.34.9.68.51.9.54.93.54.13,0,.36.05,1.47.68.87.49,1.1.6,1.16.62.25.01.41.19.42.44,0,0,0,0,0,0ZM217.7,50.65c-.11,0-.27,0-1.73-.94-1.18-.76-1.43-.85-1.48-.86h0c-.12,0-.27-.08-.46-.27l-.07-.07v-.1s-.12-.14-.98-.69l-1.21-.77v-10.11c0-5.18.03-8.16.1-9.09.08-1.08.43-1.63,1.05-1.63.4,0,.84.21,1.36.66,2.01,1.68,3.41,3.42,4.16,5.18.28.57.42,1.87.42,3.99,0,.34-.02,1.12-.05,2.35-.03,1.18-.05,2.3-.05,3.33v2.49c0,.8-.04,1.39-.1,1.74,0,3.97-.38,4.79-.94,4.79ZM214.56,48.36c.08,0,.32.06,1.68.93,1.18.75,1.43.85,1.48.86.04-.04.43-.46.43-4.34.05-.27.1-.73.1-1.69v-2.49c0-1.04.02-2.16.05-3.35.03-1.22.05-2,.05-2.34,0-2.5-.2-3.43-.37-3.78-.72-1.7-2.07-3.37-4.02-5h0c-.41-.35-.77-.54-1.04-.54-.38,0-.51.63-.55,1.16-.07.92-.1,3.88-.1,9.06v9.83l.98.62c.89.57,1.13.81,1.19.98.07.07.1.08.1.08,0,0,0,0,.02,0Z"/>
      </g>
      <g>
        <path class="cls-1" d="M238.83,55.39c-.07,0-.43.35-1.1,1.05-.67.7-1.1,1.05-1.3,1.05-.27,0-1-.6-2.19-1.79-1.4-1.26-2.59-2.26-3.59-2.99-.53-.33-.7-1.2-.5-2.59.2-.73.3-2.26.3-4.59,0-1.66.03-2.66.1-2.99.06-.33.26-.63.6-.9.86-.73,1.33-1.1,1.4-1.1.26,0,.96-.3,2.09-.9l1.69-1c.4-.13.6-.36.6-.7,0-.4-.37-1.26-1.1-2.59-.33-.6-1.33-1.63-2.99-3.09-.8-.73-1.1-1.33-.9-1.79.13-.33.63-.85,1.5-1.55.86-.7,1.43-1.05,1.69-1.05.13,0,.32-.13.55-.4.23-.27.38-.4.45-.4.2-.07.81-.55,1.85-1.45,1.03-.9,1.78-1.61,2.24-2.14.6-.66,1.2-.76,1.79-.3.33.33,2.49,1.5,6.48,3.49.53.27.9.4,1.1.4s.3.07.3.2.3.33.9.6c.6.27.9.6.9,1,0,.33-.1.6-.3.8-.2.13-.37.66-.5,1.6-.13.66-.2,3.59-.2,8.77s.07,7.84.2,8.37c.33,1.33.93,1.99,1.79,1.99.73,0,1.1.3,1.1.9,0,.46-.3,1-.9,1.59-2.93,2.86-4.59,4.29-4.98,4.29-.27,0-1.16-.71-2.69-2.14-1.53-1.43-2.33-2.14-2.39-2.14-.33-.13-.6-.13-.8,0-.2.14-.76.6-1.69,1.4-.8.73-1.3,1.1-1.5,1.1ZM238.63,30.26c-.86-.6-1.43-.9-1.69-.9-.8,0-1.2.33-1.2,1,0,.4.25,1.05.75,1.94.5.9.78,1.45.85,1.65.07.2.23.46.5.8s.4.57.4.7c0,.27.22.67.65,1.2.43.53.75.8.95.8.27,0,.4-.07.4-.2,0-.07.16-.16.5-.3.33-.13.7-.26,1.1-.4.4-.13.66-.23.8-.3.6-.33.9-.93.9-1.79,0-.73-.12-1.23-.35-1.5-.23-.27-.85-.66-1.84-1.2-1.33-.66-2.23-1.16-2.69-1.5ZM242.82,44.42c-.07-3.92-.17-5.88-.3-5.88-.2,0-.71.28-1.55.85-.83.57-1.41.88-1.74.95-.8.2-1.2.83-1.2,1.89,0,.2.07.57.2,1.1.2.73.3,1.89.3,3.49v2.19l1.89,1c1.26.6,1.99.83,2.19.7.2-.07.3-.86.3-2.39,0-.2-.02-.73-.05-1.6-.03-.86-.05-1.63-.05-2.29Z"/>
        <path class="cls-1" d="M236.44,57.73c-.26,0-.73-.23-2.37-1.87-1.37-1.24-2.57-2.24-3.56-2.97-.61-.38-.81-1.31-.6-2.83.2-.73.3-2.25.3-4.55,0-1.69.03-2.69.11-3.04.08-.39.31-.74.69-1.04,1.36-1.15,1.44-1.15,1.55-1.15.1,0,.49-.08,1.98-.87l1.68-.99c.43-.15.48-.33.48-.48,0-.24-.18-.87-1.07-2.47-.32-.57-1.31-1.59-2.94-3.02-.9-.82-1.21-1.5-.96-2.08.15-.38.65-.9,1.57-1.64,1.21-.98,1.62-1.1,1.85-1.1,0,0,.1-.02.36-.31.28-.32.43-.45.58-.48.1-.05.46-.28,1.74-1.39,1.05-.91,1.77-1.61,2.22-2.12.87-.97,1.64-.71,2.14-.33.24.23,1.52,1,6.44,3.46.67.34.91.37.99.37.37,0,.53.2.55.4.04.04.2.17.75.42.69.31,1.04.72,1.04,1.23,0,.4-.12.73-.37.97-.06.05-.25.21-.43,1.45-.13.66-.2,3.6-.2,8.74,0,6.24.1,7.96.19,8.31.3,1.21.81,1.81,1.55,1.81,1.17,0,1.35.72,1.35,1.15,0,.54-.32,1.12-.97,1.77-4.46,4.36-4.93,4.36-5.16,4.36-.17,0-.5,0-2.86-2.21-1.69-1.58-2.2-2.02-2.31-2.09-.25-.1-.44-.11-.57-.02-.11.08-.48.35-1.67,1.38-.99.91-1.37,1.12-1.59,1.15-.07.05-.29.25-.99.97-.94.99-1.27,1.12-1.48,1.12ZM232.61,40.78c-.08.05-.36.25-1.29,1.04-.29.24-.46.48-.51.76-.04.22-.1.9-.1,2.94,0,2.38-.1,3.9-.31,4.65-.17,1.23-.04,2.04.39,2.31,1.02.75,2.23,1.76,3.63,3.02,1.57,1.57,1.95,1.72,2.03,1.73.03,0,.26-.08,1.11-.97,1.06-1.11,1.14-1.12,1.27-1.12.05,0,.32-.1,1.33-1.03.93-.8,1.51-1.27,1.72-1.42.27-.18.61-.19,1.01-.03.15.05.5.34,2.49,2.2,2,1.87,2.44,2.06,2.53,2.08.16-.02.98-.48,4.8-4.22.55-.54.82-1.02.82-1.42,0-.32-.1-.65-.85-.65-.99,0-1.68-.74-2.04-2.18-.14-.55-.21-3.31-.21-8.43s.07-8.14.2-8.82c.19-1.31.41-1.62.61-1.75.11-.12.19-.32.19-.59,0-.29-.25-.55-.75-.77-.72-.32-1.01-.53-1.04-.77-.11-.01-.4,0-1.26-.43-5.4-2.7-6.32-3.31-6.55-3.54-.31-.24-.77-.44-1.43.29-.46.53-1.2,1.24-2.26,2.17-1.4,1.22-1.76,1.44-1.93,1.5h-.03s-.12.11-.31.33c-.29.33-.52.48-.74.48-.07,0-.4.07-1.54.99-1.03.83-1.34,1.24-1.42,1.44-.19.45.35,1.07.83,1.52,1.69,1.49,2.69,2.53,3.04,3.15,1.01,1.84,1.13,2.43,1.13,2.71,0,.31-.13.72-.77.94l-1.65.98c-1.44.76-1.93.91-2.16.93ZM242.47,50.99c-.3,0-.88-.16-2.15-.76l-2.04-1.07v-2.34c0-1.56-.1-2.71-.29-3.42-.14-.56-.21-.94-.21-1.16,0-1.48.75-1.98,1.39-2.14.22-.04.67-.23,1.67-.91,1.16-.78,1.49-.89,1.69-.89.33,0,.44,0,.55,6.13h0c0,.69.02,1.46.05,2.29.03.87.05,1.41.05,1.61,0,2.19-.2,2.52-.44,2.62-.06.04-.14.06-.26.06ZM238.79,48.85l1.76.93c1.54.73,1.89.72,1.95.71.04-.08.17-.46.17-2.18,0-.2-.02-.73-.05-1.59-.03-.83-.05-1.61-.05-2.3-.07-3.83-.15-5.15-.21-5.58-.18.08-.54.28-1.24.75-.87.59-1.47.91-1.84.99-.67.17-1,.71-1,1.65,0,.12.03.4.19,1.04.2.75.31,1.94.31,3.55v2.04ZM239.83,37.69c-.29,0-.63-.27-1.14-.89-.48-.59-.7-1.02-.7-1.35,0-.01-.02-.14-.34-.54-.29-.36-.46-.65-.54-.88-.04-.11-.19-.46-.83-1.6-.52-.94-.78-1.62-.78-2.06s.19-1.25,1.45-1.25c.22,0,.63.11,1.84.94h0c.45.33,1.35.82,2.66,1.48,1.04.55,1.66.96,1.92,1.26.28.31.41.86.41,1.66,0,.96-.35,1.64-1.03,2.01-.15.08-.42.18-.84.32-.39.13-.75.26-1.08.39-.21.08-.31.14-.35.17-.03.15-.17.35-.64.35ZM236.94,29.61c-.84,0-.95.4-.95.75,0,.24.12.76.72,1.82.51.91.79,1.47.87,1.69.04.12.15.34.46.72.32.4.45.65.45.85,0,.12.08.41.59,1.04.56.68.75.71.75.71.08,0,.13,0,.16-.01.04-.19.26-.31.65-.47.34-.13.71-.27,1.11-.41.39-.13.65-.22.76-.28.51-.28.76-.8.76-1.57,0-.83-.16-1.18-.29-1.33-.15-.17-.58-.5-1.77-1.14-1.35-.67-2.24-1.17-2.72-1.51-1.11-.77-1.46-.85-1.55-.85Z"/>
      </g>
      <g>
        <path class="cls-1" d="M275.62,44.42c0-.13-.05-1.94-.15-5.43-.1-3.49-.15-5.27-.15-5.33,0-.13-.6-.96-1.79-2.49-.47-.46-.7-.9-.7-1.3,0-.46.43-1.1,1.3-1.9.46-.4,1.03-.93,1.69-1.59,1.2-1,1.96-1.5,2.29-1.5.4,0,.86.27,1.4.8.53.53,1.08,1.18,1.65,1.94.56.76.95,1.25,1.15,1.45l.9.9v13.26c0,8.91-.1,13.69-.3,14.36-.27,1.06-1.36,2.23-3.29,3.49-.87.53-1.63,1.13-2.29,1.79-.6.6-1,.9-1.2.9-.07,0-1,.83-2.79,2.49-1.73,1.66-2.83,2.49-3.29,2.49-.4,0-.93-.16-1.6-.5-1.79-.8-3.19-1.2-4.19-1.2-.53,0-.87-.1-1-.3-.07-.13-.53-.2-1.4-.2-.8.07-1.3.07-1.5,0-.2-.06-.3-.26-.3-.6,0-.4,1.2-1.83,3.59-4.29,2.33-2.33,3.49-3.62,3.49-3.89,0-.13-.03-.23-.1-.3-.2-.4-.4-.6-.6-.6-.13,0-1.36-1-3.69-2.99-.93-.8-1.4-1.46-1.4-1.99,0-.2.17-.53.5-1,.4-.46.6-3.46.6-8.97,0-4.45-.05-7.11-.15-7.98-.1-.86-.48-1.6-1.15-2.19-.4-.4-.8-.53-1.2-.4-.67.13-1.03.2-1.1.2-.33,0-.5-.13-.5-.4,0-.53,1.06-1.86,3.19-3.99,2.19-2.19,3.36-3.29,3.49-3.29.2,0,.91.67,2.14,1.99,1.23,1.33,1.94,2.19,2.14,2.59.73.93.96,1.79.7,2.59-.2.4-.3,3.42-.3,9.07s-.1,8.47-.3,8.87c-.07.07-.1.2-.1.4,0,.47.51.98,1.55,1.55,1.03.57,1.74.85,2.14.85,1,0,1.64-.27,1.94-.8.3-.53.48-1.66.55-3.39,0-.53.02-1.18.05-1.94.03-.76.05-1.18.05-1.25ZM275.82,57.38c0-2.72-.17-4.09-.5-4.09-.07,0-.33.17-.8.5-.2.2-1.63,1.46-4.29,3.79-1.86,1.66-2.79,2.66-2.79,2.99,0,.27.36.4,1.1.4,1.06,0,2.46.43,4.19,1.3,1,.47,1.63.67,1.89.6.53-.13.86-.53,1-1.2.13-.66.2-2.09.2-4.29Z"/>
        <path class="cls-1" d="M270.04,69c-.45,0-1-.17-1.71-.52-1.74-.77-3.12-1.17-4.07-1.17-.63,0-1.02-.13-1.21-.41,0,0-.16-.09-1.19-.09-1.1.09-1.43.04-1.58-.01-.21-.07-.47-.27-.47-.83,0-.23,0-.7,3.66-4.46,2.97-2.97,3.38-3.61,3.42-3.74,0-.03-.01-.08-.03-.1l-.05-.06c-.23-.46-.37-.46-.37-.46-.15,0-.29,0-3.85-3.05-1-.86-1.48-1.57-1.48-2.18,0-.26.17-.62.55-1.14.21-.25.55-1.71.55-8.83,0-4.42-.05-7.09-.15-7.95-.09-.81-.44-1.47-1.07-2.04-.34-.34-.64-.45-.95-.35-1.05.21-1.13.21-1.18.21-.69,0-.75-.5-.75-.65,0-.42.37-1.27,3.26-4.16,3.36-3.37,3.5-3.37,3.67-3.37s.4,0,2.33,2.07c1.26,1.36,1.97,2.23,2.18,2.65.75.96,1,1.91.71,2.78-.12.24-.29,1.68-.29,8.99s-.17,8.68-.33,8.98l-.05.07h0s-.03.05-.03.22c0,.21.18.65,1.42,1.33,1.22.68,1.78.82,2.02.82.9,0,1.48-.23,1.73-.67.28-.49.45-1.59.52-3.28,0-.55.02-1.21.05-1.95l.02-.37c.02-.53.03-.81.03-.87,0-.12-.05-1.85-.15-5.43-.13-4.69-.15-5.3-.15-5.34-.02-.03-.25-.43-1.74-2.34-.49-.49-.75-.98-.75-1.45,0-.54.45-1.23,1.38-2.08.46-.4,1.03-.93,1.69-1.59,1.67-1.39,2.2-1.57,2.47-1.57.47,0,.99.29,1.57.87.54.54,1.1,1.2,1.67,1.97.69.93.99,1.29,1.12,1.42l.97.97v13.36c0,13.4-.23,14.17-.31,14.43-.28,1.13-1.39,2.32-3.39,3.63-.85.52-1.61,1.12-2.25,1.76-.75.75-1.09.93-1.3.97-.14.1-.7.58-2.7,2.43-2.36,2.27-3.09,2.56-3.46,2.56ZM261.86,66.3c1.22,0,1.52.12,1.63.33.02.03.18.17.78.17,1.04,0,2.44.4,4.29,1.22.63.32,1.13.48,1.49.48.18,0,.84-.24,3.12-2.42,2.77-2.56,2.82-2.56,2.96-2.56.02,0,.24-.05,1.02-.83.67-.67,1.46-1.29,2.34-1.83,1.86-1.22,2.93-2.34,3.18-3.34.13-.45.29-3.28.29-14.3v-13.16l-.82-.82c-.21-.21-.6-.7-1.17-1.47-.56-.75-1.1-1.4-1.62-1.92-.48-.48-.89-.72-1.22-.72-.12,0-.58.14-2.13,1.44-.65.65-1.23,1.19-1.69,1.59-1,.92-1.21,1.44-1.21,1.71,0,.33.21.71.62,1.12,1.87,2.38,1.87,2.54,1.87,2.67,0,.08.05,1.87.15,5.33.09,3.15.15,5.29.15,5.44,0,.06-.01.35-.03.89v.37c-.05.73-.07,1.38-.07,1.93-.07,1.8-.26,2.94-.58,3.51-.34.61-1.07.92-2.16.92-.45,0-1.19-.29-2.26-.88-1.13-.62-1.67-1.19-1.67-1.76,0-.16.01-.38.13-.53.1-.28.26-1.82.26-8.74,0-7.56.17-8.88.33-9.18.22-.69,0-1.46-.67-2.33-.21-.42-.92-1.27-2.13-2.58-1.32-1.43-1.78-1.8-1.94-1.89-.22.16-.95.81-3.33,3.2-2.81,2.81-3.12,3.6-3.12,3.81,0,.08,0,.15.25.15.03,0,.2-.02,1.05-.19.47-.16.95,0,1.42.47.7.63,1.11,1.42,1.22,2.34.1.88.15,3.57.15,8,0,7.42-.35,8.78-.66,9.14-.41.57-.44.78-.44.83,0,.31.23.88,1.31,1.8,2.72,2.33,3.41,2.84,3.57,2.93.28.02.53.25.76.7.09.11.14.26.14.44s0,.5-3.56,4.06c-3.13,3.22-3.5,3.95-3.52,4.11,0,.14.02.32.13.36.08.03.36.08,1.4-.01h.01ZM274.51,63.13c-.27,0-.78-.12-1.88-.64-1.69-.85-3.07-1.27-4.08-1.27-.33,0-1.35,0-1.35-.65,0-.32.35-.92,2.88-3.18,2.69-2.35,4.09-3.59,4.28-3.78.75-.54.86-.57.97-.57.39,0,.75.33.75,4.34,0,2.23-.07,3.65-.2,4.34-.15.77-.55,1.24-1.18,1.39-.05.01-.1.02-.18.02ZM267.7,60.58s.11.14.85.14c1.11,0,2.51.43,4.3,1.32,1.31.61,1.65.6,1.72.58.43-.11.7-.44.81-1,.13-.64.19-2.07.19-4.24,0-2.85-.19-3.61-.29-3.81-.07.05-.25.16-.61.42-.17.17-1.53,1.38-4.27,3.77-2.45,2.19-2.69,2.7-2.71,2.81h0Z"/>
      </g>
      <g>
        <path class="cls-1" d="M317.1,1.05c.6-.27,1.1-.4,1.5-.4.27,0,.9.17,1.89.5.53.07,1.3.4,2.29,1,1,.6,1.86.9,2.59.9.66,0,1.23.1,1.7.3.4.13.73.2,1,.2.73,0,1.46-.36,2.19-1.1.4-.4.73-.6,1-.6.46,0,.7.4.7,1.2,0,.67-.17,1.16-.5,1.5-.33.33-.67.83-1,1.5-.2.53-.33.8-.4.8s-.17.2-.3.6c-.14.4-.28.83-.45,1.3-.17.47-.28.73-.35.8-.27.33-.42,1.3-.45,2.89-.03,1.6-.05,6.95-.05,16.05v18.35l.7.8c.33.4.6.63.8.7.2.07.73.03,1.59-.1,1.13-.13,1.7-.03,1.7.3,0,.2-.96,1.26-2.89,3.19-.27.4-1.13,1.3-2.59,2.69-1.46,1.4-2.26,2.09-2.39,2.09s-.43.23-.9.7c-.8.8-1.4.93-1.79.4-.27-.26-.5-.4-.7-.4s-.48-.13-.85-.4c-.37-.26-.65-.43-.85-.5-.4-.07-.9-.33-1.5-.8-.8-.6-2.33-1.4-4.59-2.39-.27-.13-.67.07-1.2.6-.33.33-.67.55-1,.65-.33.1-.62.07-.85-.1-.23-.17-.35-.41-.35-.75-.07-.46.13-.9.6-1.3,1.06-.73,2.53-2.23,4.39-4.49l1-1.4.1-14.85c.06-9.97.26-15.12.6-15.45.6-.73,1.1-1.56,1.5-2.49.13-.27.28-.55.45-.85.16-.3.28-.55.35-.75.07-.2.1-.46.1-.8,0-.53-.33-.8-1-.8h-1.1c-.27,0-.46-.03-.6-.1-.86-.6-2.26-.9-4.19-.9-.8,0-1.2.1-1.2.3s-.17.3-.5.3c-.4,0-.6.07-.6.2s-.27.25-.8.35c-.53.1-.93.12-1.2.05-.27-.07-.43-.35-.5-.85-.07-.5.03-.88.3-1.15l.9-1.2c.6-.8,1.06-1.26,1.4-1.39.27-.13,1.2-.93,2.79-2.39,1.26-1.26,2.42-2.09,3.49-2.49Z"/>
        <path class="cls-1" d="M323.26,58.15s-.04,0-.07,0c-.28-.02-.52-.16-.71-.42-.26-.26-.43-.3-.5-.3-.26,0-.58-.15-1-.45-.43-.31-.66-.42-.78-.46-.41-.06-.93-.34-1.57-.84-.77-.58-2.3-1.38-4.53-2.36-.13-.06-.43.05-.92.55-.37.37-.73.6-1.1.71-.41.12-.76.08-1.06-.13-.3-.21-.45-.53-.45-.95-.08-.52.15-1.03.69-1.49,1.06-.73,2.52-2.23,4.35-4.46l.94-1.32.1-14.78c.1-15.06.49-15.45.67-15.63.56-.69,1.05-1.5,1.44-2.41.14-.28.29-.57.46-.87.16-.28.27-.52.33-.71.06-.17.09-.41.09-.72,0-.27-.09-.55-.75-.55h-1.1c-.31,0-.54-.04-.71-.12-.85-.58-2.21-.87-4.08-.87-.67,0-.88.07-.95.11-.02.18-.14.49-.75.49-.21,0-.31.02-.36.03-.07.3-.51.42-.99.51-.58.11-1.01.12-1.3.05-.37-.09-.6-.45-.69-1.06-.08-.58.05-1.03.37-1.36l.87-1.17c.64-.85,1.12-1.32,1.5-1.48.12-.06.66-.46,2.72-2.35,1.27-1.27,2.47-2.13,3.56-2.54.63-.28,1.15-.42,1.59-.42.19,0,.6.05,1.97.51.53.06,1.31.4,2.34,1.02.95.57,1.78.86,2.46.86s1.3.11,1.79.32c.35.12.66.18.9.18.66,0,1.34-.34,2.02-1.02.45-.45.84-.67,1.17-.67.43,0,.95.25.95,1.45,0,.73-.19,1.29-.57,1.67-.31.31-.63.79-.95,1.43-.23.6-.35.84-.5.91-.03.05-.09.17-.18.45-.14.4-.29.84-.45,1.3-.25.7-.34.82-.41.89-.11.14-.33.71-.38,2.72-.03,1.55-.05,6.8-.05,16.05v18.25l.64.73c.41.5.62.6.69.62.06.02.33.07,1.48-.11.99-.12,1.55-.07,1.81.17.11.1.17.23.17.38,0,.17,0,.4-2.96,3.37-.25.38-1.1,1.27-2.6,2.7-2.27,2.16-2.42,2.16-2.57,2.16,0,0-.17.07-.72.62-.53.53-.99.79-1.4.79ZM314.04,52.8c.1,0,.2.02.28.07,2.29,1.01,3.81,1.8,4.63,2.42.56.44,1.03.69,1.39.75.26.09.56.26.95.54.43.32.63.35.7.35.27,0,.55.15.87.47.16.21.29.24.37.25.19.02.52-.09,1.07-.64.64-.64.89-.77,1.07-.77.02-.03.41-.3,2.22-2.02,1.45-1.38,2.31-2.27,2.56-2.65,2.43-2.43,2.8-2.97,2.85-3.09-.02,0-.12-.07-.6-.07-.2,0-.47.01-.82.06-1.19.18-1.54.15-1.7.09-.25-.08-.55-.33-.91-.78l-.76-.86v-18.44c0-9.38.02-14.48.05-16.06.05-2.22.31-2.8.5-3.04.02-.03.1-.14.31-.72.16-.46.31-.9.45-1.29.14-.42.25-.67.41-.74.04-.06.12-.22.29-.66.35-.71.7-1.23,1.05-1.58.28-.28.42-.73.42-1.32,0-.95-.34-.95-.45-.95s-.36.07-.82.53c-.78.78-1.57,1.17-2.37,1.17-.3,0-.66-.07-1.08-.21-.45-.19-.99-.29-1.62-.29-.77,0-1.69-.31-2.72-.93-.96-.58-1.7-.9-2.2-.96-1.25-.41-1.7-.5-1.86-.5-.36,0-.83.13-1.39.38h-.01c-1.03.39-2.17,1.21-3.4,2.44-2.18,1.99-2.67,2.35-2.86,2.44-.22.09-.6.38-1.31,1.32l-.9,1.2c-.23.24-.31.54-.25.96.04.26.12.59.31.64.23.06.59.04,1.09-.05.4-.07.55-.14.6-.17.06-.38.64-.38.84-.38s.25-.04.25-.04c0-.49.69-.56,1.44-.56,1.97,0,3.43.32,4.33.94.04.01.17.05.46.05h1.1c1.08,0,1.25.66,1.25,1.05,0,.36-.04.65-.11.88-.07.22-.19.48-.37.79-.17.3-.31.58-.44.84-.4.94-.92,1.8-1.53,2.54-.17.29-.46,2.65-.54,15.3l-.1,14.93-1.04,1.46c-1.88,2.28-3.37,3.8-4.45,4.55-.38.33-.55.68-.49,1.05,0,.29.08.46.25.58s.37.14.63.06c.29-.09.59-.28.89-.59.48-.48.87-.71,1.2-.71Z"/>
      </g>
      <g>
        <path class="cls-1" d="M351.89,29.86c-.33,0-1.06.33-2.19,1,.07,2.13.1,5.32.1,9.57s.03,7.45.1,9.57l.9.6c.66.4,1,.73,1,1,0,.2-.98,1.26-2.94,3.19-1.96,1.93-3.04,2.89-3.24,2.89s-.6-.23-1.2-.7c-1.33-1-2.73-2.13-4.19-3.39-.73-.6-1.1-.96-1.1-1.1,0-.2.3-.6.9-1.2.6-.66.96-1.58,1.1-2.74.13-1.16.27-4,.4-8.52,0-.8.02-1.73.05-2.79.03-1.06.05-1.76.05-2.09,0-1.79-.13-2.92-.4-3.39-.27-.46-.65-.81-1.15-1.05-.5-.23-.88-.25-1.15-.05-.33.27-.6.3-.8.1s-.3-.56-.3-1.1c0-.66.4-1.26,1.2-1.79,2.13-1.53,3.52-2.63,4.19-3.29.86-.86,1.33-1.26,1.4-1.2.13,0,.56.3,1.3.9,1,.8,2.13,1.86,3.39,3.19.27.4.63.6,1.1.6.53,0,1.13-.33,1.79-1,.73-.73,1.61-1.5,2.64-2.29,1.03-.8,1.65-1.2,1.85-1.2.26,0,.86.4,1.79,1.2,1.53,1.26,3.19,2.39,4.99,3.39.8.47,1.21.73,1.25.8.03.07-.08.47-.35,1.2l-.6.9.1,8.87c.06,6.25.3,9.57.7,9.97.13.13.4.2.8.2.93,0,1.4.37,1.4,1.1,0,.4-.7,1.26-2.09,2.59-.33.33-.7.68-1.1,1.05-.4.37-.73.72-1,1.05l-.5.5c-.93,1.13-1.56,1.59-1.89,1.39-.4-.2-1.3-1-2.69-2.39-1.39-1.4-2.16-2.23-2.29-2.49-.13-.4-.03-.8.3-1.2.26-.4.43-3.66.5-9.77l.1-9.07-1.1-1c-1.46-1.33-2.49-1.99-3.09-1.99Z"/>
        <path class="cls-1" d="M360.34,58.07c-.11,0-.21-.03-.3-.08-.41-.21-1.31-1-2.74-2.43-1.9-1.9-2.25-2.37-2.34-2.56-.18-.52-.06-1,.33-1.47.09-.16.35-1.46.44-9.61l.1-8.96-1.01-.92c-1.75-1.59-2.56-1.93-2.92-1.93-.16,0-.61.12-1.94.89.06,2.14.1,5.31.1,9.43s.03,7.32.1,9.43l.79.53c.76.46,1.11.83,1.11,1.21,0,.17,0,.4-3.02,3.37-3.01,2.96-3.25,2.96-3.42,2.96-.18,0-.5-.08-1.35-.75-1.31-.98-2.72-2.12-4.2-3.4-1.09-.89-1.18-1.11-1.18-1.29,0-.2.12-.52.97-1.37.55-.61.9-1.49,1.02-2.59.13-1.15.26-3.94.4-8.5,0-.8.02-1.74.05-2.79.03-1.06.05-1.75.05-2.09,0-2.17-.2-2.97-.37-3.27-.24-.42-.58-.73-1.04-.94-.41-.19-.7-.21-.89-.08-.58.46-.96.25-1.12.08-.25-.25-.37-.67-.37-1.27,0-.75.44-1.42,1.31-2,2.09-1.5,3.49-2.6,4.15-3.26,1.21-1.21,1.49-1.38,1.68-1.26.17.05.49.23,1.35.94.99.79,2.14,1.87,3.41,3.21.54.8,1.41.72,2.53-.4.74-.74,1.64-1.52,2.67-2.31,1.42-1.1,1.8-1.25,2-1.25.24,0,.66.15,1.96,1.26,1.51,1.25,3.18,2.38,4.94,3.36,1.26.74,1.3.82,1.35.9.06.11.1.2-.34,1.4l-.58.89.1,8.8c.09,8.32.47,9.62.62,9.8.03.03.16.12.62.12,1.43,0,1.65.84,1.65,1.35,0,.33-.25.94-2.17,2.77-.33.33-.7.68-1.1,1.05-.39.36-.71.7-.97,1.02l-.52.52c-.84,1.03-1.45,1.51-1.9,1.51ZM351.89,29.61c.68,0,1.71.65,3.26,2.06l1.18,1.07-.1,9.19c-.1,9.24-.41,9.71-.54,9.91-.29.35-.38.67-.27.98.05.1.44.6,2.23,2.4,1.71,1.7,2.37,2.22,2.63,2.34.02,0,.35.17,1.59-1.33l.51-.52c.25-.32.6-.68,1-1.05.4-.36.76-.71,1.09-1.04,1.87-1.79,2.02-2.3,2.02-2.42,0-.39-.13-.85-1.15-.85-.48,0-.79-.09-.98-.27-.2-.2-.67-.67-.77-10.14l-.1-8.95.64-.96c.21-.6.28-.85.3-.96-.08-.05-.35-.23-1.12-.68-1.79-.99-3.48-2.14-5.02-3.41-1.27-1.08-1.58-1.14-1.63-1.14-.06,0-.37.12-1.69,1.14-1.01.78-1.89,1.55-2.62,2.27-.72.72-1.37,1.07-1.97,1.07-.55,0-.99-.24-1.31-.71-1.23-1.29-2.36-2.36-3.34-3.13-.8-.65-1.06-.8-1.14-.84-.1.06-.39.29-1.22,1.12-.68.68-2.1,1.79-4.22,3.32-.74.49-1.09,1.01-1.09,1.59s.12.82.23.92c.04.04.14.14.47-.12.34-.26.82-.26,1.41.02.54.25.97.64,1.26,1.15.29.51.43,1.66.43,3.51,0,.33-.02,1.03-.05,2.1-.03,1.04-.05,1.98-.05,2.78-.13,4.59-.27,7.38-.4,8.55-.14,1.21-.53,2.18-1.16,2.88-.79.79-.83,1.01-.83,1.03,0,0,0,0,0,0,.02,0,.16.21,1,.9,1.47,1.27,2.88,2.41,4.18,3.38.81.63,1.02.65,1.04.65.07-.04.6-.39,3.07-2.82,2.46-2.42,2.83-2.95,2.87-3.06h0s-.06-.24-.88-.74l-1.01-.68v-.13c-.07-2.12-.1-5.34-.1-9.58s-.03-7.43-.1-9.56v-.15s.12-.08.12-.08c1.58-.92,2.08-1.03,2.32-1.03Z"/>
      </g>
      <g>
        <path class="cls-1" d="M377.92,13.81c.46-.53.8-.8,1-.8.13,0,.25.07.35.2.1.14.23.33.4.6.16.27.31.47.45.6.13.13.3.32.5.55.2.23.43.52.7.85.26.33.5.6.7.8.93,1.06,3.06,3.26,6.38,6.58l4.99,4.98.1,10.27c0,7.05-.03,10.67-.1,10.87-.14.4-.37.63-.7.7-.33.14-1.05.48-2.14,1.05-1.1.57-1.78.98-2.04,1.25-.07.07-.2.15-.4.25-.2.1-.4.22-.6.35-.2.14-.3.23-.3.3,0,.13-.1.2-.3.2-.13,0-.53.27-1.2.8-1.4,1.26-2.63,2.26-3.69,2.99-.2.14-.48.14-.85,0-.37-.13-.55-.3-.55-.5,0-.13-.1-.2-.3-.2-.27,0-.76-.3-1.5-.9-.86-.66-2.89-1.86-6.08-3.59-1.6-.8-2.03-1.46-1.3-1.99.27-.2.43-3.42.5-9.67l.1-9.27.9-.9c.53-.53,1-.86,1.39-1l.5-.3c0-.2.07-.3.2-.3.53,0,1.33-.53,2.39-1.59.26-.27.46-.4.6-.4s.5-.43,1.1-1.3l-2.89-2.89c-1.93-1.93-2.89-3.02-2.89-3.29s.63-1.03,1.89-2.29c1-1,1.89-1.99,2.69-2.99ZM379.91,46.91c.8.8,1.23,1.2,1.3,1.2.13,0,.9.47,2.29,1.4,1,.73,1.76,1.1,2.29,1.1.26,0,.4-2.99.4-8.97,0-4.45-.03-7.13-.1-8.02-.07-.9-.23-1.58-.5-2.04-.33-.66-.63-1.13-.9-1.4-.07-.06-.22-.25-.45-.55-.23-.3-.42-.51-.55-.65-.27-.26-.78-.71-1.55-1.35-.76-.63-1.25-1.05-1.44-1.25s-.33-.3-.4-.3c-.27,0-.4,3.66-.4,10.97v9.87Z"/>
        <path class="cls-1" d="M381.64,57.53c-.17,0-.36-.04-.57-.12-.45-.16-.68-.39-.71-.68-.01,0-.03,0-.05,0-.23,0-.62-.11-1.65-.95-.85-.65-2.88-1.85-6.04-3.56-1.16-.58-1.73-1.09-1.77-1.61-.03-.3.12-.57.45-.81.09-.18.31-1.71.4-9.47l.1-9.37.97-.97c.55-.55,1.05-.91,1.49-1.06l.34-.21c.05-.29.25-.4.44-.4.32,0,.96-.26,2.22-1.52.3-.3.53-.45.73-.47.06-.04.26-.23.82-1.02l-2.74-2.74c-2.96-2.96-2.96-3.28-2.96-3.47,0-.26.24-.74,1.97-2.47.98-.98,1.88-1.98,2.67-2.97h0c.54-.63.9-.89,1.19-.89.15,0,.36.05.55.3.1.14.24.34.41.61.16.25.29.44.41.55.14.14.31.33.51.56.2.24.44.52.7.85.25.32.48.58.68.78.93,1.07,3.08,3.28,6.38,6.58l5.06,5.06.1,10.37c0,10.6-.08,10.84-.11,10.95-.17.49-.47.78-.89.87-.28.12-.99.47-2.08,1.03-1.33.69-1.81,1.03-1.98,1.2-.09.09-.25.19-.47.3-.19.09-.38.21-.57.33-.12.08-.17.13-.19.15-.02.2-.18.39-.55.39-.02,0-.23.09-1.04.74-1.39,1.26-2.64,2.27-3.7,3-.14.1-.31.14-.5.14ZM372.28,31.16l-.1,9.17c-.1,9.49-.4,9.72-.6,9.87-.26.19-.25.32-.25.36.01.14.18.55,1.5,1.21,3.19,1.73,5.25,2.94,6.12,3.62.96.78,1.27.84,1.34.84.4,0,.55.23.55.45,0,.06.1.16.38.26.29.1.5.11.62.03,1.04-.72,2.28-1.72,3.66-2.97,1-.8,1.21-.86,1.36-.86.02,0,.04,0,.05,0,.03-.17.18-.3.41-.45.21-.14.42-.26.62-.37.24-.12.32-.19.34-.2.28-.28.97-.7,2.1-1.29,1.11-.57,1.82-.92,2.16-1.06.2-.04.42-.13.56-.55.03-.16.08-1.8.08-10.79l-.1-10.17-4.91-4.91c-3.31-3.31-5.46-5.53-6.39-6.59-.2-.2-.45-.48-.71-.81-.26-.33-.49-.61-.69-.84-.19-.23-.36-.4-.49-.54-.15-.14-.31-.35-.48-.64-.16-.25-.29-.45-.39-.58-.07-.1-.13-.1-.15-.1,0,0-.2.02-.81.71-.8,1-1.71,2.01-2.71,3.01-1.68,1.68-1.81,2.06-1.82,2.12.02.07.3.59,2.82,3.11l3.04,3.04-.12.17c-.9,1.3-1.12,1.4-1.3,1.4,0,0-.11.02-.42.33-1.09,1.09-1.92,1.64-2.52,1.67,0,.01,0,.03,0,.05v.14l-.62.37c-.41.15-.85.46-1.35.96l-.83.83ZM385.79,50.85c-.59,0-1.39-.37-2.44-1.14-1.74-1.16-2.1-1.33-2.18-1.35-.08.02-.16.02-1.44-1.27l-.07-.07v-9.97c0-11.22.27-11.22.65-11.22.12,0,.27.06.58.37.19.19.67.61,1.43,1.23.78.65,1.29,1.09,1.56,1.36.14.14.33.36.57.67.28.37.39.49.42.52.29.29.6.77.95,1.46.28.49.45,1.2.52,2.14.07.91.1,3.61.1,8.04,0,9.22-.29,9.22-.65,9.22ZM381.28,47.86c.15.03.56.23,2.36,1.43.87.64,1.55.99,2.03,1.05.1-.39.28-2.03.28-8.72,0-4.42-.03-7.11-.1-8.01-.06-.85-.22-1.51-.47-1.94-.33-.65-.61-1.1-.86-1.34-.05-.05-.15-.16-.47-.57-.23-.29-.41-.5-.53-.63-.25-.25-.77-.7-1.53-1.33-.78-.64-1.25-1.05-1.46-1.26-.04-.04-.08-.08-.11-.1-.12.67-.26,3.02-.26,10.59v9.77c.79.79,1.04,1,1.12,1.06Z"/>
      </g>
      <g>
        <path class="cls-1" d="M402.54,24.58c.73-.6,1.13-.9,1.2-.9.33,0,.73.2,1.2.6,3.26,2.19,4.89,3.76,4.89,4.69,0,.14-.07.27-.2.4-.2.2-.3,3.59-.3,10.17s.1,9.97.3,10.17.57.3,1.1.3c.93,0,1.4.33,1.4,1,0,.47-.88,1.58-2.64,3.34s-2.88,2.64-3.34,2.64c-.73,0-2.49-1.26-5.28-3.79-.4-.4-.73-.6-1-.6-.4-.07-.3-.56.3-1.5.6-.86.95-1.79,1.05-2.79.1-1,.15-3.82.15-8.47,0-5.92-.17-9.04-.5-9.37s-.8-.46-1.39-.4c-.2.07-.43.1-.7.1-.6,0-.9-.16-.9-.5,0-.6.63-1.43,1.89-2.49.27-.27.75-.71,1.45-1.35.7-.63,1.15-1.05,1.35-1.25ZM404.73,13.51c0-.46.3-.83.9-1.1.6-.26,1.06-.2,1.4.2,1.13,1.26,2.13,1.9,2.99,1.9.53,0,.8.33.8,1,0,.8-.27,1.46-.8,1.99-2.19,2.73-3.56,4.09-4.09,4.09-.4,0-1-.28-1.79-.85-.8-.57-1.33-.91-1.6-1.05-.47-.2-.93-.56-1.4-1.1-.47-.53-.7-.93-.7-1.2s.15-.52.45-.75c.3-.23.58-.35.85-.35s.83-.4,1.69-1.2c.86-.8,1.3-1.33,1.3-1.6Z"/>
        <path class="cls-1" d="M406.13,57.23c-.51,0-1.63-.4-5.45-3.85-.46-.47-.72-.53-.83-.53-.23-.03-.37-.14-.44-.29-.14-.31.02-.8.53-1.59.58-.83.91-1.73,1.01-2.68.1-.99.15-3.84.15-8.45,0-7.78-.3-9.03-.43-9.2-.27-.27-.66-.38-1.19-.32-.17.06-.43.1-.73.1-.95,0-1.15-.41-1.15-.75,0-.68.65-1.56,1.98-2.68.26-.26.75-.71,1.44-1.34.69-.62,1.14-1.04,1.34-1.24l.02-.02c1.17-.96,1.24-.96,1.35-.96.4,0,.84.21,1.36.66,4.46,3,4.97,4.22,4.97,4.88,0,.2-.09.4-.27.58-.06.18-.22,1.77-.22,9.99s.16,9.82.26,10.03c.07.06.32.18.89.18,1.43,0,1.65.78,1.65,1.25,0,.37-.31,1.11-2.72,3.52s-3.14,2.71-3.52,2.71ZM399.87,52.35c.32,0,.7.22,1.15.67,3.39,3.07,4.65,3.71,5.11,3.71.18,0,.84-.25,3.16-2.57s2.57-2.99,2.57-3.16c0-.2,0-.75-1.15-.75-.61,0-1.02-.12-1.27-.37-.15-.15-.37-.37-.37-10.35s.22-10.2.37-10.35c.08-.08.13-.16.13-.22,0-.58-.83-1.82-4.78-4.48-.41-.35-.75-.53-1.01-.55-.08.05-.33.22-1.07.83-.21.21-.66.63-1.35,1.25-.69.62-1.17,1.07-1.44,1.34-1.51,1.27-1.82,1.96-1.82,2.32,0,.16.22.25.65.25.24,0,.45-.03.62-.09.73-.08,1.26.07,1.65.46.19.19.57.57.57,9.55,0,4.63-.05,7.49-.15,8.5-.1,1.04-.47,2.02-1.09,2.91-.57.89-.49,1.1-.49,1.11h0ZM405.93,21.84c-.46,0-1.09-.29-1.94-.89-.97-.69-1.38-.94-1.56-1.03-.49-.21-.99-.6-1.47-1.16-.52-.59-.76-1.02-.76-1.36s.18-.66.54-.95c.35-.27.68-.4,1-.4.05,0,.36-.05,1.52-1.13,1.18-1.09,1.22-1.38,1.22-1.41,0-.57.35-1.02,1.04-1.33.88-.39,1.41-.07,1.69.27,1.07,1.2,2.01,1.81,2.8,1.81.39,0,1.05.16,1.05,1.25,0,.86-.29,1.59-.87,2.17-2.96,3.69-3.84,4.16-4.26,4.16ZM406.28,12.51c-.15,0-.33.04-.55.14-.5.22-.75.51-.75.87,0,.25-.16.66-1.38,1.78-1.21,1.11-1.62,1.26-1.86,1.26-.21,0-.44.1-.69.3-.23.18-.35.37-.35.55,0,.09.06.38.64,1.03.44.5.88.85,1.31,1.03.3.15.84.51,1.64,1.07.93.66,1.41.8,1.65.8.21,0,.99-.39,3.89-3.99.51-.51.74-1.1.74-1.84,0-.66-.28-.75-.55-.75-.95,0-1.99-.65-3.18-1.98-.11-.13-.27-.27-.56-.27Z"/>
      </g>
      <g>
        <path class="cls-1" d="M425.57,55.19c-.13,0-.63.4-1.5,1.2l-1.3,1.1-1.1-1.1c-1.26-1.26-2.66-2.49-4.19-3.69-.73-.6-1.1-1.26-1.1-1.99,0-.6.1-1,.3-1.2.13-.07.2-1.33.2-3.79,0-2.19.15-3.52.45-3.99.3-.46,1.35-1.16,3.14-2.09,1.99-.93,2.99-1.63,2.99-2.09,0-.2-.1-.43-.3-.7-.14-.13-.33-.43-.6-.9-.27-.46-.4-.73-.4-.8-.2-.53-.93-1.36-2.19-2.49l-1.79-1.69.4-.8c.2-.4.63-.88,1.3-1.44.66-.56,1.13-.85,1.4-.85.13,0,.3-.08.5-.25.2-.16.4-.35.6-.55l.4-.4c.8-.4,2.13-1.53,3.99-3.39.6-.73,1.13-.86,1.6-.4.27.27,2.26,1.33,5.98,3.19,2.39,1.26,3.62,1.93,3.69,1.99.2.2.13.7-.2,1.5-.27.73-.4,4.22-.4,10.47v9.37c1.33.67,2.06,1,2.19,1,.8,0,1.03.4.7,1.2-.27.47-1.26,1.48-2.99,3.04-1.73,1.56-2.73,2.34-2.99,2.34-.4,0-1.33-.73-2.79-2.19-1.33-1.33-2.23-1.99-2.69-1.99s-1.1.4-1.89,1.2l-1.4,1.2ZM424.57,29.76c-.8-.6-1.39-.76-1.79-.5-.47.27-.6.66-.4,1.2.06.46.63,1.66,1.69,3.59,1.06,1.93,1.69,2.96,1.89,3.09.13.07.38.03.75-.1.37-.13.78-.3,1.25-.5.46-.2.76-.33.9-.4.46-.13.75-.28.85-.45.1-.16.15-.58.15-1.25,0-.73-.1-1.3-.3-1.69-.14-.27-.98-.81-2.54-1.65-1.56-.83-2.38-1.28-2.44-1.35ZM429.56,43.92v-1.5c0-2.79-.2-4.19-.6-4.19-.27,0-.76.27-1.5.8-.27.13-.63.37-1.1.7-.46.33-.76.53-.9.6-.6.4-.87,1-.8,1.79,0,.66.07,1.99.2,3.99l.2,2.69,1.5.8c1.66.8,2.59.93,2.79.4.13-.26.2-2.29.2-6.08Z"/>
        <path class="cls-1" d="M422.77,57.82l-1.26-1.26c-1.25-1.25-2.65-2.49-4.16-3.67-.79-.65-1.19-1.38-1.19-2.19,0-.66.12-1.11.36-1.36.05-.14.14-.79.14-3.62,0-3.02.28-3.8.49-4.12.32-.5,1.38-1.22,3.23-2.18,2.72-1.27,2.86-1.78,2.86-1.87,0-.14-.08-.33-.25-.55-.13-.12-.33-.43-.62-.92-.34-.59-.41-.77-.43-.86-.2-.49-.91-1.28-2.11-2.37l-1.93-1.83.48-.96c.22-.43.66-.93,1.36-1.52.95-.8,1.33-.91,1.56-.91.03,0,.12-.01.34-.19.19-.16.39-.34.58-.53l.46-.45c.77-.38,2.09-1.51,3.92-3.34.39-.47.77-.72,1.15-.74.29,0,.55.1.8.34.14.14,1.09.73,5.92,3.14,3.63,1.92,3.7,1.99,3.75,2.04.29.29.24.83-.15,1.77-.17.47-.38,2.67-.38,10.37v9.22c1.56.78,1.89.89,1.96.9h0c.45,0,.77.13.94.39.18.28.17.65-.04,1.16-.29.52-1.29,1.54-3.05,3.13-2.66,2.41-2.98,2.41-3.16,2.41-.33,0-.96-.26-2.97-2.27-1.67-1.67-2.29-1.92-2.52-1.92-.27,0-.79.2-1.72,1.12l-1.48,1.27h-.07c-.07.03-.36.21-1.35,1.13l-1.48,1.25ZM416.85,49.7c-.09.1-.21.36-.21,1s.33,1.25,1.01,1.8c1.52,1.19,2.94,2.44,4.21,3.71l.93.93,1.12-.95c1.05-.97,1.38-1.19,1.54-1.24l1.34-1.15c.84-.84,1.52-1.26,2.06-1.26.34,0,1.01.21,2.87,2.07,1.96,1.97,2.5,2.12,2.61,2.12.08-.02.56-.23,2.82-2.28,2.12-1.91,2.77-2.67,2.94-2.98.12-.29.15-.54.07-.66-.07-.11-.27-.16-.55-.16-.1,0-.26,0-2.3-1.02l-.14-.07v-9.53c0-6.33.13-9.79.41-10.55.43-1.04.27-1.23.26-1.23-.07-.05-.78-.44-3.63-1.95-5.03-2.51-5.86-3.05-6.04-3.23-.14-.14-.3-.22-.42-.2-.23.01-.51.21-.81.58-1.89,1.89-3.2,3.01-4.03,3.44l-.37.37c-.21.21-.41.39-.62.56-.25.21-.46.31-.66.31-.07,0-.37.06-1.23.79-.64.54-1.05,1-1.23,1.37l-.32.63,1.66,1.57c1.3,1.17,2.04,2.02,2.26,2.59l.02.09s0,.05.37.67c.31.56.48.77.56.84.26.34.37.62.37.88,0,.42-.37,1.03-3.14,2.32-2.17,1.12-2.85,1.71-3.03,2-.19.29-.41,1.19-.41,3.85,0,3.54-.13,3.88-.29,3.99ZM428.77,50.57c-.52,0-1.27-.24-2.31-.74l-1.63-.87-.21-2.83c-.13-1.99-.2-3.34-.2-4.01-.07-.87.23-1.55.91-2,.1-.05.3-.17.89-.59.47-.34.85-.58,1.13-.72,1.01-.74,1.4-.82,1.61-.82.43,0,.85.34.85,4.44v1.5c0,5.74-.16,6.06-.23,6.19-.06.17-.2.31-.39.39-.12.05-.26.07-.42.07ZM425.31,48.65l1.37.73c1.56.75,2.12.73,2.32.65.06-.03.1-.06.12-.12.06-.15.18-.99.18-5.99v-1.5c0-3.47-.32-3.9-.39-3.95-.06.01-.38.08-1.31.76-.29.15-.65.38-1.1.7-.48.34-.78.54-.93.62-.5.33-.72.84-.66,1.55,0,.68.07,2.01.2,3.99l.19,2.55ZM426.14,37.42c-.11,0-.21-.02-.29-.06-.14-.09-.38-.25-2-3.19-1.09-1.97-1.66-3.17-1.72-3.67-.23-.59-.05-1.12.52-1.45.49-.33,1.17-.16,2.07.51l.02.02c.07.05.44.27,2.39,1.31,2.14,1.14,2.54,1.53,2.65,1.75.22.44.33,1.03.33,1.81,0,.95-.1,1.24-.19,1.38-.13.23-.45.4-.99.56-.09.05-.39.19-.87.39-.47.2-.89.37-1.26.51-.27.1-.49.15-.66.15ZM423.21,29.39c-.11,0-.2.02-.29.08-.38.21-.46.48-.3.9.05.35.38,1.2,1.68,3.55,1.4,2.55,1.74,2.94,1.81,3,0,0,.12.02.52-.12.36-.13.77-.3,1.23-.49.46-.2.75-.33.88-.39.62-.18.73-.33.75-.35.03-.05.11-.25.11-1.12,0-.69-.09-1.22-.27-1.58-.04-.08-.33-.41-2.44-1.54-2.14-1.14-2.42-1.31-2.49-1.37-.37-.28-.84-.56-1.21-.56Z"/>
      </g>
      <g>
        <path class="cls-1" d="M467.55,57.68c-.14,0-.42-.2-.85-.6-.43-.4-.68-.6-.75-.6-.13,0-.8-.6-1.99-1.79s-1.79-2.03-1.79-2.49c0-.13.07-.27.2-.4.53-.6.8-4.15.8-10.67v-8.28l-1.2-1.2c-.86-.86-1.36-1.3-1.5-1.3-.2,0-.3-.06-.3-.2,0-.33-.27-.5-.8-.5s-1.06.17-1.6.5l-1.1.6v9.37l-.1,9.27c.33.33.7.62,1.1.85.4.23.7.42.9.55.2.14.3.3.3.5,0,.33-.9,1.39-2.69,3.19-1.93,1.93-3.13,2.89-3.59,2.89-.13,0-.28-.05-.45-.15-.17-.1-.38-.26-.65-.5-.27-.23-.53-.45-.8-.65-.73-.53-1.13-.86-1.2-1-.27-.26-.46-.4-.6-.4s-.3-.1-.5-.3c-1.46-1.26-2.19-1.96-2.19-2.09,0-.07.33-.43,1-1.1l.9-1,.3-3.39c.27-3.19.4-6.38.4-9.57,0-2.86-.1-4.59-.3-5.19-.27-1.06-1-1.59-2.19-1.59h-.3c-.46.07-.75.03-.85-.1-.1-.13-.15-.46-.15-1,0-.46.63-1.13,1.9-1.99,1.2-.86,2.26-1.76,3.19-2.69.93-.93,1.46-1.39,1.6-1.39.46,0,1.6.93,3.39,2.79,1.26,1.26,2.06,1.89,2.39,1.89.53,0,1.23-.4,2.09-1.2.4-.33.86-.73,1.39-1.2s1-.86,1.4-1.2c.53-.53,1-.8,1.4-.8s1.03.33,1.89,1c2.86,2.19,4.35,3.29,4.49,3.29.27,0,.63.2,1.1.6.53.47.7.9.5,1.3-.27.4-.46.63-.6.7s-.2,3.16-.2,9.27c.07,6.12.23,9.37.5,9.77.26.4.66.6,1.2.6.33,0,.65.12.95.35.3.23.45.48.45.75,0,.2-1.03,1.33-3.09,3.39s-3.19,3.09-3.39,3.09Z"/>
        <path class="cls-1" d="M467.55,57.93c-.18,0-.42-.11-1.02-.66-.42-.39-.58-.5-.63-.54-.15-.02-.46-.2-2.12-1.87-1.67-1.67-1.87-2.32-1.87-2.67,0-.2.09-.4.27-.58.26-.3.72-2.07.72-10.49v-8.17l-1.12-1.12c-1.06-1.06-1.31-1.21-1.37-1.23-.34.03-.5-.23-.5-.44,0-.07,0-.25-.55-.25-.49,0-.97.15-1.46.46l-.98.54v9.22l-.1,9.17c.29.28.62.53.97.74.41.24.71.42.91.56.27.19.41.42.41.71,0,.31-.33.94-2.77,3.37-2.63,2.63-3.39,2.96-3.77,2.96-.18,0-.38-.06-.58-.19-.18-.11-.41-.28-.68-.52-.26-.23-.52-.44-.78-.64-.9-.66-1.16-.9-1.25-1.04-.29-.29-.4-.3-.4-.3h0c-.2,0-.42-.12-.67-.37-2.27-1.96-2.27-2.11-2.27-2.27,0-.13,0-.2,1.07-1.27l.83-.93.29-3.31c.26-3.17.4-6.38.4-9.55,0-3.51-.16-4.71-.29-5.11-.24-.96-.88-1.42-1.96-1.42h-.3c-.55.08-.88.02-1.05-.2-.09-.12-.2-.36-.2-1.15,0-.57.64-1.26,2-2.2,1.18-.85,2.24-1.75,3.15-2.66,1.47-1.47,1.63-1.47,1.77-1.47.37,0,1.12.33,3.57,2.87,1.73,1.73,2.15,1.82,2.21,1.82.32,0,.91-.2,1.92-1.13.41-.34.87-.74,1.4-1.2.53-.47,1-.87,1.4-1.2.57-.57,1.09-.86,1.56-.86s1.12.33,2.05,1.05c3.38,2.59,4.2,3.15,4.38,3.24.32.02.72.23,1.21.66.63.55.81,1.09.56,1.6-.31.47-.5.66-.62.75-.06.35-.15,2.06-.15,9.11.08,7.87.32,9.41.46,9.63.22.33.54.49.99.49.39,0,.76.13,1.1.4.36.29.54.6.54.95,0,.17,0,.4-3.16,3.57-3.16,3.16-3.39,3.16-3.57,3.16ZM466.03,56.24c.06,0,.2.06.84.66.42.39.6.49.66.52.17-.1.82-.6,3.23-3.01,2.6-2.6,2.98-3.15,3.02-3.26,0-.14-.12-.32-.36-.5-.26-.2-.52-.29-.79-.29-.62,0-1.09-.24-1.41-.71-.13-.2-.44-.66-.54-9.91,0-9.33.13-9.39.34-9.5.02-.01.16-.09.5-.61.04-.08.2-.4-.46-.97-.54-.46-.82-.54-.93-.54-.14,0-.28,0-4.64-3.34-1.02-.78-1.51-.95-1.74-.95-.33,0-.74.24-1.22.72-.42.35-.88.75-1.41,1.21-.53.47-1,.87-1.4,1.2-.91.84-1.65,1.25-2.25,1.25-.28,0-.83-.22-2.57-1.97-2.37-2.45-3.04-2.72-3.21-2.72,0,.01-.27.17-1.42,1.32-.93.93-2.02,1.85-3.22,2.72-1.62,1.11-1.79,1.62-1.79,1.79,0,.7.09.83.1.85h0s.12.07.61,0h.33c1.3,0,2.14.61,2.43,1.78.21.61.31,2.33.31,5.25,0,3.18-.13,6.41-.4,9.59l-.31,3.47-.95,1.06c-.56.56-.79.82-.89.94.14.17.61.64,2.06,1.9.24.24.33.24.33.24.21,0,.45.15.77.47l.05.07s.17.22,1.12.91c.27.21.54.43.82.66.25.22.46.38.61.47.13.08.23.11.32.11.18,0,.87-.27,3.41-2.82,2.38-2.38,2.61-2.91,2.62-3.02,0-.07-.02-.17-.19-.29-.19-.13-.49-.31-.88-.54-.42-.25-.81-.54-1.15-.89l-.07-.07.1-9.38v-9.52l1.23-.67c.56-.35,1.14-.53,1.72-.53.86,0,1.03.41,1.05.7.01,0,.03,0,.05,0,.13,0,.3,0,1.67,1.37l1.27,1.27v8.38c0,8.84-.49,10.42-.86,10.83-.07.07-.14.15-.14.23,0,.22.22.82,1.72,2.32,1.46,1.46,1.8,1.7,1.88,1.73,0,0,.01,0,.02,0Z"/>
      </g>
      <g>
        <path class="cls-1" d="M486.99,26.47c.2,0,.65-.3,1.35-.9.7-.6,1.11-.9,1.25-.9.07,0,.8-.53,2.19-1.59.06-.07.23-.17.5-.3.27-.13.43-.23.5-.3.46-.4,1-.33,1.59.2,1.46,1.33,2.69,1.99,3.69,1.99.33,0,.53.1.6.3.07.13.57.27,1.5.4.8.07,1.46-.1,1.99-.5,1-.93,1.63-.86,1.89.2,0,.07.02.15.05.25.03.1.05.18.05.25,0,.53-.28,1.13-.85,1.79-.57.66-.88,1.1-.95,1.3-.4.66-1.43,1.93-3.09,3.79-1.26,1.4-1.43,2.09-.5,2.09.13,0,.27.07.4.2.07.13.43.43,1.1.9.66.47,1.06.7,1.2.7.2,0,.6.2,1.2.6l1.1.6v6.08c0,3.86-.13,5.98-.4,6.38-.33.33-.78.67-1.35,1-.57.33-1.25.7-2.04,1.1s-1.4.7-1.79.9c-1.2.73-1.86,1.1-1.99,1.1-.2,0-.8.37-1.79,1.1-1,.73-1.79,1.4-2.39,1.99-.4.33-.82.53-1.25.6-.43.07-.71-.03-.85-.3,0-.07-1.13-.76-3.39-2.09-.4-.2-.87-.3-1.4-.3-.33,0-.73-.1-1.2-.3s-.83-.3-1.1-.3c-.07,0-.3.07-.7.2-1.26.67-2.23.67-2.89,0-.27-.26-.4-.6-.4-1,0-1.26,1.06-2.69,3.19-4.29.66-.4,1.06-.76,1.2-1.1.13-.2.33-.3.6-.3s.8-.4,1.6-1.2c.86-.8,1.3-1.43,1.3-1.9s-.6-1-1.79-1.59-1.89-.9-2.09-.9c-.07,0-.3-.2-.7-.6-.33-.33-.5-1.2-.5-2.59,0-1.13-.07-2.89-.2-5.28l-.1-3.19,1-.9c.73-.6,1.16-.9,1.3-.9s.28-.13.45-.4c.17-.26.28-.4.35-.4.13,0,.55-.23,1.25-.7.7-.46,1.05-.73,1.05-.8,0-.13.1-.2.3-.2ZM493.97,42.42c-.87-.53-1.4-.8-1.6-.8-.27,0-.76.47-1.5,1.4-.4.6-1.1,1.4-2.09,2.39-.73.73-1.16,1.23-1.3,1.5-.14.27,0,.5.4.7,1.26.4,2.42.93,3.49,1.59,1.06.67,1.96,1.16,2.69,1.5.4.2.7.3.9.3.4,0,.63-1.16.7-3.49v-1.5c0-1.13-.1-1.88-.3-2.24-.2-.36-.66-.81-1.39-1.35ZM490.58,29.36c-.07-.06-.22-.11-.45-.15-.23-.03-.38-.02-.45.05,0,.53-.03,1.1-.1,1.69-.07,1.06.03,1.83.3,2.29.27.4.37.96.3,1.7-.07,1.06.46,1.83,1.6,2.29.46.2.76.28.9.25.13-.03.36-.25.7-.65,1.99-2.66,2.99-4.05,2.99-4.19,0-.26-.57-.66-1.69-1.2-2.59-1.2-3.96-1.9-4.09-2.09Z"/>
        <path class="cls-1" d="M490.48,58.05c-.47,0-.7-.22-.81-.43-.13-.1-.75-.51-3.31-2.02-.35-.17-.78-.27-1.27-.27-.37,0-.8-.11-1.29-.32-.54-.23-.84-.28-1-.28-.02,0-.14.03-.62.19-1.33.71-2.4.69-3.15-.06-.31-.31-.47-.71-.47-1.17,0-1.36,1.08-2.83,3.29-4.49.79-.47,1.04-.8,1.12-.99.2-.31.48-.45.83-.45.03,0,.33-.03,1.42-1.12,1.01-.94,1.22-1.45,1.22-1.72,0-.16-.16-.62-1.66-1.37-1.6-.8-1.92-.87-1.98-.87-.13,0-.25-.04-.87-.67-.39-.39-.57-1.27-.57-2.77,0-1.12-.07-2.84-.2-5.27l-.1-3.31,1.08-.97c1.08-.89,1.31-.96,1.46-.96,0,0,.08-.03.24-.28.24-.39.38-.52.56-.52.02,0,.22-.06,1.11-.66.67-.44.88-.62.95-.68.04-.19.19-.36.54-.36.04,0,.28-.06,1.18-.84.9-.78,1.19-.93,1.35-.95.1-.06.51-.33,2.1-1.55.03-.04.15-.13.54-.33.34-.17.42-.24.44-.25.4-.35,1.06-.59,1.93.19,1.41,1.28,2.59,1.93,3.52,1.93.51,0,.72.21.81.41.07.04.34.15,1.32.29.72.06,1.32-.09,1.81-.45.6-.57,1.12-.79,1.54-.67.35.1.6.44.75,1.01,0,.08.01.14.04.23.04.13.06.24.06.33,0,.59-.3,1.25-.91,1.96-.71.84-.87,1.12-.9,1.21-.43.73-1.45,1.99-3.14,3.88-1.13,1.25-1.03,1.56-1.02,1.6.01.03.1.08.34.08.2,0,.39.09.58.27l.05.07s.14.19,1.02.8c.84.59,1.04.65,1.07.65h0c.16,0,.47.08,1.32.64l1.21.66v6.23c0,5.19-.24,6.21-.44,6.52-.38.39-.83.73-1.43,1.07-.58.34-1.27.71-2.06,1.11l-1.8.9c-1.83,1.12-2,1.12-2.11,1.12-.06,0-.36.1-1.65,1.05-.98.72-1.78,1.39-2.36,1.97-.45.38-.91.6-1.39.67-.1.02-.19.02-.28.02ZM490.12,57.4c.05.08.16.2.57.13.39-.06.76-.24,1.12-.54.59-.59,1.4-1.26,2.41-2,1.37-1.01,1.75-1.15,1.94-1.15.03-.01.33-.12,1.86-1.06l1.81-.91c.78-.39,1.46-.76,2.03-1.09.55-.32.98-.64,1.29-.96.08-.12.33-1.05.33-6.2v-5.93l-.97-.53c-.81-.54-1.04-.57-1.08-.57-.14,0-.37-.06-1.34-.74-.83-.58-1.06-.81-1.15-.94-.06-.05-.13-.11-.2-.11-.42,0-.68-.13-.79-.38-.19-.42.15-1.08,1.1-2.13,1.64-1.84,2.67-3.1,3.06-3.75.03-.11.19-.41.97-1.33.52-.61.79-1.16.79-1.63,0-.02,0-.07-.04-.17-.04-.12-.06-.23-.06-.33-.06-.2-.18-.52-.39-.59-.13-.04-.45-.02-1.08.57-.6.45-1.33.64-2.19.57-1.43-.2-1.62-.36-1.7-.54-.05-.14-.23-.16-.37-.16-1.07,0-2.34-.67-3.86-2.06-.66-.58-1.04-.39-1.26-.19-.05.05-.17.14-.55.33-.35.17-.42.24-.43.25-2.19,1.67-2.26,1.67-2.37,1.67-.02,0-.23.11-1.08.84-.98.84-1.31.96-1.51.96-.02,0-.04,0-.05,0-.01.13-.14.27-1.16.95-.87.58-1.16.71-1.31.73-.03.03-.09.11-.21.29-.14.22-.36.52-.66.52-.02,0-.24.11-1.14.84l-.9.81.1,3.08c.13,2.43.2,4.16.2,5.29,0,1.73.27,2.26.42,2.41.38.39.53.5.58.53.21.02.67.18,2.15.92,1.32.66,1.93,1.24,1.93,1.82,0,.54-.45,1.22-1.38,2.08-1.12,1.12-1.53,1.26-1.76,1.26-.18,0-.3.06-.39.19-.13.34-.56.74-1.28,1.17-2.03,1.52-3.07,2.9-3.07,4.07,0,.33.11.6.32.82.58.58,1.43.57,2.6-.04.63-.21.74-.23.81-.23.3,0,.69.1,1.2.32.43.18.8.28,1.1.28.57,0,1.08.11,1.51.33,3.02,1.78,3.45,2.06,3.52,2.23ZM484.4,28.42h0,0ZM494.96,51.25c-.24,0-.57-.11-1.01-.32-.74-.34-1.66-.85-2.71-1.51-1.05-.65-2.2-1.18-3.43-1.57-.34-.17-.52-.34-.59-.56-.05-.16-.04-.33.05-.49.15-.29.58-.8,1.34-1.56.98-.98,1.67-1.78,2.06-2.36,1.05-1.33,1.45-1.51,1.71-1.51.19,0,.53.1,1.73.83h.02c.77.57,1.25,1.04,1.47,1.44.22.41.33,1.18.33,2.36v1.5c-.09,3.1-.44,3.74-.95,3.74ZM492.37,41.88s-.32.05-1.3,1.3c-.4.6-1.09,1.4-2.11,2.42-.88.88-1.17,1.26-1.25,1.43-.03.07-.02.1-.02.11.01.04.06.13.31.25,1.24.39,2.43.93,3.51,1.61,1.04.65,1.93,1.15,2.66,1.48.48.24.7.28.79.28.02-.02.36-.3.45-3.25v-1.49c0-1.35-.15-1.9-.27-2.12-.18-.33-.62-.75-1.31-1.26-1.13-.69-1.4-.75-1.46-.76ZM492.6,37.75c-.16,0-.42-.06-.93-.28-1.23-.51-1.82-1.36-1.75-2.54.06-.68-.03-1.19-.26-1.54-.3-.53-.41-1.32-.34-2.45.07-.62.1-1.17.1-1.68v-.1l.07-.07c.17-.17.46-.15.66-.12.29.04.48.11.59.21l.03.04c.09.09.66.48,3.99,2.01,1.62.76,1.84,1.13,1.84,1.42,0,.14,0,.29-3.04,4.34-.5.59-.7.71-.84.74-.03,0-.08.01-.13.01ZM489.93,29.45c0,.48-.04.98-.1,1.54-.06,1,.03,1.72.27,2.14.29.43.4,1.06.33,1.84-.06.95.41,1.62,1.44,2.04.58.25.73.24.75.24,0,0,.14-.06.56-.57,2.25-3,2.81-3.83,2.92-4.04-.05-.09-.3-.37-1.54-.95-3.58-1.65-4.04-2-4.16-2.15-.03-.01-.11-.05-.3-.08-.07,0-.12-.01-.16-.01Z"/>
      </g>
    </g>
  </g>
</svg>