<?xml version="1.0" encoding="UTF-8"?>
<svg id="Layer_2" data-name="Layer 2" xmlns="http://www.w3.org/2000/svg" viewBox="0 0 504.38 69">
  <defs>
    <style>
      .cls-1 {
        stroke: #231f20;
        stroke-miterlimit: 10;
        stroke-width: .5px;
      }
    </style>
  </defs>
  <g id="Layer_1-2" data-name="Layer 1">
    <g>
      <path class="cls-1" d="M11.22.65c.66-.27,2.16-.4,4.49-.4,2.13,0,3.92.13,5.38.4,1.33.27,3.06.4,5.18.4,2.46,0,3.85.13,4.19.4.33.27,2.62.4,6.88.4,3.26,0,5.28.05,6.08.15.8.1,1.2.38,1.2.85,0,.14-.37.57-1.1,1.3-.67.66-1.4,1.53-2.19,2.59-.73.93-1.16,1.39-1.3,1.39s-.33.27-.6.8c-.2.47-.7,1.16-1.5,2.09l-1.1,1.2-1.99.1h-2.09l-.1,8.77v3.49c0,2.93.13,4.87.4,5.83.27.96.4,3.74.4,8.32v7.98h1.4c.93,0,2.16-.41,3.69-1.25,1.53-.83,2.66-1.61,3.39-2.34.8-.8,1.36-1.2,1.69-1.2.2,0,.45.27.75.8.3.53.45.96.45,1.3,0,.07-.8.96-2.39,2.69-1.13,1.13-2.11,2.19-2.94,3.19s-1.81,2.06-2.94,3.19c-1.73,1.73-3.01,2.74-3.84,3.04-.83.3-2.91.45-6.23.45-3.66,0-5.52-.07-5.58-.2-.13-.2-.37-.3-.7-.3-.73,0-2.03-.4-3.89-1.2s-3.32-1.6-4.39-2.39c-1.53-1.13-3.03-2.54-4.49-4.24-1.46-1.69-2.49-3.34-3.09-4.93-.13-.33-.3-.68-.5-1.05-.2-.36-.35-.68-.45-.95-.1-.27-.15-.56-.15-.9,0-.4-.1-.63-.3-.7-.13-.13-.2-.53-.2-1.2s-.13-1.2-.4-1.6c-.27-.26-.4-1.36-.4-3.29,0-1.4.1-2.29.3-2.69.2-.27.36-.9.5-1.89.2-1.66.63-3.32,1.3-4.99.8-1.79,1.58-3.24,2.34-4.34.76-1.1,2.04-2.64,3.84-4.64.46-.53.9-1.03,1.3-1.5.4-.46.66-.76.8-.9.13-.13.31-.32.55-.55.23-.23.46-.41.7-.55.23-.13.61-.36,1.15-.7.46-.27.81-.48,1.05-.65.23-.16.32-.28.25-.35-2.06-.53-3.76-.8-5.09-.8-.8,0-1.33.14-1.6.4-.2.27-.66.4-1.4.4s-1.43.17-2.09.5-1.1.5-1.3.5c-.07,0-.63.53-1.69,1.6-.93,1-1.6,1.5-1.99,1.5s-.6-.2-.6-.6c0-.26.36-1.26,1.1-2.99.86-2.13,2.26-4.22,4.19-6.28,1.93-2.06,3.42-3.09,4.49-3.09.26,0,.66-.13,1.2-.4ZM17.1,42.42c.13-.13.38-.36.75-.7.37-.33.57-.52.6-.55s.13-.22.3-.55c.16-.33.25-.58.25-.75s.03-.51.1-1.05c.07-.53.1-1.05.1-1.55v-2.14c0-3.26-.14-5.02-.4-5.28-.33-.33-.5-2.59-.5-6.78s.16-6.58.5-6.78c.26-.26.4-.56.4-.9,0-1.26.66-2.56,1.99-3.89l1-1.1h-1.3c-1,0-1.99.3-2.99.9-.53.27-1.33.9-2.39,1.89s-1.66,1.66-1.79,1.99c-.14.4-.23.6-.3.6-.2,0-.68.83-1.44,2.49-.76,1.66-1.15,2.73-1.15,3.19,0,.33-.14.63-.4.9-.27.27-.4,1.53-.4,3.79s.13,3.56.4,4.09c.06.13.13.38.2.75.06.37.1.58.1.65.2,1.46.8,3.16,1.79,5.08,1,1.93,2.06,3.39,3.19,4.39l1.4,1.3ZM30.16,11.42c-.2-.2-.58-.35-1.15-.45-.57-.1-.91-.05-1.05.15-.13.13-.2,2.06-.2,5.78,0,5.98.1,9.04.3,9.17.2.13.3,1.6.3,4.39,0,2.99-.2,4.89-.6,5.68-.6,1.26-1.65,2.49-3.14,3.69-1.5,1.2-2.84,2.13-4.04,2.79-1.2.67-1.79,1.1-1.79,1.3,0,.33,1.23.93,3.69,1.79.2.07.76.17,1.69.3.93.13,1.5.3,1.69.5s.96.3,2.29.3c1.86,0,2.86-.13,2.99-.4.07-.13.1-.9.1-2.29,0-4.65-.1-7.18-.3-7.58-.13-.13-.23-4.25-.3-12.36-.07-8.11-.23-12.36-.5-12.76Z"/>
      <path class="cls-1" d="M57.58,12.71c.4-.2.7-.3.9-.3.4,0,.63.48.7,1.45.06.96.1,3.34.1,7.13,0,5.32.1,7.98.3,7.98s.36-.06.5-.2c.27-.26,1.6-1.33,3.99-3.19.73-.6,1.36-.9,1.89-.9.46,0,1.06.27,1.79.8.4.33,1.63,1.16,3.69,2.49,1.93,1.26,2.89,2.06,2.89,2.39,0,.13-.33.53-1,1.2l-.1,11.07-.2,11.07-.8,1.7c-1.2,2.33-3.29,4.59-6.28,6.78-3.06,1.99-5.09,2.99-6.08,2.99h-.1c-.07-.06-.14-.1-.2-.1-.6-.4-.2-1.13,1.2-2.19,1.73-1.33,3.02-3.12,3.89-5.38l.7-1.79v-22.53l-.8-.9c-.33-.46-1-.96-1.99-1.5l-1.3-.6-1,.5-.9.6-.1,9.27c0,6.32.07,9.57.2,9.77.27.4.66.7,1.2.9.6.27.9.5.9.7,0,.27-1.06,1.26-3.19,2.99-.73.6-1.33,1.2-1.79,1.79-.47.6-.83.9-1.1.9-.33,0-.9-.4-1.7-1.2-.86-.86-1.36-1.3-1.5-1.3-.07,0-.53-.3-1.4-.9s-1.3-1.2-1.3-1.79c0-.27.03-.48.1-.65.07-.16.13-.3.2-.4.07-.1.18-.22.35-.35.16-.13.31-.3.45-.5l.7-.9v-26.82l-.1-3.39-1-1.69c-.66-1.06-.9-1.79-.7-2.19.33-.6.83-.56,1.5.1.46.47.9.63,1.3.5.33-.13,1.13-.6,2.39-1.39,1.26-.8,1.96-1.3,2.09-1.5s.37-.36.7-.5Z"/>
      <path class="cls-1" d="M94.37,49.3c.13,0,.41-.3.85-.9.43-.6.75-.9.95-.9.8,0,1.2.33,1.2,1,0,.27-1.12,1.51-3.34,3.74-2.23,2.23-3.47,3.34-3.74,3.34-.13,0-.33.27-.6.8-.53.86-1.06,1.03-1.6.5-.53-.53-1.93-1.33-4.19-2.39-.33-.13-.62-.3-.85-.5-.23-.2-.48-.36-.75-.5-.33-.2-.83-.51-1.5-.95-.67-.43-1.16-.71-1.5-.85-.4-.27-.63-.46-.7-.6-.07-.13.05-.35.35-.65.3-.3.51-.55.65-.75.33-.6.5-3.16.5-7.68s-.17-7.04-.5-7.58c-.33-.6-.6-.9-.8-.9-.4,0-.37-.3.1-.9.07-.13.13-.23.2-.3.07-.07.22-.2.45-.4.23-.2.41-.36.55-.5.33-.33.53-.5.6-.5.13,0,.46-.16,1-.5.53-.33.86-.56,1-.7l1.99-1.3c1.33-.93,1.99-1.43,1.99-1.5.07-.07.32-.23.75-.5.43-.27.83-.55,1.2-.85.37-.3.55-.48.55-.55.13-.13.3-.2.5-.2.27,0,.43-.1.5-.3,0-.07.27-.27.8-.6.53-.33.8-.53.8-.6s.16-.16.5-.3c.46-.13.8-.1,1,.1.13.13.63,1,1.5,2.59,1.26,2.33,2.06,3.69,2.39,4.09.33.33.5.57.5.7,0,.07.38.5,1.15,1.3.76.8,1.15,1.26,1.15,1.4,0,.2-.18.47-.55.8-.37.33-.62.5-.75.5-.2,0-.37.17-.5.5-.07.07-.22.17-.45.3-.23.13-.47.27-.7.4s-.35.23-.35.3c0,.13-.22.28-.65.45-.43.17-.65.35-.65.55s-.13.3-.4.3-.5.1-.7.3c-.13.13-1.3.96-3.49,2.49-1.73,1.13-2.71,1.86-2.94,2.19-.23.33-.35,1.1-.35,2.29,0,1.13.08,1.86.25,2.19.16.33.68.76,1.55,1.3.53.33,1,.7,1.4,1.1s.66.6.8.6c.2,0,.4.17.6.5.26.27.51.32.75.15.23-.16.5-.4.8-.7.3-.3.55-.45.75-.45ZM88.39,29.76c-.14-.46-.3-.7-.5-.7-.27,0-.4,1.63-.4,4.89,0,2.39.02,3.81.05,4.24.03.43.18.65.45.65s.53-.08.8-.25c.26-.16.5-.28.7-.35.53-.13.8-.23.8-.3,0-.13.27-.33.8-.6.6-.33.9-.73.9-1.2s-.2-.93-.6-1.39c-1.66-2.39-2.66-4.05-2.99-4.99Z"/>
      <path class="cls-1" d="M138.34.65c.66-.27,2.16-.4,4.49-.4,2.13,0,3.92.13,5.38.4,1.33.27,3.06.4,5.18.4,2.46,0,3.85.13,4.19.4.33.27,2.62.4,6.88.4,3.26,0,5.28.05,6.08.15.8.1,1.2.38,1.2.85,0,.14-.37.57-1.1,1.3-.67.66-1.4,1.53-2.19,2.59-.73.93-1.16,1.39-1.3,1.39s-.33.27-.6.8c-.2.47-.7,1.16-1.5,2.09l-1.1,1.2-1.99.1h-2.09l-.1,8.77v3.49c0,2.93.13,4.87.4,5.83.27.96.4,3.74.4,8.32v7.98h1.4c.93,0,2.16-.41,3.69-1.25,1.53-.83,2.66-1.61,3.39-2.34.8-.8,1.36-1.2,1.69-1.2.2,0,.45.27.75.8.3.53.45.96.45,1.3,0,.07-.8.96-2.39,2.69-1.13,1.13-2.11,2.19-2.94,3.19s-1.81,2.06-2.94,3.19c-1.73,1.73-3.01,2.74-3.84,3.04-.83.3-2.91.45-6.23.45-3.66,0-5.52-.07-5.58-.2-.13-.2-.37-.3-.7-.3-.73,0-2.03-.4-3.89-1.2s-3.32-1.6-4.39-2.39c-1.53-1.13-3.03-2.54-4.49-4.24-1.46-1.69-2.49-3.34-3.09-4.93-.13-.33-.3-.68-.5-1.05-.2-.36-.35-.68-.45-.95-.1-.27-.15-.56-.15-.9,0-.4-.1-.63-.3-.7-.13-.13-.2-.53-.2-1.2s-.13-1.2-.4-1.6c-.27-.26-.4-1.36-.4-3.29,0-1.4.1-2.29.3-2.69.2-.27.36-.9.5-1.89.2-1.66.63-3.32,1.3-4.99.8-1.79,1.58-3.24,2.34-4.34.76-1.1,2.04-2.64,3.84-4.64.46-.53.9-1.03,1.3-1.5.4-.46.66-.76.8-.9.13-.13.31-.32.55-.55.23-.23.46-.41.7-.55.23-.13.61-.36,1.15-.7.46-.27.81-.48,1.05-.65.23-.16.32-.28.25-.35-2.06-.53-3.76-.8-5.09-.8-.8,0-1.33.14-1.6.4-.2.27-.66.4-1.4.4s-1.43.17-2.09.5-1.1.5-1.3.5c-.07,0-.63.53-1.69,1.6-.93,1-1.6,1.5-1.99,1.5s-.6-.2-.6-.6c0-.26.36-1.26,1.1-2.99.86-2.13,2.26-4.22,4.19-6.28,1.93-2.06,3.42-3.09,4.49-3.09.26,0,.66-.13,1.2-.4ZM144.22,42.42c.13-.13.38-.36.75-.7.37-.33.57-.52.6-.55s.13-.22.3-.55c.16-.33.25-.58.25-.75s.03-.51.1-1.05c.07-.53.1-1.05.1-1.55v-2.14c0-3.26-.14-5.02-.4-5.28-.33-.33-.5-2.59-.5-6.78s.16-6.58.5-6.78c.26-.26.4-.56.4-.9,0-1.26.66-2.56,1.99-3.89l1-1.1h-1.3c-1,0-1.99.3-2.99.9-.53.27-1.33.9-2.39,1.89s-1.66,1.66-1.79,1.99c-.14.4-.23.6-.3.6-.2,0-.68.83-1.44,2.49-.76,1.66-1.15,2.73-1.15,3.19,0,.33-.14.63-.4.9-.27.27-.4,1.53-.4,3.79s.13,3.56.4,4.09c.06.13.13.38.2.75.06.37.1.58.1.65.2,1.46.8,3.16,1.79,5.08,1,1.93,2.06,3.39,3.19,4.39l1.4,1.3ZM157.28,11.42c-.2-.2-.58-.35-1.15-.45-.57-.1-.91-.05-1.05.15-.13.13-.2,2.06-.2,5.78,0,5.98.1,9.04.3,9.17.2.13.3,1.6.3,4.39,0,2.99-.2,4.89-.6,5.68-.6,1.26-1.65,2.49-3.14,3.69-1.5,1.2-2.84,2.13-4.04,2.79-1.2.67-1.79,1.1-1.79,1.3,0,.33,1.23.93,3.69,1.79.2.07.76.17,1.69.3.93.13,1.5.3,1.69.5s.96.3,2.29.3c1.86,0,2.86-.13,2.99-.4.07-.13.1-.9.1-2.29,0-4.65-.1-7.18-.3-7.58-.13-.13-.23-4.25-.3-12.36-.07-8.11-.23-12.36-.5-12.76Z"/>
      <path class="cls-1" d="M188.48,22.78c.07-.2.35-.27.85-.2.5.07.81.23.95.5.2.33.43.5.7.5s.4.07.4.2c0,.2.06.3.2.3.33,0,1.73.83,4.19,2.49.93.66,1.73,1.1,2.39,1.3.86.2,1.3.57,1.3,1.1,0,.33-.17.76-.5,1.3-.33.53-.5,3.82-.5,9.87s-.07,9.01-.2,9.27c-.13.14-.3.2-.5.2s-.3.1-.3.3c0,.13-.17.2-.5.2s-.93.23-1.79.7c-.86.47-1.53.9-1.99,1.3-.66.53-1.03.8-1.1.8l-.6.4c-.07.14-.47.47-1.2,1-.13.14-.46.43-1,.9s-.9.8-1.1,1c-1.2,1.13-1.96,1.43-2.29.9-.47-.73-2.09-1.79-4.89-3.19l-2.79-1.39c-1.33-.66-1.99-1.26-1.99-1.79,0-.2.1-.5.3-.9.27-.53.4-3.85.4-9.97v-8.97l.9-.9c.53-.53,1.13-.96,1.79-1.3.66-.33,2.72-1.66,6.18-3.99.33-.26.75-.56,1.25-.9.5-.33.88-.56,1.15-.7l.3-.3ZM186.49,29.96c-1.06-.73-1.63-.93-1.7-.6,0,.14.03.37.1.7.07.33.1,3.36.1,9.07v8.18l1.99,1.1c.46.27.88.53,1.25.8.36.27.65.45.85.55.2.1.48.22.85.35.36.13.85.23,1.45.3l-.1-8.57c-.13-5.78-.23-8.74-.3-8.87-.14-.27-.5-.58-1.1-.95-.6-.36-1.26-.76-1.99-1.2-.73-.43-1.2-.71-1.39-.85Z"/>
      <path class="cls-1" d="M207.73,53.19c-.07,0-.48-.22-1.25-.65-.76-.43-1.21-.65-1.35-.65-.2,0-.57-.2-1.1-.6-.46-.4-.6-.8-.4-1.2s.3-3.26.3-8.57c0-6.31.23-9.94.7-10.87.07-.2.76-.76,2.09-1.7,1.33-.93,2.06-1.39,2.19-1.39s.55-.37,1.25-1.1c.7-.73,1.05-1.16,1.05-1.3s-.93-1.13-2.79-2.99c-1.79-1.79-2.69-2.89-2.69-3.29,0-.27.78-1.26,2.34-2.99,1.56-1.73,2.34-2.62,2.34-2.69.46-.86.93-.83,1.39.1.4.8,3.09,3.72,8.08,8.77l5.68,5.88c.26.33.4,3.92.4,10.77v10.37c-.8.47-1.63.93-2.49,1.4-.73.33-1.1.57-1.1.7s-.07.2-.2.2c-.27,0-1.4.71-3.39,2.14-1.99,1.43-3.32,2.44-3.99,3.04-.4.4-.7.6-.9.6s-.57-.23-1.1-.7c-.86-.8-2.33-1.69-4.39-2.69-.33-.13-.5-.27-.5-.4s-.07-.2-.2-.2ZM214.11,26.97c-.47-.4-.87-.6-1.2-.6-.47,0-.73.46-.8,1.39-.07.93-.1,3.96-.1,9.07v9.97l1.1.7c.73.47,1.1.76,1.1.9.13.14.23.2.3.2.13,0,.66.3,1.59.9s1.46.9,1.6.9c.46,0,.7-1.53.7-4.59.06-.33.1-.9.1-1.69v-2.49c0-1,.02-2.11.05-3.34.03-1.23.05-2.01.05-2.34,0-2.06-.14-3.35-.4-3.89-.73-1.73-2.09-3.42-4.09-5.08Z"/>
      <path class="cls-1" d="M238.83,55.39c-.07,0-.43.35-1.1,1.05-.67.7-1.1,1.05-1.3,1.05-.27,0-1-.6-2.19-1.79-1.4-1.26-2.59-2.26-3.59-2.99-.53-.33-.7-1.2-.5-2.59.2-.73.3-2.26.3-4.59,0-1.66.03-2.66.1-2.99.06-.33.26-.63.6-.9.86-.73,1.33-1.1,1.4-1.1.26,0,.96-.3,2.09-.9l1.69-1c.4-.13.6-.36.6-.7,0-.4-.37-1.26-1.1-2.59-.33-.6-1.33-1.63-2.99-3.09-.8-.73-1.1-1.33-.9-1.79.13-.33.63-.85,1.5-1.55.86-.7,1.43-1.05,1.69-1.05.13,0,.32-.13.55-.4.23-.27.38-.4.45-.4.2-.07.81-.55,1.85-1.45,1.03-.9,1.78-1.61,2.24-2.14.6-.66,1.2-.76,1.79-.3.33.33,2.49,1.5,6.48,3.49.53.27.9.4,1.1.4s.3.07.3.2.3.33.9.6c.6.27.9.6.9,1,0,.33-.1.6-.3.8-.2.13-.37.66-.5,1.6-.13.66-.2,3.59-.2,8.77s.07,7.84.2,8.37c.33,1.33.93,1.99,1.79,1.99.73,0,1.1.3,1.1.9,0,.46-.3,1-.9,1.59-2.93,2.86-4.59,4.29-4.98,4.29-.27,0-1.16-.71-2.69-2.14-1.53-1.43-2.33-2.14-2.39-2.14-.33-.13-.6-.13-.8,0-.2.14-.76.6-1.69,1.4-.8.73-1.3,1.1-1.5,1.1ZM238.63,30.26c-.86-.6-1.43-.9-1.69-.9-.8,0-1.2.33-1.2,1,0,.4.25,1.05.75,1.94.5.9.78,1.45.85,1.65.07.2.23.46.5.8s.4.57.4.7c0,.27.22.67.65,1.2.43.53.75.8.95.8.27,0,.4-.07.4-.2,0-.07.16-.16.5-.3.33-.13.7-.26,1.1-.4.4-.13.66-.23.8-.3.6-.33.9-.93.9-1.79,0-.73-.12-1.23-.35-1.5-.23-.27-.85-.66-1.84-1.2-1.33-.66-2.23-1.16-2.69-1.5ZM242.82,44.42c-.07-3.92-.17-5.88-.3-5.88-.2,0-.71.28-1.55.85-.83.57-1.41.88-1.74.95-.8.2-1.2.83-1.2,1.89,0,.2.07.57.2,1.1.2.73.3,1.89.3,3.49v2.19l1.89,1c1.26.6,1.99.83,2.19.7.2-.07.3-.86.3-2.39,0-.2-.02-.73-.05-1.6-.03-.86-.05-1.63-.05-2.29Z"/>
      <path class="cls-1" d="M275.62,44.42c0-.13-.05-1.94-.15-5.43-.1-3.49-.15-5.27-.15-5.33,0-.13-.6-.96-1.79-2.49-.47-.46-.7-.9-.7-1.3,0-.46.43-1.1,1.3-1.9.46-.4,1.03-.93,1.69-1.59,1.2-1,1.96-1.5,2.29-1.5.4,0,.86.27,1.4.8.53.53,1.08,1.18,1.65,1.94.56.76.95,1.25,1.15,1.45l.9.9v13.26c0,8.91-.1,13.69-.3,14.36-.27,1.06-1.36,2.23-3.29,3.49-.87.53-1.63,1.13-2.29,1.79-.6.6-1,.9-1.2.9-.07,0-1,.83-2.79,2.49-1.73,1.66-2.83,2.49-3.29,2.49-.4,0-.93-.16-1.6-.5-1.79-.8-3.19-1.2-4.19-1.2-.53,0-.87-.1-1-.3-.07-.13-.53-.2-1.4-.2-.8.07-1.3.07-1.5,0-.2-.06-.3-.26-.3-.6,0-.4,1.2-1.83,3.59-4.29,2.33-2.33,3.49-3.62,3.49-3.89,0-.13-.03-.23-.1-.3-.2-.4-.4-.6-.6-.6-.13,0-1.36-1-3.69-2.99-.93-.8-1.4-1.46-1.4-1.99,0-.2.17-.53.5-1,.4-.46.6-3.46.6-8.97,0-4.45-.05-7.11-.15-7.98-.1-.86-.48-1.6-1.15-2.19-.4-.4-.8-.53-1.2-.4-.67.13-1.03.2-1.1.2-.33,0-.5-.13-.5-.4,0-.53,1.06-1.86,3.19-3.99,2.19-2.19,3.36-3.29,3.49-3.29.2,0,.91.67,2.14,1.99,1.23,1.33,1.94,2.19,2.14,2.59.73.93.96,1.79.7,2.59-.2.4-.3,3.42-.3,9.07s-.1,8.47-.3,8.87c-.07.07-.1.2-.1.4,0,.47.51.98,1.55,1.55,1.03.57,1.74.85,2.14.85,1,0,1.64-.27,1.94-.8.3-.53.48-1.66.55-3.39,0-.53.02-1.18.05-1.94.03-.76.05-1.18.05-1.25ZM275.82,57.38c0-2.72-.17-4.09-.5-4.09-.07,0-.33.17-.8.5-.2.2-1.63,1.46-4.29,3.79-1.86,1.66-2.79,2.66-2.79,2.99,0,.27.36.4,1.1.4,1.06,0,2.46.43,4.19,1.3,1,.47,1.63.67,1.89.6.53-.13.86-.53,1-1.2.13-.66.2-2.09.2-4.29Z"/>
      <path class="cls-1" d="M317.1,1.05c.6-.27,1.1-.4,1.5-.4.27,0,.9.17,1.89.5.53.07,1.3.4,2.29,1,1,.6,1.86.9,2.59.9.66,0,1.23.1,1.7.3.4.13.73.2,1,.2.73,0,1.46-.36,2.19-1.1.4-.4.73-.6,1-.6.46,0,.7.4.7,1.2,0,.67-.17,1.16-.5,1.5-.33.33-.67.83-1,1.5-.2.53-.33.8-.4.8s-.17.2-.3.6c-.14.4-.28.83-.45,1.3-.17.47-.28.73-.35.8-.27.33-.42,1.3-.45,2.89-.03,1.6-.05,6.95-.05,16.05v18.35l.7.8c.33.4.6.63.8.7.2.07.73.03,1.59-.1,1.13-.13,1.7-.03,1.7.3,0,.2-.96,1.26-2.89,3.19-.27.4-1.13,1.3-2.59,2.69-1.46,1.4-2.26,2.09-2.39,2.09s-.43.23-.9.7c-.8.8-1.4.93-1.79.4-.27-.26-.5-.4-.7-.4s-.48-.13-.85-.4c-.37-.26-.65-.43-.85-.5-.4-.07-.9-.33-1.5-.8-.8-.6-2.33-1.4-4.59-2.39-.27-.13-.67.07-1.2.6-.33.33-.67.55-1,.65-.33.1-.62.07-.85-.1-.23-.17-.35-.41-.35-.75-.07-.46.13-.9.6-1.3,1.06-.73,2.53-2.23,4.39-4.49l1-1.4.1-14.85c.06-9.97.26-15.12.6-15.45.6-.73,1.1-1.56,1.5-2.49.13-.27.28-.55.45-.85.16-.3.28-.55.35-.75.07-.2.1-.46.1-.8,0-.53-.33-.8-1-.8h-1.1c-.27,0-.46-.03-.6-.1-.86-.6-2.26-.9-4.19-.9-.8,0-1.2.1-1.2.3s-.17.3-.5.3c-.4,0-.6.07-.6.2s-.27.25-.8.35c-.53.1-.93.12-1.2.05-.27-.07-.43-.35-.5-.85-.07-.5.03-.88.3-1.15l.9-1.2c.6-.8,1.06-1.26,1.4-1.39.27-.13,1.2-.93,2.79-2.39,1.26-1.26,2.42-2.09,3.49-2.49Z"/>
      <path class="cls-1" d="M351.89,29.86c-.33,0-1.06.33-2.19,1,.07,2.13.1,5.32.1,9.57s.03,7.45.1,9.57l.9.6c.66.4,1,.73,1,1,0,.2-.98,1.26-2.94,3.19-1.96,1.93-3.04,2.89-3.24,2.89s-.6-.23-1.2-.7c-1.33-1-2.73-2.13-4.19-3.39-.73-.6-1.1-.96-1.1-1.1,0-.2.3-.6.9-1.2.6-.66.96-1.58,1.1-2.74.13-1.16.27-4,.4-8.52,0-.8.02-1.73.05-2.79.03-1.06.05-1.76.05-2.09,0-1.79-.13-2.92-.4-3.39-.27-.46-.65-.81-1.15-1.05-.5-.23-.88-.25-1.15-.05-.33.27-.6.3-.8.1s-.3-.56-.3-1.1c0-.66.4-1.26,1.2-1.79,2.13-1.53,3.52-2.63,4.19-3.29.86-.86,1.33-1.26,1.4-1.2.13,0,.56.3,1.3.9,1,.8,2.13,1.86,3.39,3.19.27.4.63.6,1.1.6.53,0,1.13-.33,1.79-1,.73-.73,1.61-1.5,2.64-2.29,1.03-.8,1.65-1.2,1.85-1.2.26,0,.86.4,1.79,1.2,1.53,1.26,3.19,2.39,4.99,3.39.8.47,1.21.73,1.25.8.03.07-.08.47-.35,1.2l-.6.9.1,8.87c.06,6.25.3,9.57.7,9.97.13.13.4.2.8.2.93,0,1.4.37,1.4,1.1,0,.4-.7,1.26-2.09,2.59-.33.33-.7.68-1.1,1.05-.4.37-.73.72-1,1.05l-.5.5c-.93,1.13-1.56,1.59-1.89,1.39-.4-.2-1.3-1-2.69-2.39-1.39-1.4-2.16-2.23-2.29-2.49-.13-.4-.03-.8.3-1.2.26-.4.43-3.66.5-9.77l.1-9.07-1.1-1c-1.46-1.33-2.49-1.99-3.09-1.99Z"/>
      <path class="cls-1" d="M377.91,13.81c.46-.53.8-.8,1-.8.13,0,.25.07.35.2.1.14.23.33.4.6.16.27.31.47.45.6.13.13.3.32.5.55.2.23.43.52.7.85.26.33.5.6.7.8.93,1.06,3.06,3.26,6.38,6.58l4.99,4.98.1,10.27c0,7.05-.03,10.67-.1,10.87-.14.4-.37.63-.7.7-.33.14-1.05.48-2.14,1.05-1.1.57-1.78.98-2.04,1.25-.07.07-.2.15-.4.25-.2.1-.4.22-.6.35-.2.14-.3.23-.3.3,0,.13-.1.2-.3.2-.13,0-.53.27-1.2.8-1.4,1.26-2.63,2.26-3.69,2.99-.2.14-.48.14-.85,0-.37-.13-.55-.3-.55-.5,0-.13-.1-.2-.3-.2-.27,0-.76-.3-1.5-.9-.86-.66-2.89-1.86-6.08-3.59-1.6-.8-2.03-1.46-1.3-1.99.27-.2.43-3.42.5-9.67l.1-9.27.9-.9c.53-.53,1-.86,1.39-1l.5-.3c0-.2.07-.3.2-.3.53,0,1.33-.53,2.39-1.59.26-.27.46-.4.6-.4s.5-.43,1.1-1.3l-2.89-2.89c-1.93-1.93-2.89-3.02-2.89-3.29s.63-1.03,1.89-2.29c1-1,1.89-1.99,2.69-2.99ZM379.91,46.91c.8.8,1.23,1.2,1.3,1.2.13,0,.9.47,2.29,1.4,1,.73,1.76,1.1,2.29,1.1.26,0,.4-2.99.4-8.97,0-4.45-.03-7.13-.1-8.02-.07-.9-.23-1.58-.5-2.04-.33-.66-.63-1.13-.9-1.4-.07-.06-.22-.25-.45-.55-.23-.3-.42-.51-.55-.65-.27-.26-.78-.71-1.55-1.35-.76-.63-1.25-1.05-1.44-1.25s-.33-.3-.4-.3c-.27,0-.4,3.66-.4,10.97v9.87Z"/>
      <path class="cls-1" d="M402.54,24.58c.73-.6,1.13-.9,1.2-.9.33,0,.73.2,1.2.6,3.26,2.19,4.89,3.76,4.89,4.69,0,.14-.07.27-.2.4-.2.2-.3,3.59-.3,10.17s.1,9.97.3,10.17.57.3,1.1.3c.93,0,1.4.33,1.4,1,0,.47-.88,1.58-2.64,3.34s-2.88,2.64-3.34,2.64c-.73,0-2.49-1.26-5.28-3.79-.4-.4-.73-.6-1-.6-.4-.07-.3-.56.3-1.5.6-.86.95-1.79,1.05-2.79.1-1,.15-3.82.15-8.47,0-5.92-.17-9.04-.5-9.37s-.8-.46-1.39-.4c-.2.07-.43.1-.7.1-.6,0-.9-.16-.9-.5,0-.6.63-1.43,1.89-2.49.27-.27.75-.71,1.45-1.35.7-.63,1.15-1.05,1.35-1.25ZM404.73,13.51c0-.46.3-.83.9-1.1.6-.26,1.06-.2,1.4.2,1.13,1.26,2.13,1.9,2.99,1.9.53,0,.8.33.8,1,0,.8-.27,1.46-.8,1.99-2.19,2.73-3.56,4.09-4.09,4.09-.4,0-1-.28-1.79-.85-.8-.57-1.33-.91-1.6-1.05-.47-.2-.93-.56-1.4-1.1-.47-.53-.7-.93-.7-1.2s.15-.52.45-.75c.3-.23.58-.35.85-.35s.83-.4,1.69-1.2c.86-.8,1.3-1.33,1.3-1.6Z"/>
      <path class="cls-1" d="M425.57,55.19c-.13,0-.63.4-1.5,1.2l-1.3,1.1-1.1-1.1c-1.26-1.26-2.66-2.49-4.19-3.69-.73-.6-1.1-1.26-1.1-1.99,0-.6.1-1,.3-1.2.13-.07.2-1.33.2-3.79,0-2.19.15-3.52.45-3.99.3-.46,1.35-1.16,3.14-2.09,1.99-.93,2.99-1.63,2.99-2.09,0-.2-.1-.43-.3-.7-.14-.13-.33-.43-.6-.9-.27-.46-.4-.73-.4-.8-.2-.53-.93-1.36-2.19-2.49l-1.79-1.69.4-.8c.2-.4.63-.88,1.3-1.44.66-.56,1.13-.85,1.4-.85.13,0,.3-.08.5-.25.2-.16.4-.35.6-.55l.4-.4c.8-.4,2.13-1.53,3.99-3.39.6-.73,1.13-.86,1.6-.4.27.27,2.26,1.33,5.98,3.19,2.39,1.26,3.62,1.93,3.69,1.99.2.2.13.7-.2,1.5-.27.73-.4,4.22-.4,10.47v9.37c1.33.67,2.06,1,2.19,1,.8,0,1.03.4.7,1.2-.27.47-1.26,1.48-2.99,3.04-1.73,1.56-2.73,2.34-2.99,2.34-.4,0-1.33-.73-2.79-2.19-1.33-1.33-2.23-1.99-2.69-1.99s-1.1.4-1.89,1.2l-1.4,1.2ZM424.57,29.76c-.8-.6-1.39-.76-1.79-.5-.47.27-.6.66-.4,1.2.06.46.63,1.66,1.69,3.59,1.06,1.93,1.69,2.96,1.89,3.09.13.07.38.03.75-.1.37-.13.78-.3,1.25-.5.46-.2.76-.33.9-.4.46-.13.75-.28.85-.45.1-.16.15-.58.15-1.25,0-.73-.1-1.3-.3-1.69-.14-.27-.98-.81-2.54-1.65-1.56-.83-2.38-1.28-2.44-1.35ZM429.56,43.92v-1.5c0-2.79-.2-4.19-.6-4.19-.27,0-.76.27-1.5.8-.27.13-.63.37-1.1.7-.46.33-.76.53-.9.6-.6.4-.87,1-.8,1.79,0,.66.07,1.99.2,3.99l.2,2.69,1.5.8c1.66.8,2.59.93,2.79.4.13-.26.2-2.29.2-6.08Z"/>
      <path class="cls-1" d="M467.55,57.68c-.14,0-.42-.2-.85-.6-.43-.4-.68-.6-.75-.6-.13,0-.8-.6-1.99-1.79s-1.79-2.03-1.79-2.49c0-.13.07-.27.2-.4.53-.6.8-4.15.8-10.67v-8.28l-1.2-1.2c-.86-.86-1.36-1.3-1.5-1.3-.2,0-.3-.06-.3-.2,0-.33-.27-.5-.8-.5s-1.06.17-1.6.5l-1.1.6v9.37l-.1,9.27c.33.33.7.62,1.1.85.4.23.7.42.9.55.2.14.3.3.3.5,0,.33-.9,1.39-2.69,3.19-1.93,1.93-3.13,2.89-3.59,2.89-.13,0-.28-.05-.45-.15-.17-.1-.38-.26-.65-.5-.27-.23-.53-.45-.8-.65-.73-.53-1.13-.86-1.2-1-.27-.26-.46-.4-.6-.4s-.3-.1-.5-.3c-1.46-1.26-2.19-1.96-2.19-2.09,0-.07.33-.43,1-1.1l.9-1,.3-3.39c.27-3.19.4-6.38.4-9.57,0-2.86-.1-4.59-.3-5.19-.27-1.06-1-1.59-2.19-1.59h-.3c-.46.07-.75.03-.85-.1-.1-.13-.15-.46-.15-1,0-.46.63-1.13,1.9-1.99,1.2-.86,2.26-1.76,3.19-2.69.93-.93,1.46-1.39,1.6-1.39.46,0,1.6.93,3.39,2.79,1.26,1.26,2.06,1.89,2.39,1.89.53,0,1.23-.4,2.09-1.2.4-.33.86-.73,1.39-1.2s1-.86,1.4-1.2c.53-.53,1-.8,1.4-.8s1.03.33,1.89,1c2.86,2.19,4.35,3.29,4.49,3.29.27,0,.63.2,1.1.6.53.47.7.9.5,1.3-.27.4-.46.63-.6.7s-.2,3.16-.2,9.27c.07,6.12.23,9.37.5,9.77.26.4.66.6,1.2.6.33,0,.65.12.95.35.3.23.45.48.45.75,0,.2-1.03,1.33-3.09,3.39s-3.19,3.09-3.39,3.09Z"/>
      <path class="cls-1" d="M486.99,26.47c.2,0,.65-.3,1.35-.9.7-.6,1.11-.9,1.25-.9.07,0,.8-.53,2.19-1.59.06-.07.23-.17.5-.3.27-.13.43-.23.5-.3.46-.4,1-.33,1.59.2,1.46,1.33,2.69,1.99,3.69,1.99.33,0,.53.1.6.3.07.13.57.27,1.5.4.8.07,1.46-.1,1.99-.5,1-.93,1.63-.86,1.89.2,0,.07.02.15.05.25.03.1.05.18.05.25,0,.53-.28,1.13-.85,1.79-.57.66-.88,1.1-.95,1.3-.4.66-1.43,1.93-3.09,3.79-1.26,1.4-1.43,2.09-.5,2.09.13,0,.27.07.4.2.07.13.43.43,1.1.9.66.47,1.06.7,1.2.7.2,0,.6.2,1.2.6l1.1.6v6.08c0,3.86-.13,5.98-.4,6.38-.33.33-.78.67-1.35,1-.57.33-1.25.7-2.04,1.1s-1.4.7-1.79.9c-1.2.73-1.86,1.1-1.99,1.1-.2,0-.8.37-1.79,1.1-1,.73-1.79,1.4-2.39,1.99-.4.33-.82.53-1.25.6-.43.07-.71-.03-.85-.3,0-.07-1.13-.76-3.39-2.09-.4-.2-.87-.3-1.4-.3-.33,0-.73-.1-1.2-.3s-.83-.3-1.1-.3c-.07,0-.3.07-.7.2-1.26.67-2.23.67-2.89,0-.27-.26-.4-.6-.4-1,0-1.26,1.06-2.69,3.19-4.29.66-.4,1.06-.76,1.2-1.1.13-.2.33-.3.6-.3s.8-.4,1.6-1.2c.86-.8,1.3-1.43,1.3-1.9s-.6-1-1.79-1.59-1.89-.9-2.09-.9c-.07,0-.3-.2-.7-.6-.33-.33-.5-1.2-.5-2.59,0-1.13-.07-2.89-.2-5.28l-.1-3.19,1-.9c.73-.6,1.16-.9,1.3-.9s.28-.13.45-.4c.17-.26.28-.4.35-.4.13,0,.55-.23,1.25-.7.7-.46,1.05-.73,1.05-.8,0-.13.1-.2.3-.2ZM493.97,42.42c-.87-.53-1.4-.8-1.6-.8-.27,0-.76.47-1.5,1.4-.4.6-1.1,1.4-2.09,2.39-.73.73-1.16,1.23-1.3,1.5-.14.27,0,.5.4.7,1.26.4,2.42.93,3.49,1.59,1.06.67,1.96,1.16,2.69,1.5.4.2.7.3.9.3.4,0,.63-1.16.7-3.49v-1.5c0-1.13-.1-1.88-.3-2.24-.2-.36-.66-.81-1.39-1.35ZM490.58,29.36c-.07-.06-.22-.11-.45-.15-.23-.03-.38-.02-.45.05,0,.53-.03,1.1-.1,1.69-.07,1.06.03,1.83.3,2.29.27.4.37.96.3,1.7-.07,1.06.46,1.83,1.6,2.29.46.2.76.28.9.25.13-.03.36-.25.7-.65,1.99-2.66,2.99-4.05,2.99-4.19,0-.26-.57-.66-1.69-1.2-2.59-1.2-3.96-1.9-4.09-2.09Z"/>
    </g>
  </g>
</svg>