<?xml version="1.0" encoding="UTF-8"?>
<svg id="Layer_2" data-name="Layer 2" xmlns="http://www.w3.org/2000/svg" viewBox="0 0 142.36 71.96">
  <defs>
    <style>
      .cls-1 {
        fill: #fff;
      }
    </style>
  </defs>
  <g id="Layer_1-2" data-name="Layer 1">
    <g>
      <path class="cls-1" d="M47.89,12.18c0,.08-.31.49-.92,1.23-.61.74-.92,1.19-.92,1.35,0,.49-.53.74-1.6.74-.24,0-.64-.02-1.17-.06-.53-.04-.92-.06-1.17-.06-.74,0-1.19.08-1.35.25-.49.33-.74,4.02-.74,11.07s.16,10.95.49,11.69c.25.49.41,3.94.49,10.33l.12,9.35,1.48.12c.57.08,1.02.08,1.35,0,.33-.08.65-.2.98-.37s.66-.29.98-.37c.66-.16.98-.33.98-.49,0-.08.2-.2.62-.37,1.23-.41,2.58-1.35,4.06-2.83.9-.9,1.6-1.35,2.09-1.35s.86.41,1.11,1.23c.16.49.25.82.25.98,0,.33-.94,1.44-2.83,3.32-1.31,1.31-2.46,2.63-3.44,3.94-1.15,1.48-2.67,3.12-4.55,4.92-1.89,1.81-3.12,2.75-3.69,2.83-.49.08-.9.29-1.23.61-.08.16-2.34.25-6.77.25s-6.64-.08-6.64-.25-.25-.31-.74-.43c-.49-.12-1.03-.22-1.6-.31-.58-.08-.9-.16-.98-.25l-.86-.37c-.49-.16-1.01-.35-1.54-.55-.53-.2-.8-.35-.8-.43l-2.21-.86c-.08-.16-.53-.51-1.35-1.04-.82-.53-1.31-.8-1.48-.8-.33,0-1.4-.96-3.2-2.89-1.8-1.93-3.03-3.38-3.69-4.37-2.87-4.35-4.31-7.79-4.31-10.33,0-.57-.17-1.19-.49-1.84-.33-.41-.49-1.68-.49-3.81,0-1.64.12-2.71.37-3.2.33-.41.59-1.54.8-3.38.2-1.84.51-2.97.92-3.38.33-.33.49-.65.49-.98,0-.65.53-1.89,1.6-3.69l.62-1.23c.16-.41.31-.72.43-.92.12-.21.31-.43.55-.68s.49-.57.74-.98c.66-.98,1.64-2.13,2.95-3.44.41-.41,1-1.05,1.78-1.91.78-.86,1.29-1.41,1.54-1.66.98-.98,1.52-1.48,1.6-1.48.25,0,.37-.08.37-.25,0-.08.25-.27.74-.55.49-.29.96-.55,1.41-.8.45-.25.64-.45.55-.62-.16-.33-.66-.49-1.48-.49-.98-.16-2.42-.25-4.31-.25-1.48,0-2.34.08-2.58.25-.49.33-1.11.49-1.85.49-1.97.16-3.07.45-3.32.86-.16.33-.37.49-.61.49-.49,0-1.68,1.11-3.57,3.32-.25.33-.58.47-.98.43-.41-.04-.7-.22-.86-.55-.08-.16-.04-.53.12-1.11.9-1.89,1.35-3.07,1.35-3.57,0-.25.16-.53.49-.86.33-.33.53-.61.62-.86.65-1.07,1.11-1.72,1.35-1.97.49-.65.74-1.07.74-1.23,0-.25.76-1.13,2.27-2.64,1.52-1.52,2.44-2.27,2.77-2.27.25,0,.45-.12.61-.37.16-.16.7-.35,1.6-.55.9-.2,1.39-.35,1.48-.43.24-.33,2.54-.49,6.89-.49,3.28,0,5.04.12,5.29.37.33.33,2.21.49,5.66.49,2.62,0,4.8.1,6.52.31,1.72.21,3.52.31,5.41.31h2.95c.57,0,1.29-.02,2.15-.06.86-.04,1.46-.06,1.78-.06,3.12,0,4.67.41,4.67,1.23,0,.24-.53.98-1.6,2.21-2.38,2.54-3.77,4.14-4.18,4.8,0,.17-.19.43-.55.8-.37.37-.55.64-.55.8ZM23.41,43.92c0-3.94-.14-6.36-.43-7.26-.29-.9-.43-3.53-.43-7.87,0-5.08.16-7.79.49-8.12.25-.25.37-.61.37-1.11,0-.57.27-1.35.8-2.34.53-.98,1.09-1.76,1.66-2.34.74-.74,1.02-1.19.86-1.35-.08-.25-.37-.37-.86-.37-.33,0-.74.08-1.23.25s-.96.35-1.41.55c-.45.21-.72.31-.8.31-.57.16-.86.33-.86.49s-.17.25-.49.25c-.25,0-1.01.61-2.28,1.84s-1.91,1.93-1.91,2.09c0,.08-.37.68-1.11,1.78s-1.11,1.7-1.11,1.78-.27.76-.8,2.03c-.53,1.27-.8,1.99-.8,2.15,0,.58-.12,1.03-.37,1.35-.33.33-.49,1.89-.49,4.67,0,3.12.16,4.88.49,5.29.25.41.37.94.37,1.6,0,.9.27,2.03.8,3.38.53,1.35,1.04,2.46,1.54,3.32.49.86.78,1.29.86,1.29.16,0,.37.29.61.86.33.66,1.07,1.56,2.21,2.7l1.72,1.85c1.15-1.15,2.01-2.05,2.58-2.71v-6.4ZM37.19,14.76c-.33-.41-.86-.63-1.6-.68-.74-.04-1.19.14-1.35.55-.08.08-.12.98-.12,2.71,0,2.95.16,9.68.49,20.17l.25,5.66-.86,1.97c-.98,2.05-2.79,3.98-5.41,5.78-1.64.98-2.54,1.56-2.71,1.72-.58.41-.94.62-1.11.62-.41,0-.94.41-1.6,1.23-.49.66-.29.98.62.98.41,0,.61.08.61.25,0,.08.41.27,1.23.55.82.29,1.39.43,1.72.43s.53.12.61.37c.08.16.78.33,2.09.49s2.01.29,2.09.37c.25.25,1.27.37,3.07.37,1.97,0,2.99-.25,3.07-.74l.12-.74v-1.23c0-.33-.02-.94-.06-1.84-.04-.9-.06-1.6-.06-2.09,0-.82-.02-2.29-.06-4.43-.04-2.13-.08-4.82-.12-8.06-.04-3.24-.06-5.97-.06-8.18-.08-10.33-.37-15.74-.86-16.24Z"/>
      <path class="cls-1" d="M62.28,12.18c-.74-.98-1.11-1.6-1.11-1.85,0-.33.62-1.11,1.85-2.34s2.38-2.26,3.44-3.07c.49-.33,1.56-1.31,3.2-2.95,1.15-1.31,1.84-1.97,2.09-1.97.16,0,.41.19.74.55.33.37.49.64.49.8s1.02,1.27,3.07,3.32c2.38,2.3,3.57,3.81,3.57,4.55,0,.16-.04.29-.12.37-.08.08-.12,2.75-.12,8,0,13.04.12,20.34.37,21.9.08.82.33,1.52.74,2.09.41.49,1.29,1.21,2.64,2.15,1.35.94,2.36,1.54,3.01,1.78.9.33,1.76.21,2.58-.37.41-.25.9-.61,1.47-1.11s.98-.82,1.23-.98V14.02l-1.48-1.48c-.08-.08-.35-.33-.8-.74-.45-.41-.86-.76-1.23-1.04-.37-.29-.72-.43-1.05-.43-.25,0-.41.08-.49.25-.16.33-.45.25-.86-.25-.49-.57-.49-1.19,0-1.84.49-.82,1.39-1.95,2.71-3.38,1.31-1.43,2.17-2.4,2.58-2.89,1.06-1.23,1.8-1.84,2.21-1.84.33,0,1.23.47,2.7,1.41,1.48.94,2.21,1.5,2.21,1.66,0,.25.12.37.37.37s1.06.49,2.46,1.48c1.4,1.07,2.5,1.6,3.32,1.6.49,0,.8.04.92.12.12.08.18.33.18.74,0,.58-.21,1.07-.61,1.48-.41.41-.9,1.11-1.48,2.09l-.74,1.6v18.45c0,12.38.12,18.62.37,18.7.16.08.25.82.25,2.21v1.84l-2.71,2.71c-1.4,1.4-3.18,3.07-5.35,5.04-2.17,1.97-4.16,3.86-5.97,5.66l-4.43,4.43h-1.6c-.98,0-2.87-.57-5.66-1.72-2.71-1.07-4.18-1.6-4.43-1.6-.9,0-2.01-.29-3.32-.86-.08,0-.24-.06-.49-.18s-.41-.18-.49-.18-.25-.08-.49-.25-.51-.33-.8-.49c-.29-.16-.47-.29-.55-.37l2.46-2.58c1.8-1.8,2.83-2.95,3.07-3.44.33-.65.78-1.19,1.35-1.6.41-.25,1.43-1.48,3.07-3.69.57-.74,0-1.64-1.72-2.7-1.31-.82-2.3-1.56-2.95-2.21-.82-.65-1.35-.98-1.6-.98-.08,0-.53-.33-1.35-.98l-1.11-.74.12-17.96V11.56c-1.15-.74-1.97-1.11-2.46-1.11-.58,0-1.27.29-2.09.86l-1.23.86ZM91.56,49.08c-.08-1.97-.33-2.95-.74-2.95-.33,0-.98.49-1.97,1.48-1.15.98-1.77,1.48-1.84,1.48-.25,0-.7.33-1.35.98-.57.66-1.23,1.23-1.97,1.72-.9.66-2.11,1.76-3.63,3.32-1.52,1.56-2.28,2.5-2.28,2.83,0,.41.65.78,1.97,1.11,2.05.41,4.68,1.52,7.87,3.32.65.41,1.15.61,1.48.61.49,0,1.35-.53,2.58-1.6.57-.57.86-1.52.86-2.83,0-.9-.17-2.26-.49-4.06-.08-.49-.25-2.3-.49-5.41Z"/>
      <path class="cls-1" d="M122.43,1.6c.74-.33,1.35-.49,1.84-.49.33,0,1.11.21,2.34.61.66.08,1.6.49,2.83,1.23,1.23.74,2.29,1.11,3.2,1.11.82,0,1.52.12,2.09.37.49.16.9.25,1.23.25.9,0,1.8-.45,2.71-1.35.49-.49.9-.74,1.23-.74.57,0,.86.49.86,1.47,0,.82-.21,1.44-.61,1.85-.41.41-.82,1.03-1.23,1.84-.25.66-.41.98-.49.98s-.21.25-.37.74c-.17.49-.35,1.03-.55,1.6-.21.58-.35.9-.43.98-.33.41-.51,1.6-.55,3.57-.04,1.97-.06,8.57-.06,19.81v22.63l.86.98c.41.49.74.78.98.86.25.08.9.04,1.97-.12,1.4-.16,2.09-.04,2.09.37,0,.25-1.19,1.56-3.57,3.94-.33.49-1.4,1.6-3.2,3.32-1.81,1.72-2.79,2.58-2.95,2.58s-.53.29-1.11.86c-.98.98-1.72,1.15-2.21.49-.33-.33-.61-.49-.86-.49s-.6-.16-1.05-.49c-.45-.33-.8-.53-1.05-.61-.49-.08-1.11-.41-1.84-.98-.98-.74-2.87-1.72-5.66-2.95-.33-.16-.82.08-1.48.74-.41.41-.82.68-1.23.8-.41.12-.76.08-1.05-.12-.29-.21-.43-.51-.43-.92-.08-.57.16-1.11.74-1.6,1.31-.9,3.12-2.75,5.41-5.54l1.23-1.72.12-18.33c.08-12.3.33-18.66.74-19.07.74-.9,1.35-1.93,1.84-3.07.16-.33.35-.68.55-1.05.2-.37.35-.68.43-.92.08-.25.12-.57.12-.98,0-.65-.41-.98-1.23-.98h-1.35c-.33,0-.57-.04-.74-.12-1.07-.74-2.79-1.11-5.17-1.11-.98,0-1.48.12-1.48.37s-.21.37-.62.37c-.49,0-.74.08-.74.25s-.33.31-.98.43c-.66.12-1.15.15-1.48.06-.33-.08-.53-.43-.62-1.05-.08-.61.04-1.09.37-1.41l1.11-1.48c.74-.98,1.31-1.56,1.72-1.72.33-.16,1.48-1.15,3.44-2.95,1.56-1.56,2.99-2.58,4.31-3.07Z"/>
    </g>
  </g>
</svg>