<svg width="108" height="35" viewBox="0 0 108 35" fill="none" xmlns="http://www.w3.org/2000/svg">
<path d="M16.52 15.376V29.488C20.648 29.552 24.632 28.176 28.472 25.36L28.808 25.744C27.304 28.304 25.432 30.32 23.192 31.792C20.728 33.328 18.12 34.096 15.368 34.096C11.08 34.096 7.464 32.576 4.52 29.536C1.608 26.496 0.152 22.784 0.152 18.4C0.152 14.88 1.096 11.84 2.984 9.28C4.584 7.04 7.08 5.008 10.472 3.184L10.904 3.904C6.328 7.136 4.04 10.816 4.04 14.944C4.04 18.336 4.92 21.344 6.68 23.968C7.64 23.104 8.2 22.24 8.36 21.376C8.392 21.152 8.408 20.896 8.408 20.608C8.44 20.32 8.456 20 8.456 19.648V8.512L17.864 1.024C19.144 1.824 20.792 2.496 22.808 3.04C24.184 3.424 25.624 3.616 27.128 3.616H27.464H27.656C27.688 3.584 27.736 3.568 27.8 3.568L28.088 4.24L21.32 11.056L26.84 11.2L24.296 15.616L16.52 15.376ZM15.512 4.624L13.016 6.688V16.48C13.016 18.432 12.424 20.064 11.24 21.376C11.144 21.472 9.832 22.592 7.304 24.736C9.384 27.36 12.12 28.928 15.512 29.44V4.624ZM16.52 14.464L23.336 7.6C20.872 7.216 18.6 6.416 16.52 5.2V14.464ZM31.2459 7.504V1.984L45.7419 12.688C46.3819 11.792 47.1819 11.168 48.1419 10.816L48.3819 11.584C47.6779 12.32 47.3259 13.472 47.3259 15.04V30.736C44.6059 31.856 42.2539 33.136 40.2699 34.576C38.4779 33.36 36.7339 32.464 35.0379 31.888C33.9499 31.536 32.6859 31.28 31.2459 31.12V30.544C32.1739 29.808 32.6379 28.368 32.6379 26.224V13.984C34.4619 13.664 35.9979 13.024 37.2459 12.064L31.2459 7.504ZM37.5339 28.24L42.6219 30.64V16.048L38.7339 13.168C38.5419 13.36 38.3659 13.52 38.2059 13.648C38.0459 13.776 37.8219 13.936 37.5339 14.128V28.24ZM61.0479 30.688L56.0559 34.576C55.2239 33.712 54.4239 32.96 53.6559 32.32C52.9199 31.68 52.1999 31.152 51.4959 30.736V30.256C52.5199 29.904 53.0319 28.864 53.0319 27.136V14.848L51.3519 13.408L55.3359 10.288L59.3199 13.552L57.6879 15.04V29.872L59.0319 31.072L60.4719 29.872L61.0479 30.688ZM55.7679 6.16L56.9199 0.688L60.9039 0.831998L56.9199 6.256L55.7679 6.16ZM62.6866 13.072L69.4546 4.096V11.248H73.4866V13.84H69.4546V29.152C69.6146 29.28 69.8226 29.44 70.0786 29.632C70.3346 29.792 70.6386 30 70.9906 30.256L71.7586 30.832L73.2466 29.584L73.9186 30.4L68.8306 34.576C67.3266 32.944 65.4546 31.84 63.2146 31.264V30.592C64.2386 29.952 64.7506 28.736 64.7506 26.944V13.84H62.6866V13.072ZM89.9083 30.832C89.0763 31.184 88.3563 31.504 87.7483 31.792C87.1403 32.08 86.6603 32.32 86.3083 32.512C85.6683 32.864 85.0603 33.216 84.4843 33.568C83.9083 33.888 83.3963 34.224 82.9483 34.576C80.1323 32.464 77.2203 31.28 74.2123 31.024V30.4C74.9163 29.888 75.3003 29.312 75.3643 28.672C75.4283 27.968 75.4763 27.328 75.5083 26.752C75.5403 26.176 75.5563 25.648 75.5563 25.168V14.224C78.0523 13.456 80.3083 12.16 82.3243 10.336C84.6283 11.904 87.1563 13.056 89.9083 13.792V30.832ZM80.2122 14.032V28.576L85.2043 30.736V16.192L80.2122 14.032ZM92.0525 14.368L96.8045 10.288C98.4365 11.216 99.5565 12.512 100.165 14.176L104.533 10.192L107.989 14.464L104.725 17.488L101.893 13.984L99.9725 15.664V29.152L102.325 30.88L104.533 29.152L105.205 29.92L99.3965 34.576C97.4445 32.688 95.4925 31.552 93.5405 31.168V30.592C94.6285 29.984 95.1725 28.72 95.1725 26.8V17.104C95.1725 15.824 94.9485 14.912 94.5005 14.368L94.0205 13.888L92.6285 15.04L92.0525 14.368Z" fill="black"/>
</svg>
