<svg width="16" height="16" viewBox="0 0 16 16" fill="none" xmlns="http://www.w3.org/2000/svg">
<rect width="16" height="16" fill="white"/>
<path d="M6.60039 10.64C7.38706 10.4533 8.00706 9.95333 8.46039 9.14L8.62039 9.17C8.44706 9.88333 8.06706 10.4633 7.48039 10.91C6.88706 11.35 6.22372 11.57 5.49039 11.57C4.65706 11.57 3.94372 11.2933 3.35039 10.74C2.76372 10.18 2.47039 9.48 2.47039 8.64C2.47039 7.48667 3.08706 6.48 4.32039 5.62C4.28706 5.62 4.25039 5.62 4.21039 5.62C4.17706 5.61333 4.14372 5.60667 4.11039 5.6C4.07039 5.6 4.03372 5.59667 4.00039 5.59H3.89039C3.03706 5.59 2.42372 6.01667 2.05039 6.87L1.89039 6.8C2.05039 6.14 2.34372 5.63333 2.77039 5.28C3.20372 4.92 3.75372 4.74 4.42039 4.74C4.59372 4.74 4.80372 4.75667 5.05039 4.79C5.29706 4.81667 5.58706 4.86333 5.92039 4.93C6.58039 5.05 7.08039 5.11 7.42039 5.11C7.90706 5.11 8.25372 4.92667 8.46039 4.56L8.62039 4.61C8.58039 5.05 8.40706 5.39 8.10039 5.63C7.80039 5.87 7.42706 5.99 6.98039 5.99C6.94039 5.99 6.87706 5.98667 6.79039 5.98C6.70372 5.97333 6.64039 5.97 6.60039 5.97V10.64ZM6.38039 5.93C6.34039 5.92333 6.29039 5.91333 6.23039 5.9C6.17706 5.88667 6.11706 5.87333 6.05039 5.86C5.98372 5.84667 5.92039 5.83667 5.86039 5.83C5.80706 5.81667 5.76039 5.81 5.72039 5.81V8.32C5.72039 8.93333 5.54039 9.40333 5.18039 9.73C5.17372 9.73667 5.11372 9.78667 5.00039 9.88C4.88706 9.96667 4.71706 10.1033 4.49039 10.29C4.94372 10.5833 5.42039 10.73 5.92039 10.73H6.04039C6.08039 10.73 6.12039 10.73 6.16039 10.73C6.20039 10.7233 6.23706 10.7167 6.27039 10.71C6.28372 10.7033 6.30039 10.7 6.32039 10.7C6.34039 10.7 6.36039 10.6967 6.38039 10.69V5.93ZM4.72039 5.62C4.28706 5.83333 3.94706 6.18667 3.70039 6.68C3.47372 7.12667 3.36039 7.61 3.36039 8.13C3.36039 8.91 3.66706 9.57667 4.28039 10.13C4.57372 9.91667 4.72039 9.54333 4.72039 9.01V5.62ZM8.66383 11.59L8.54383 11.55C8.76383 10.8367 9.20049 10.45 9.85383 10.39C10.2272 10.3567 10.5105 10.29 10.7038 10.19C10.8772 10.0967 10.9638 9.84667 10.9638 9.44C10.9638 9.00667 10.8538 8.62333 10.6338 8.29C10.5005 8.09667 10.3038 8 10.0438 8C9.80383 8 9.57716 8.09667 9.36383 8.29L9.27383 8.22C9.56049 7.69333 9.93049 7.43 10.3838 7.43H10.4638C10.4905 7.43667 10.5172 7.44333 10.5438 7.45C10.5705 7.45 10.6138 7.45667 10.6738 7.47C10.7072 6.57667 11.0338 5.83 11.6538 5.23C11.6472 5.23667 11.6238 5.24667 11.5838 5.26C11.1972 5.39333 10.9205 5.46 10.7538 5.46C10.7205 5.46 10.6472 5.45333 10.5338 5.44C10.4272 5.42 10.2872 5.39333 10.1138 5.36C10.0805 5.35333 10.0438 5.35 10.0038 5.35C9.96383 5.34333 9.92716 5.34 9.89383 5.34C9.58049 5.34 9.34383 5.51 9.18383 5.85L9.07383 5.82C9.10716 5.5 9.23049 5.23667 9.44383 5.03C9.66383 4.81667 9.92716 4.71 10.2338 4.71C10.3872 4.71 10.6205 4.74667 10.9338 4.82C11.2272 4.88667 11.4572 4.92 11.6238 4.92C11.8638 4.92 12.1038 4.86333 12.3438 4.75L12.4338 4.85C11.8472 5.35667 11.5538 5.99 11.5538 6.75C11.5538 6.90333 11.5638 7.09333 11.5838 7.32C11.6038 7.54 11.6305 7.8 11.6638 8.1C11.6972 8.4 11.7238 8.66 11.7438 8.88C11.7638 9.1 11.7738 9.28667 11.7738 9.44C11.7738 9.82 11.6605 10.0933 11.4338 10.26C11.2405 10.4 10.9472 10.49 10.5538 10.53C10.6005 10.5567 10.6572 10.5967 10.7238 10.65C10.7905 10.7033 10.8705 10.7733 10.9638 10.86C11.2972 11.1533 11.5605 11.3 11.7538 11.3C12.0072 11.3 12.2005 11.2133 12.3338 11.04C12.4672 10.8667 12.5338 10.65 12.5338 10.39C12.5338 10.1967 12.5172 9.95667 12.4838 9.67C12.4572 9.37667 12.4172 9.03667 12.3638 8.65C12.3105 8.26333 12.2672 7.92667 12.2338 7.64C12.2072 7.35333 12.1938 7.11333 12.1938 6.92C12.1938 5.65333 12.7272 4.94 13.7938 4.78L13.8938 4.94L13.7438 4.98C13.2372 5.10667 12.9838 5.43667 12.9838 5.97C12.9838 6.32333 13.0438 6.89333 13.1638 7.68C13.2172 8.05333 13.2572 8.38333 13.2838 8.67C13.3172 8.95 13.3338 9.19333 13.3338 9.4C13.3338 9.43333 13.3305 9.48 13.3238 9.54C13.3238 9.59333 13.3205 9.65667 13.3138 9.73C13.2605 10.2833 13.1072 10.7233 12.8538 11.05C12.5405 11.43 12.1305 11.62 11.6238 11.62C11.3572 11.62 10.9805 11.53 10.4938 11.35C10.0138 11.17 9.64716 11.08 9.39383 11.08C9.10049 11.08 8.86049 11.25 8.67383 11.59H8.66383Z" fill="black"/>
</svg>
