<svg width="350" height="41" viewBox="0 0 350 41" fill="none" xmlns="http://www.w3.org/2000/svg">
<path d="M22.6725 29.872C26.4485 28.976 29.4245 26.576 31.6005 22.672L32.3685 22.816C31.5365 26.24 29.7125 29.024 26.8965 31.168C24.0485 33.28 20.8645 34.336 17.3445 34.336C13.3445 34.336 9.9205 33.008 7.0725 30.352C4.2565 27.664 2.8485 24.304 2.8485 20.272C2.8485 14.736 5.8085 9.904 11.7285 5.776C11.5685 5.776 11.3925 5.776 11.2005 5.776C11.0405 5.744 10.8805 5.712 10.7205 5.68C10.5285 5.68 10.3525 5.664 10.1925 5.632H9.6645C5.5685 5.632 2.6245 7.68 0.8325 11.776L0.0645 11.44C0.8325 8.272 2.2405 5.84 4.2885 4.144C6.3685 2.416 9.0085 1.552 12.2085 1.552C13.0405 1.552 14.0485 1.632 15.2325 1.792C16.4165 1.92 17.8085 2.144 19.4085 2.464C22.5765 3.04 24.9765 3.328 26.6085 3.328C28.9445 3.328 30.6085 2.448 31.6005 0.688L32.3685 0.927999C32.1765 3.04 31.3445 4.672 29.8725 5.824C28.4325 6.976 26.6405 7.552 24.4965 7.552C24.3045 7.552 24.0005 7.536 23.5845 7.504C23.1685 7.472 22.8645 7.456 22.6725 7.456V29.872ZM21.6165 7.264C21.4245 7.232 21.1845 7.184 20.8965 7.12C20.6405 7.056 20.3525 6.992 20.0325 6.928C19.7125 6.864 19.4085 6.816 19.1205 6.784C18.8645 6.72 18.6405 6.688 18.4485 6.688V18.736C18.4485 21.68 17.5845 23.936 15.8565 25.504C15.8245 25.536 15.5365 25.776 14.9925 26.224C14.4485 26.64 13.6325 27.296 12.5445 28.192C14.7205 29.6 17.0085 30.304 19.4085 30.304H19.9845C20.1765 30.304 20.3685 30.304 20.5605 30.304C20.7525 30.272 20.9285 30.24 21.0885 30.208C21.1525 30.176 21.2325 30.16 21.3285 30.16C21.4245 30.16 21.5205 30.144 21.6165 30.112V7.264ZM13.6485 5.776C11.5685 6.8 9.9365 8.496 8.7525 10.864C7.6645 13.008 7.1205 15.328 7.1205 17.824C7.1205 21.568 8.5925 24.768 11.5365 27.424C12.9445 26.4 13.6485 24.608 13.6485 22.048V5.776ZM37.809 34.624L33.777 31.312L35.697 29.728V7.264C35.697 5.184 35.009 3.6 33.633 2.512L34.017 1.84C35.105 2.32 36.273 3.136 37.521 4.288C38.833 2.784 40.689 1.824 43.089 1.408L43.377 1.936C43.281 2.032 43.041 2.208 42.657 2.464C41.217 3.488 40.497 5.072 40.497 7.216V15.76L47.217 10.336L48.273 11.2C49.361 12.096 50.033 13.12 50.289 14.272C50.481 15.104 50.577 16.192 50.577 17.536V27.04C50.577 29.312 50.321 31.12 49.809 32.464C49.169 34.096 48.049 35.472 46.449 36.592C44.881 37.776 41.969 39.216 37.713 40.912L37.425 40.048C37.649 39.952 37.921 39.824 38.241 39.664C38.561 39.536 38.945 39.376 39.393 39.184C41.761 38.064 43.409 36.784 44.337 35.344C45.233 33.968 45.681 31.936 45.681 29.248V17.68C45.681 15.984 45.169 14.752 44.145 13.984L40.497 16.864V29.728L42.033 31.456L37.809 34.624ZM68.5811 29.872L61.6211 34.576C58.8691 32.976 56.4051 31.984 54.2291 31.6V31.072C55.2211 30.592 55.7491 29.504 55.8131 27.808V27.28V17.392C55.8131 16.176 55.2851 15.568 54.2291 15.568L54.0371 15.04C55.9571 14.208 57.6851 13.408 59.2211 12.64C60.7571 11.84 62.1331 11.072 63.3491 10.336L69.2051 17.824L60.5171 25.024V29.44C62.2451 30.304 63.6371 31.024 64.6931 31.6L68.1011 29.2L68.5811 29.872ZM60.5171 23.44L65.4131 19.456L60.5171 13.168V23.44ZM107.704 29.872C111.48 28.976 114.456 26.576 116.632 22.672L117.4 22.816C116.568 26.24 114.744 29.024 111.928 31.168C109.08 33.28 105.896 34.336 102.376 34.336C98.3758 34.336 94.9518 33.008 92.1038 30.352C89.2878 27.664 87.8798 24.304 87.8798 20.272C87.8798 14.736 90.8398 9.904 96.7598 5.776C96.5998 5.776 96.4238 5.776 96.2318 5.776C96.0718 5.744 95.9118 5.712 95.7518 5.68C95.5598 5.68 95.3838 5.664 95.2238 5.632H94.6958C90.5998 5.632 87.6558 7.68 85.8637 11.776L85.0957 11.44C85.8637 8.272 87.2718 5.84 89.3198 4.144C91.3998 2.416 94.0398 1.552 97.2398 1.552C98.0718 1.552 99.0798 1.632 100.264 1.792C101.448 1.92 102.84 2.144 104.44 2.464C107.608 3.04 110.008 3.328 111.64 3.328C113.976 3.328 115.64 2.448 116.632 0.688L117.4 0.927999C117.208 3.04 116.376 4.672 114.904 5.824C113.464 6.976 111.672 7.552 109.528 7.552C109.336 7.552 109.032 7.536 108.616 7.504C108.2 7.472 107.896 7.456 107.704 7.456V29.872ZM106.648 7.264C106.456 7.232 106.216 7.184 105.928 7.12C105.672 7.056 105.384 6.992 105.064 6.928C104.744 6.864 104.44 6.816 104.152 6.784C103.896 6.72 103.672 6.688 103.48 6.688V18.736C103.48 21.68 102.616 23.936 100.888 25.504C100.856 25.536 100.568 25.776 100.024 26.224C99.4798 26.64 98.6638 27.296 97.5758 28.192C99.7518 29.6 102.04 30.304 104.44 30.304H105.016C105.208 30.304 105.4 30.304 105.592 30.304C105.784 30.272 105.96 30.24 106.12 30.208C106.184 30.176 106.264 30.16 106.36 30.16C106.456 30.16 106.552 30.144 106.648 30.112V7.264ZM98.6797 5.776C96.5998 6.8 94.9678 8.496 93.7838 10.864C92.6958 13.008 92.1518 15.328 92.1518 17.824C92.1518 21.568 93.6238 24.768 96.5678 27.424C97.9758 26.4 98.6797 24.608 98.6797 22.048V5.776ZM134.408 30.832C133.576 31.184 132.856 31.504 132.248 31.792C131.64 32.08 131.16 32.32 130.808 32.512C130.168 32.864 129.56 33.216 128.984 33.568C128.408 33.888 127.896 34.224 127.448 34.576C124.632 32.464 121.72 31.28 118.712 31.024V30.4C119.416 29.888 119.8 29.312 119.864 28.672C119.928 27.968 119.976 27.328 120.008 26.752C120.04 26.176 120.056 25.648 120.056 25.168V14.224C122.552 13.456 124.808 12.16 126.824 10.336C129.128 11.904 131.656 13.056 134.408 13.792V30.832ZM124.712 14.032V28.576L129.704 30.736V16.192L124.712 14.032ZM138.137 7.504V1.984L152.633 12.688C153.273 11.792 154.073 11.168 155.033 10.816L155.273 11.584C154.569 12.32 154.217 13.472 154.217 15.04V30.736C151.497 31.856 149.145 33.136 147.161 34.576C145.369 33.36 143.625 32.464 141.929 31.888C140.841 31.536 139.577 31.28 138.137 31.12V30.544C139.065 29.808 139.529 28.368 139.529 26.224V13.984C141.353 13.664 142.889 13.024 144.137 12.064L138.137 7.504ZM144.425 28.24L149.513 30.64V16.048L145.625 13.168C145.433 13.36 145.257 13.52 145.097 13.648C144.937 13.776 144.713 13.936 144.425 14.128V28.24ZM176.099 30.592L171.011 34.576C170.883 34.448 170.723 34.304 170.531 34.144C170.371 34.016 170.179 33.84 169.955 33.616C168.963 32.528 168.371 31.152 168.179 29.488L161.843 34.576C159.379 32.688 158.146 30.704 158.146 28.624C158.146 26 159.427 23.264 161.987 20.416L162.659 19.648L158.531 12.256C158.531 12.288 158.579 12.304 158.675 12.304H158.915C158.947 12.336 158.979 12.352 159.011 12.352H159.539C161.843 12.352 163.795 11.68 165.395 10.336C165.459 10.368 165.523 10.4 165.587 10.432C165.651 10.464 165.747 10.512 165.875 10.576C168.275 11.824 170.275 12.448 171.875 12.448C172.579 12.448 173.299 12.096 174.035 11.392L174.659 11.776C173.571 13.44 173.011 15.024 172.979 16.528C172.947 16.88 172.931 17.248 172.931 17.632C172.931 18.016 172.931 18.432 172.931 18.88V28.384V28.768C172.963 29.92 173.363 30.544 174.131 30.64C174.323 30.64 174.707 30.512 175.283 30.256L175.379 30.16L175.427 30.112C175.491 30.112 175.555 30.08 175.619 30.016L176.099 30.592ZM165.587 21.376L163.187 20.32C163.091 20.32 162.931 20.8 162.707 21.76C162.323 23.36 162.131 24.64 162.131 25.6C162.131 27.264 163.123 29.008 165.107 30.832L168.179 28.288V22.48L165.587 21.376ZM168.179 15.808L160.067 13.12L163.618 19.552L168.179 21.52V15.808ZM176.348 14.368L181.244 10.336C181.308 10.368 181.404 10.448 181.532 10.576C181.66 10.672 181.852 10.8 182.108 10.96C183.58 12.016 184.316 13.616 184.316 15.76L190.892 10.48C191.852 11.504 192.588 12.608 193.1 13.792C193.484 14.752 193.772 16.032 193.964 17.632C193.996 17.728 194.012 17.856 194.012 18.016V18.448C194.012 21.488 192.732 24.256 190.172 26.752C189.436 27.488 188.428 28.304 187.148 29.2C185.868 30.096 184.3 31.104 182.444 32.224C181.996 32.48 181.452 32.816 180.812 33.232C180.172 33.648 179.436 34.176 178.604 34.816C177.964 35.456 177.644 36.208 177.644 37.072C177.644 37.968 177.98 38.656 178.652 39.136C179.324 39.648 180.14 39.904 181.1 39.904C182.188 39.904 183.196 39.52 184.124 38.752C184.924 37.952 185.596 37.552 186.14 37.552C186.78 37.552 187.1 37.888 187.1 38.56C187.1 39.52 186.028 40.208 183.884 40.624C182.86 40.816 181.964 40.912 181.196 40.912C179.788 40.912 178.684 40.608 177.884 40C176.924 39.328 176.444 38.336 176.444 37.024C176.444 36.128 176.956 34.928 177.98 33.424C179.004 31.92 179.516 30.416 179.516 28.912V17.152C179.516 17.056 179.532 16.992 179.564 16.96V16.192V16.048C179.5 14.896 179.116 14.32 178.412 14.32C178.092 14.32 177.692 14.512 177.212 14.896C177.18 14.928 177.148 14.944 177.116 14.944C177.116 14.944 177.1 14.96 177.068 14.992L176.972 15.088L176.348 14.368ZM184.268 16.96V29.824C185.708 28.864 186.876 27.568 187.772 25.936C188.7 24.272 189.228 22.576 189.356 20.848V20.56V20.272C189.356 18.128 188.748 16.176 187.532 14.416L184.268 16.96ZM211.218 34.432L210.642 34.24C211.698 30.816 213.794 28.96 216.93 28.672C218.722 28.512 220.082 28.192 221.01 27.712C221.842 27.264 222.258 26.064 222.258 24.112C222.258 22.032 221.73 20.192 220.674 18.592C220.034 17.664 219.09 17.2 217.842 17.2C216.69 17.2 215.602 17.664 214.578 18.592L214.146 18.256C215.522 15.728 217.298 14.464 219.474 14.464H219.858C219.986 14.496 220.114 14.528 220.242 14.56C220.37 14.56 220.578 14.592 220.866 14.656C221.026 10.368 222.594 6.784 225.57 3.904C225.538 3.936 225.426 3.984 225.234 4.048C223.378 4.688 222.05 5.008 221.25 5.008C221.09 5.008 220.738 4.976 220.194 4.912C219.682 4.816 219.01 4.688 218.178 4.528C218.018 4.496 217.842 4.48 217.65 4.48C217.458 4.448 217.282 4.432 217.122 4.432C215.618 4.432 214.482 5.248 213.714 6.88L213.186 6.736C213.346 5.2 213.938 3.936 214.962 2.944C216.018 1.92 217.282 1.408 218.754 1.408C219.49 1.408 220.61 1.584 222.114 1.936C223.522 2.256 224.626 2.416 225.426 2.416C226.578 2.416 227.73 2.144 228.882 1.6L229.314 2.08C226.498 4.512 225.09 7.552 225.09 11.2C225.09 11.936 225.138 12.848 225.234 13.936C225.33 14.992 225.458 16.24 225.618 17.68C225.778 19.12 225.906 20.368 226.002 21.424C226.098 22.48 226.146 23.376 226.146 24.112C226.146 25.936 225.602 27.248 224.514 28.048C223.586 28.72 222.178 29.152 220.29 29.344C220.514 29.472 220.786 29.664 221.106 29.92C221.426 30.176 221.81 30.512 222.258 30.928C223.858 32.336 225.122 33.04 226.05 33.04C227.266 33.04 228.194 32.624 228.834 31.792C229.474 30.96 229.794 29.92 229.794 28.672C229.794 27.744 229.714 26.592 229.554 25.216C229.426 23.808 229.234 22.176 228.978 20.32C228.722 18.464 228.514 16.848 228.354 15.472C228.226 14.096 228.162 12.944 228.162 12.016C228.162 5.936 230.722 2.512 235.842 1.744L236.322 2.512L235.602 2.704C233.17 3.312 231.954 4.896 231.954 7.456C231.954 9.152 232.242 11.888 232.818 15.664C233.074 17.456 233.266 19.04 233.394 20.416C233.554 21.76 233.634 22.928 233.634 23.92C233.634 24.08 233.618 24.304 233.586 24.592C233.586 24.848 233.57 25.152 233.538 25.504C233.282 28.16 232.546 30.272 231.33 31.84C229.826 33.664 227.858 34.576 225.426 34.576C224.146 34.576 222.338 34.144 220.002 33.28C217.698 32.416 215.938 31.984 214.722 31.984C213.314 31.984 212.162 32.8 211.266 34.432H211.218ZM236.685 13.888L241.437 10.288C242.493 11.216 243.181 11.936 243.501 12.448C243.949 13.184 244.173 14.112 244.173 15.232L250.125 10.288L253.581 13.744L255.837 11.584L256.509 12.352C256.317 12.544 256.093 12.784 255.837 13.072C255.581 13.36 255.293 13.712 254.973 14.128C254.365 15.056 254.061 16.56 254.061 18.64V28.192C254.061 29.728 254.445 30.496 255.213 30.496C255.501 30.496 255.869 30.32 256.317 29.968V29.92C256.317 29.92 256.445 29.824 256.701 29.632L257.277 30.544L252.237 34.576C252.013 34.416 251.757 34.192 251.469 33.904C251.213 33.616 250.909 33.264 250.557 32.848C249.757 31.728 249.357 29.968 249.357 27.568V15.52L247.485 13.6L244.173 16.336V29.488L245.805 31.216L241.677 34.576L237.597 31.12L239.469 29.392V16.912C239.469 16.816 239.485 16.752 239.517 16.72V15.952V15.808C239.485 14.72 239.133 14.176 238.461 14.176C238.109 14.176 237.709 14.336 237.261 14.656L236.685 13.888ZM259.262 7.504V1.984L273.758 12.688C274.398 11.792 275.198 11.168 276.158 10.816L276.398 11.584C275.694 12.32 275.342 13.472 275.342 15.04V30.736C272.622 31.856 270.27 33.136 268.286 34.576C266.494 33.36 264.75 32.464 263.054 31.888C261.966 31.536 260.702 31.28 259.262 31.12V30.544C260.19 29.808 260.654 28.368 260.654 26.224V13.984C262.478 13.664 264.014 13.024 265.262 12.064L259.262 7.504ZM265.55 28.24L270.638 30.64V16.048L266.75 13.168C266.558 13.36 266.382 13.52 266.222 13.648C266.062 13.776 265.838 13.936 265.55 14.128V28.24ZM289.064 30.688L284.072 34.576C283.24 33.712 282.44 32.96 281.672 32.32C280.936 31.68 280.216 31.152 279.512 30.736V30.256C280.536 29.904 281.048 28.864 281.048 27.136V14.848L279.368 13.408L283.352 10.288L287.336 13.552L285.704 15.04V29.872L287.048 31.072L288.488 29.872L289.064 30.688ZM283.784 6.16L284.936 0.688L288.92 0.831998L284.936 6.256L283.784 6.16ZM308.942 30.592L303.854 34.576C303.726 34.448 303.566 34.304 303.374 34.144C303.214 34.016 303.022 33.84 302.798 33.616C301.806 32.528 301.214 31.152 301.022 29.488L294.686 34.576C292.222 32.688 290.99 30.704 290.99 28.624C290.99 26 292.27 23.264 294.83 20.416L295.502 19.648L291.374 12.256C291.374 12.288 291.422 12.304 291.518 12.304H291.758C291.79 12.336 291.822 12.352 291.854 12.352H292.382C294.686 12.352 296.638 11.68 298.238 10.336C298.302 10.368 298.366 10.4 298.43 10.432C298.494 10.464 298.59 10.512 298.718 10.576C301.118 11.824 303.118 12.448 304.718 12.448C305.422 12.448 306.142 12.096 306.878 11.392L307.502 11.776C306.414 13.44 305.854 15.024 305.822 16.528C305.79 16.88 305.774 17.248 305.774 17.632C305.774 18.016 305.774 18.432 305.774 18.88V28.384V28.768C305.806 29.92 306.206 30.544 306.974 30.64C307.166 30.64 307.55 30.512 308.126 30.256L308.222 30.16L308.27 30.112C308.334 30.112 308.398 30.08 308.462 30.016L308.942 30.592ZM298.43 21.376L296.03 20.32C295.934 20.32 295.774 20.8 295.55 21.76C295.166 23.36 294.974 24.64 294.974 25.6C294.974 27.264 295.966 29.008 297.95 30.832L301.022 28.288V22.48L298.43 21.376ZM301.022 15.808L292.91 13.12L296.462 19.552L301.022 21.52V15.808ZM309.576 13.888L314.328 10.288C315.384 11.216 316.072 11.936 316.392 12.448C316.84 13.184 317.064 14.112 317.064 15.232L323.016 10.288L326.472 13.744L328.728 11.584L329.4 12.352C329.208 12.544 328.984 12.784 328.728 13.072C328.472 13.36 328.184 13.712 327.864 14.128C327.256 15.056 326.952 16.56 326.952 18.64V28.192C326.952 29.728 327.336 30.496 328.104 30.496C328.392 30.496 328.76 30.32 329.208 29.968V29.92C329.208 29.92 329.336 29.824 329.592 29.632L330.168 30.544L325.128 34.576C324.904 34.416 324.648 34.192 324.36 33.904C324.104 33.616 323.8 33.264 323.448 32.848C322.648 31.728 322.248 29.968 322.248 27.568V15.52L320.376 13.6L317.064 16.336V29.488L318.696 31.216L314.568 34.576L310.488 31.12L312.36 29.392V16.912C312.36 16.816 312.376 16.752 312.408 16.72V15.952V15.808C312.376 14.72 312.024 14.176 311.352 14.176C311 14.176 310.6 14.336 310.152 14.656L309.576 13.888ZM330.808 34.048L336.904 25.456L332.44 23.008V14.512C333.944 14.064 335.128 13.536 335.992 12.928C336.408 12.608 337.32 11.744 338.728 10.336C341.032 11.488 343.112 12.064 344.968 12.064C345.544 12.064 346.04 11.952 346.456 11.728C347.032 11.44 347.32 11.04 347.32 10.528C347.32 10.112 347.16 9.744 346.84 9.424C346.808 9.424 346.792 9.408 346.792 9.376C346.44 9.024 346.264 8.592 346.264 8.08C346.264 7.152 346.728 6.688 347.656 6.688C348.808 6.688 349.384 7.36 349.384 8.704V9.136C349.224 10.096 348.536 11.424 347.32 13.12L343.288 18.688L348.184 21.52V30.88C345.816 31.584 343.608 32.816 341.56 34.576C339.608 33.392 337.832 32.8 336.232 32.8C334.536 32.8 332.936 33.392 331.432 34.576L330.808 34.048ZM343.336 24.064L340.552 22.528L335.464 29.728L336.664 29.392C336.824 29.36 336.968 29.328 337.096 29.296C337.224 29.264 337.368 29.232 337.528 29.2C337.592 29.2 337.672 29.2 337.768 29.2C337.864 29.2 337.992 29.184 338.152 29.152H338.776H339.064C339.192 29.152 339.288 29.168 339.352 29.2C340.376 29.232 341.704 29.696 343.336 30.592V24.064ZM337.144 20.464L339.496 21.808L344.056 15.424C343.64 15.552 343.176 15.616 342.664 15.616H342.136C341.784 15.616 341.448 15.6 341.128 15.568C340.84 15.504 340.536 15.44 340.216 15.376C339.032 15.056 338.008 14.624 337.144 14.08V20.464Z" fill="white"/>
</svg>
