<svg width="65" height="36" viewBox="0 0 65 36" fill="none" xmlns="http://www.w3.org/2000/svg">
<path d="M25.7819 30.872C29.5579 29.976 32.5339 27.576 34.7099 23.672L35.4779 23.816C34.6459 27.24 32.8219 30.024 30.0059 32.168C27.1579 34.28 23.9739 35.336 20.4539 35.336C16.4539 35.336 13.0299 34.008 10.1819 31.352C7.36588 28.664 5.95788 25.304 5.95788 21.272C5.95788 15.736 8.91788 10.904 14.8379 6.776C14.6779 6.776 14.5019 6.776 14.3099 6.776C14.1499 6.744 13.9899 6.712 13.8299 6.68C13.6379 6.68 13.4619 6.664 13.3019 6.632H12.7739C8.67788 6.632 5.73388 8.68 3.94187 12.776L3.17387 12.44C3.94187 9.272 5.34988 6.84 7.39788 5.144C9.47788 3.416 12.1179 2.552 15.3179 2.552C16.1499 2.552 17.1579 2.632 18.3419 2.792C19.5259 2.92 20.9179 3.144 22.5179 3.464C25.6859 4.04 28.0859 4.328 29.7179 4.328C32.0539 4.328 33.7179 3.448 34.7099 1.688L35.4779 1.928C35.2859 4.04 34.4539 5.672 32.9819 6.824C31.5419 7.976 29.7499 8.552 27.6059 8.552C27.4139 8.552 27.1099 8.536 26.6939 8.504C26.2779 8.472 25.9739 8.456 25.7819 8.456V30.872ZM24.7259 8.264C24.5339 8.232 24.2939 8.184 24.0059 8.12C23.7499 8.056 23.4619 7.992 23.1419 7.928C22.8219 7.864 22.5179 7.816 22.2299 7.784C21.9739 7.72 21.7499 7.688 21.5579 7.688V19.736C21.5579 22.68 20.6939 24.936 18.9659 26.504C18.9339 26.536 18.6459 26.776 18.1019 27.224C17.5579 27.64 16.7419 28.296 15.6539 29.192C17.8299 30.6 20.1179 31.304 22.5179 31.304H23.0939C23.2859 31.304 23.4779 31.304 23.6699 31.304C23.8619 31.272 24.0379 31.24 24.1979 31.208C24.2619 31.176 24.3419 31.16 24.4379 31.16C24.5339 31.16 24.6299 31.144 24.7259 31.112V8.264ZM16.7579 6.776C14.6779 7.8 13.0459 9.496 11.8619 11.864C10.7739 14.008 10.2299 16.328 10.2299 18.824C10.2299 22.568 11.7019 25.768 14.6459 28.424C16.0539 27.4 16.7579 25.608 16.7579 23.048V6.776ZM35.6864 35.432L35.1104 35.24C36.1664 31.816 38.2624 29.96 41.3984 29.672C43.1904 29.512 44.5504 29.192 45.4784 28.712C46.3104 28.264 46.7264 27.064 46.7264 25.112C46.7264 23.032 46.1984 21.192 45.1424 19.592C44.5024 18.664 43.5584 18.2 42.3104 18.2C41.1584 18.2 40.0704 18.664 39.0464 19.592L38.6144 19.256C39.9904 16.728 41.7664 15.464 43.9424 15.464H44.3264C44.4544 15.496 44.5824 15.528 44.7104 15.56C44.8384 15.56 45.0464 15.592 45.3344 15.656C45.4944 11.368 47.0624 7.784 50.0384 4.904C50.0064 4.936 49.8944 4.984 49.7024 5.048C47.8464 5.688 46.5184 6.008 45.7184 6.008C45.5584 6.008 45.2064 5.976 44.6624 5.912C44.1504 5.816 43.4784 5.688 42.6464 5.528C42.4864 5.496 42.3104 5.48 42.1184 5.48C41.9264 5.448 41.7504 5.432 41.5904 5.432C40.0864 5.432 38.9504 6.248 38.1824 7.88L37.6544 7.736C37.8144 6.2 38.4064 4.936 39.4304 3.944C40.4864 2.92 41.7504 2.408 43.2224 2.408C43.9584 2.408 45.0784 2.584 46.5824 2.936C47.9904 3.256 49.0944 3.416 49.8944 3.416C51.0464 3.416 52.1984 3.144 53.3504 2.6L53.7824 3.08C50.9664 5.512 49.5584 8.552 49.5584 12.2C49.5584 12.936 49.6064 13.848 49.7024 14.936C49.7984 15.992 49.9264 17.24 50.0864 18.68C50.2464 20.12 50.3744 21.368 50.4704 22.424C50.5664 23.48 50.6144 24.376 50.6144 25.112C50.6144 26.936 50.0704 28.248 48.9824 29.048C48.0544 29.72 46.6464 30.152 44.7584 30.344C44.9824 30.472 45.2544 30.664 45.5744 30.92C45.8944 31.176 46.2784 31.512 46.7264 31.928C48.3264 33.336 49.5904 34.04 50.5184 34.04C51.7344 34.04 52.6624 33.624 53.3024 32.792C53.9424 31.96 54.2624 30.92 54.2624 29.672C54.2624 28.744 54.1824 27.592 54.0224 26.216C53.8944 24.808 53.7024 23.176 53.4464 21.32C53.1904 19.464 52.9824 17.848 52.8224 16.472C52.6944 15.096 52.6304 13.944 52.6304 13.016C52.6304 6.936 55.1904 3.512 60.3104 2.744L60.7904 3.512L60.0704 3.704C57.6384 4.312 56.4224 5.896 56.4224 8.456C56.4224 10.152 56.7104 12.888 57.2864 16.664C57.5424 18.456 57.7344 20.04 57.8624 21.416C58.0224 22.76 58.1024 23.928 58.1024 24.92C58.1024 25.08 58.0864 25.304 58.0544 25.592C58.0544 25.848 58.0384 26.152 58.0064 26.504C57.7504 29.16 57.0144 31.272 55.7984 32.84C54.2944 34.664 52.3264 35.576 49.8944 35.576C48.6144 35.576 46.8064 35.144 44.4704 34.28C42.1664 33.416 40.4064 32.984 39.1904 32.984C37.7824 32.984 36.6304 33.8 35.7344 35.432H35.6864Z" fill="white"/>
</svg>
